<svg version="1.2" xmlns="http://www.w3.org/2000/svg" viewBox="0 0 266 266" width="266" height="266">
<g>
	<path fill="#333333" d="m262.3 116v32.3c0 2.3 0 4.6-0.1 7c-1.4 22.3-10.3 43-24.8 60.1q-3 3.4-6.2 6.7q-3.2 3.2-6.7 6.2q-3.4 3-7.1 5.7q-3.7 2.8-7.5 5.2q-3.1 2-6.3 3.8q-3.2 1.8-6.5 3.4q-3.3 1.6-6.6 3.1q-3.4 1.4-6.8 2.7q-3.7 1.3-7.4 2.5q-3.8 1.1-7.5 2q-3.8 1-7.7 1.7q-3.8 0.7-7.7 1.3q-2.4 0.3-4.8 0.5q-2.4 0.3-4.8 0.4q-2.4 0.2-4.8 0.3q-2.4 0.1-4.8 0.1h-1c-70.8 0-128.6-49.5-129.2-110.9v-32.3c-0.5-61.8 56.8-112.3 128.1-112.8h1.2c70.7 0 128.5 49.3 129 111z" />
	<path fill="#ffffff" d="m249.5 116c0.4 55.5-51.2 101.1-115.3 101.5h-1c-63.7 0-115.8-44.6-116.2-99.9c-0.6-55.5 51.1-101 115.3-101.5h0.9c63.7 0 115.7 44.6 116.3 99.9zm-12.9 0.1c-0.5-48.9-46.9-88.8-103.4-88.8h-0.8c-27.5 0.2-53.4 9.7-72.8 26.8c-19.4 17.1-30 39.6-29.8 63.4c0.5 49 46.9 88.8 103.4 88.8h0.8c57-0.4 103-40.9 102.6-90.2z" />
</g>
<g>
	<path fill="#ffffff" id="y" d="m149.26326,58.19384c-1.41978,-5.37409 -4.88318,-10.19199 -10.28334,-10.87444c-5.21,-0.45582 -10.7078,3.57808 -13.68657,7.62237c3.66396,2.5255 7.40614,11.3577 8.16033,15.93858c2.48138,11.24184 4.08232,25.34657 2.90367,35.21822c-1.1018,10.19337 -6.8874,18.71698 -12.36324,6.89817l-7.04422,-27.49566c-1.41978,-5.37409 -5.31821,-10.02006 -10.71838,-10.70251c-5.09668,-0.5509 -10.00967,2.79919 -12.7618,6.6533c3.17031,2.16732 5.10197,7.6912 6.23258,11.57002c1.3794,4.63558 3.56769,13.22683 4.47167,17.29583c1.83011,9.08491 5.50328,19.90602 11.99367,23.72878c3.60534,1.99538 7.16637,2.09694 10.40177,1.12004c12.81003,-3.60416 16.95569,-20.98604 17.17174,-35.4568c3.67709,11.97643 8.86767,23.45529 11.36082,38.16307c4.26856,24.41789 -19.08772,34.55419 -24.34085,21.3899c-3.85786,12.89218 8.47302,24.36574 22.42661,17.29172c6.59841,-3.41262 12.22385,-8.90532 15.23124,-15.67704c7.98802,-18.0957 2.64628,-35.04765 -1.83578,-49.82445c-5.49544,-17.59539 -11.86094,-34.84691 -17.31991,-52.8591l-0.00001,-0.00001l-0.00002,0l0.00001,0.00001z"/>
</g>
</svg>