<svg width="266" height="266" xmlns="http://www.w3.org/2000/svg" xmlns:svg="http://www.w3.org/2000/svg">
<g>
   <path fill="#bbbbbb" d="m262.2,116.8l0,32.3c0,2 -0.2,4 -0.3,5.9c-1.3,22 -10.1,42.9 -24.8,60.3q-2.9,3.5 -6.1,6.7q-3.2,3.2 -6.7,6.2q-3.4,3 -7.1,5.7q-3.6,2.7 -7.4,5.2q-3.1,1.9 -6.4,3.7q-3.2,1.9 -6.5,3.5q-3.3,1.6 -6.6,3.1q-3.4,1.4 -6.9,2.6c-2.7,1 -5.5,2 -8.4,2.9q-2.7,0.8 -5.4,1.5q-2.8,0.7 -5.5,1.2q-2.8,0.6 -5.6,1.1q-2.8,0.5 -5.6,0.8q-2.4,0.4 -4.9,0.7q-2.5,0.3 -5,0.4q-2.5,0.2 -5,0.3q-2.6,0.1 -5.1,0.1c-53.4,0 -103.5,-29.2 -122,-75.6q-1.7,-4.3 -3,-8.8q-1.4,-4.4 -2.2,-9q-0.9,-4.6 -1.4,-9.3q-0.4,-4.6 -0.5,-9.3l0,-32.2q0.1,4.7 0.5,9.3q0.5,4.7 1.4,9.3q0.9,4.6 2.2,9.1q1.3,4.5 3,8.8c18.5,46.2 68.6,75.4 122,75.4q2.5,0 5.1,0q2.5,-0.1 5,-0.3q2.5,-0.2 5,-0.5q2.5,-0.2 4.9,-0.6q2.8,-0.4 5.6,-0.8q2.8,-0.5 5.6,-1.1q2.7,-0.6 5.5,-1.3q2.7,-0.7 5.4,-1.4c2.8,-1 5.7,-1.9 8.4,-2.9q3.5,-1.2 6.8,-2.7q3.4,-1.4 6.7,-3q3.3,-1.7 6.5,-3.5q3.2,-1.8 6.3,-3.8q3.9,-2.4 7.5,-5.2q3.7,-2.7 7.1,-5.7q3.5,-3 6.7,-6.2q3.2,-3.2 6.1,-6.7c14.7,-17.4 23.5,-38.3 24.8,-60.3c0.1,-1.9 0.3,-3.8 0.3,-5.9z"/>
   <path fill="#ffffff" d="m175,222.7q-5.1,1.5 -10.3,2.6q-5.2,1.2 -10.5,1.9q-5.3,0.8 -10.6,1.2q-5.4,0.3 -10.7,0.3c-53.4,0 -103.5,-29.2 -122,-75.4c-23.2,-58.4 12.6,-122.1 80.1,-142.1q5.1,-1.5 10.3,-2.7q5.2,-1.1 10.5,-1.9q5.3,-0.8 10.6,-1.2q5.3,-0.4 10.7,-0.4c53.5,0 103.5,29.2 122,75.4c23.2,58.5 -12.7,122.1 -80.1,142.3z"/>
   <path fill="#333333" d="m170.8,212q-4.6,1.4 -9.2,2.4q-4.7,1 -9.5,1.7q-4.7,0.7 -9.5,1q-4.7,0.4 -9.5,0.4c-48.2,0 -93.4,-26.2 -109.9,-67.8c-21,-52.6 11.3,-109.9 72,-127.9q4.6,-1.4 9.2,-2.5q4.7,-1 9.4,-1.7q4.8,-0.7 9.6,-1q4.7,-0.4 9.5,-0.4c48.2,0 93.3,26.3 109.9,67.9c20.8,52.5 -11.5,109.8 -72,127.9zm55,-55.9c12,-21.5 13.8,-45.8 4.8,-68.3c-14.4,-36.2 -53.7,-60.4 -97.7,-60.4q-4.2,0 -8.5,0.3q-4.2,0.3 -8.4,0.9q-4.3,0.6 -8.4,1.5q-4.2,1 -8.2,2.2c-26.1,7.8 -47.1,23.9 -59.2,45.4c-12.1,21.4 -13.8,45.7 -4.9,68.3c14.3,36 53.6,60.3 97.8,60.3q4.2,0.1 8.5,-0.2q4.2,-0.4 8.4,-1q4.2,-0.6 8.4,-1.5q4.1,-0.9 8.2,-2.1c26,-7.8 47.1,-23.9 59.2,-45.4z"/>
</g>
<g>
  <path fill="#212529" id="y" d="m149.26326,58.19384c-1.41978,-5.37409 -4.88318,-10.19199 -10.28334,-10.87444c-5.21,-0.45582 -10.7078,3.57808 -13.68657,7.62237c3.66396,2.5255 7.40614,11.3577 8.16033,15.93858c2.48138,11.24184 4.08232,25.34657 2.90367,35.21822c-1.1018,10.19337 -6.8874,18.71698 -12.36324,6.89817l-7.04422,-27.49566c-1.41978,-5.37409 -5.31821,-10.02006 -10.71838,-10.70251c-5.09668,-0.5509 -10.00967,2.79919 -12.7618,6.6533c3.17031,2.16732 5.10197,7.6912 6.23258,11.57002c1.3794,4.63558 3.56769,13.22683 4.47167,17.29583c1.83011,9.08491 5.50328,19.90602 11.99367,23.72878c3.60534,1.99538 7.16637,2.09694 10.40177,1.12004c12.81003,-3.60416 16.95569,-20.98604 17.17174,-35.4568c3.67709,11.97643 8.86767,23.45529 11.36082,38.16307c4.26856,24.41789 -19.08772,34.55419 -24.34085,21.3899c-3.85786,12.89218 8.47302,24.36574 22.42661,17.29172c6.59841,-3.41262 12.22385,-8.90532 15.23124,-15.67704c7.98802,-18.0957 2.64628,-35.04765 -1.83578,-49.82445c-5.49544,-17.59539 -11.86094,-34.84691 -17.31991,-52.8591l-0.00001,-0.00001l-0.00002,0l0.00001,0.00001z"/>
</g>
</svg>