<svg xmlns="http://www.w3.org/2000/svg" viewBox="0 0 612 612" width="612" height="612">
	<style>
		tspan { white-space:pre }
		.shp0 { fill: #5586ff } 
	</style>
	<path id="Layer" class="shp0" d="M612 510C612 566.1 566.1 612 510 612L102 612C45.9 612 0 566.1 0 510L0 102C0 45.9 45.9 0 102 0L510 0C566.1 0 612 45.9 612 102L612 510Z" />
	<path id="y " fill="#ffffff" d="M454 178C462 161 463.5 141 451 127.5C438.5 115 415.5 113.5 399 117.5C403 132 393.5 163 385.5 176.5C367.5 211 341 251 316.5 274C291.5 298 258 307.5 269.5 265L311 178.5C319 161.5 319 141 306.5 127.5C294.5 115 274.5 113 259 117C262.5 129.5 255.5 148 250 160.5C243.5 175.5 230.5 202.5 224 215C209 242.5 195 278.5 203.5 302.5C208.5 315.5 217.5 323.5 228 328C269 346.5 317.5 310.5 349.5 273.5C333 312.5 321.5 353.5 296 397C254 469.5 171.5 445 186.5 399.5C148.5 424.5 155.5 481 207 493C231.5 498.5 258 496.5 280.5 485.5C340.5 456 363.5 400.5 384 352.5C408 295 429 236.5 454 178Z" />
</svg>