<?xml version="1.0" encoding="UTF-8" standalone="no"?>
<svg
   width="38.661678"
   height="32"
   viewBox="0 0 38.661678 32"
   fill="none"
   version="1.1"
   id="svg1"
   sodipodi:docname="fm.svg"
   inkscape:version="1.3.2 (091e20e, 2023-11-25)"
   xmlns:inkscape="http://www.inkscape.org/namespaces/inkscape"
   xmlns:sodipodi="http://sodipodi.sourceforge.net/DTD/sodipodi-0.dtd"
   xmlns="http://www.w3.org/2000/svg"
   xmlns:svg="http://www.w3.org/2000/svg">
  <sodipodi:namedview
     id="namedview1"
     pagecolor="#ffffff"
     bordercolor="#000000"
     borderopacity="0.25"
     inkscape:showpageshadow="2"
     inkscape:pageopacity="0.0"
     inkscape:pagecheckerboard="0"
     inkscape:deskcolor="#d1d1d1"
     inkscape:zoom="7.375"
     inkscape:cx="15.932203"
     inkscape:cy="18.440678"
     inkscape:window-width="1920"
     inkscape:window-height="1027"
     inkscape:window-x="1440"
     inkscape:window-y="25"
     inkscape:window-maximized="1"
     inkscape:current-layer="svg1" />
  <defs
     id="defs1">
    <clipPath
       id="clip0_361_12">
      <rect
         width="32"
         height="32"
         fill="#ffffff"
         id="rect1"
         x="0"
         y="0" />
    </clipPath>
    <linearGradient
       id="l"
       x1="106.363"
       x2="106.363"
       y1="48.099998"
       y2="135.423"
       gradientUnits="userSpaceOnUse"
       gradientTransform="matrix(0.36174005,0,0,0.36174005,-19.145099,-17.193809)">
      <stop
         stop-color="#FCFBFC"
         id="stop42"
         offset="0"
         style="stop-color:#4d2afc;stop-opacity:1;" />
      <stop
         offset="1"
         stop-color="#D7D9DD"
         id="stop43" />
    </linearGradient>
  </defs>
  <style
     id="style1">
    @media (prefers-color-scheme: dark) {
    /* #fa based on chrome theme */
    path { fill: #fafafa }
    }
  </style>
  <path
     id="path17"
     style="fill:#ffffff;stroke-width:0.36174;fill-opacity:1"
     d="M 2.1894531 0.20507812 A 2.0713235 2.0713235 0 0 0 0.11914062 2.2773438 L 0.11914062 29.722656 A 2.0713235 2.0713235 0 0 0 2.1894531 31.794922 L 36.472656 31.794922 A 2.0713235 2.0713235 0 0 0 38.542969 29.722656 L 38.542969 7.6132812 A 2.0713235 2.0713235 0 0 0 36.472656 5.5429688 L 16.992188 5.5429688 A 2.0713235 2.0713235 0 0 1 15.642578 5.0429688 L 10.591797 0.70507812 C 10.216311 0.3824061 9.73741 0.20507812 9.2421875 0.20507812 L 2.1894531 0.20507812 z M 19.464844 10 C 21.986441 10 23.927764 10.560139 25.289062 11.679688 C 26.650261 12.776856 27.330078 14.310852 27.330078 16.28125 L 27.330078 24.607422 C 27.330078 25.255021 26.901365 25.810738 26.259766 25.898438 C 25.791066 25.965637 25.300309 26 24.787109 26 C 24.29611 26 23.848865 25.965637 23.447266 25.898438 C 23.067866 25.831338 22.744362 25.697594 22.476562 25.496094 C 22.208863 25.294594 21.997997 25.025353 21.841797 24.689453 C 21.707897 24.331253 21.640625 23.872199 21.640625 23.3125 L 21.640625 16.482422 C 21.640625 15.788323 21.438809 15.284203 21.037109 14.970703 C 20.65781 14.634903 20.134343 14.466797 19.464844 14.466797 C 19.018544 14.466797 18.5713 14.522766 18.125 14.634766 C 17.384101 14.830365 17.021484 15.593076 17.021484 16.359375 L 17.021484 24.607422 C 17.021484 25.255021 16.590818 25.810738 15.949219 25.898438 C 15.480619 25.965637 14.989862 26 14.476562 26 C 13.985663 26 13.540341 25.965637 13.138672 25.898438 C 12.759312 25.831338 12.435748 25.697594 12.167969 25.496094 C 11.900189 25.294594 11.68745 25.025353 11.53125 24.689453 C 11.39736 24.331253 11.330078 23.872199 11.330078 23.3125 L 11.330078 14.332031 C 11.330078 13.727432 11.453749 13.236068 11.699219 12.855469 C 11.966998 12.474769 12.323222 12.127973 12.769531 11.814453 C 13.52829 11.277064 14.477136 10.839776 15.615234 10.503906 C 16.775633 10.168037 18.058945 10 19.464844 10 z " />
</svg>
