<svg width="32" height="32" viewBox="0 0 32 32" fill="none" xmlns="http://www.w3.org/2000/svg">
  <g clip-path="url(#clip0_361_12)">
    <path fill-rule="evenodd" clip-rule="evenodd"
          d="M16 32C24.8366 32 32 24.8366 32 16C32 7.16344 24.8366 0 16 0C7.16344 0 0 7.16344 0 16C0 24.8366 7.16344 32 16 32ZM17.7071 12.9708C18.1088 13.2843 18.3096 13.7881 18.3096 14.4822L18.3096 21.3131C18.3096 21.8728 18.3766 22.3319 18.5105 22.6901C18.6667 23.026 18.8787 23.2947 19.1464 23.4962C19.4142 23.6977 19.7378 23.8321 20.1172 23.8992C20.5188 23.9664 20.9651 24 21.4561 24C21.9693 24 22.4602 23.9664 22.9289 23.8992C23.5705 23.8115 24 23.2545 24 22.6069L24 14.2807C24 12.3103 23.3194 10.7765 21.9582 9.67933C20.5969 8.55978 18.6555 8 16.1339 8C14.728 8 13.4449 8.16793 12.2845 8.5038C11.1464 8.83967 10.1981 9.27629 9.43934 9.81368C8.99303 10.1272 8.63599 10.4742 8.36821 10.8549C8.12274 11.2355 8.00001 11.7281 8.00001 12.3327L8 21.3131C8 21.8728 8.06695 22.3319 8.20084 22.6901C8.35704 23.026 8.56904 23.2947 8.83682 23.4962C9.1046 23.6977 9.42817 23.8321 9.80753 23.8992C10.2092 23.9664 10.6555 24 11.1464 24C11.6597 24 12.1506 23.9664 12.6192 23.8992C13.2608 23.8115 13.6904 23.2545 13.6904 22.6069L13.6904 14.3596C13.6904 13.5933 14.0541 12.8306 14.795 12.635C15.2413 12.523 15.6876 12.467 16.1339 12.467C16.8034 12.467 17.3278 12.635 17.7071 12.9708Z"
          fill="#3C4043"/>
  </g>
  <defs>
    <clipPath id="clip0_361_12">
      <rect width="32" height="32" fill="#a8c7fa"/>
    </clipPath>
  </defs>
  <style>
    @media (prefers-color-scheme: dark) {
    /* #fa based on chrome theme */
    path { fill: #a8c7fa }
    }
  </style>
</svg>