<svg height='300px' width='300px'  fill="#000000" xmlns="http://www.w3.org/2000/svg" xmlns:xlink="http://www.w3.org/1999/xlink" version="1.1" x="0px" y="0px" viewBox="0 0 50 50" style="enable-background:new 0 0 50 50;" xml:space="preserve"><path d="M30.112,24.151C31.288,22.758,32,20.961,32,19c0-4.411-3.589-8-8-8h-9v12v4v12h11c4.411,0,8-3.589,8-8  C34,28.094,32.437,25.552,30.112,24.151z M19,15h5c2.206,0,4,1.794,4,4s-1.794,4-4,4h-5V15z M26,35h-7v-8h5h2c2.206,0,4,1.794,4,4  S28.206,35,26,35z"></path></svg>