<svg height='300px' width='300px'  fill="#000000" xmlns:x="http://ns.adobe.com/Extensibility/1.0/" xmlns:i="http://ns.adobe.com/AdobeIllustrator/10.0/" xmlns:graph="http://ns.adobe.com/Graphs/1.0/" xmlns="http://www.w3.org/2000/svg" xmlns:xlink="http://www.w3.org/1999/xlink" version="1.1" x="0px" y="0px" viewBox="0 0 64 64" enable-background="new 0 0 64 64" xml:space="preserve"><metadata><sfw xmlns="http://ns.adobe.com/SaveForWeb/1.0/"><slices></slices><sliceSourceBounds y="-8160" x="-8165" width="16389" height="16384" bottomLeftOrigin="true"></sliceSourceBounds></sfw></metadata><g><path d="M38.172,30.763C40.521,28.571,42,25.458,42,22c0-6.617-5.383-12-12-12H20c-1.104,0-2,0.896-2,2s0.896,2,2,2v36   c-1.104,0-2,0.896-2,2s0.896,2,2,2h14c6.617,0,12-5.383,12-12C46,36.852,42.735,32.463,38.172,30.763z M30,14c4.411,0,8,3.589,8,8   s-3.589,8-8,8h-6V14H30z M34,50H24V34h10c4.411,0,8,3.589,8,8S38.411,50,34,50z"></path></g></svg>