<svg height='300px' width='300px'  fill="#000000" xmlns="http://www.w3.org/2000/svg" xmlns:xlink="http://www.w3.org/1999/xlink" viewBox="0 0 24 24" version="1.1" x="0px" y="0px"><title>icon/bullet-list-solid</title><desc>Created with Sketch.</desc><g stroke="none" stroke-width="1" fill="none" fill-rule="evenodd"><path d="M4,15 C2.897,15 2,15.897 2,17 C2,18.103 2.897,19 4,19 C5.103,19 6,18.103 6,17 C6,15.897 5.103,15 4,15 L4,15 Z M4,10 C2.897,10 2,10.897 2,12 C2,13.103 2.897,14 4,14 C5.103,14 6,13.103 6,12 C6,10.897 5.103,10 4,10 L4,10 Z M4,9 C5.103,9 6,8.103 6,7 C6,5.897 5.103,5 4,5 C2.897,5 2,5.897 2,7 C2,8.103 2.897,9 4,9 L4,9 Z M8,18 L22,18 L22,16 L8,16 L8,18 Z M8,13 L22,13 L22,11 L8,11 L8,13 Z M8,8 L22,8 L22,6 L8,6 L8,8 Z" fill="#000000"></path></g></svg>