<svg height='300px' width='300px'  fill="#000000" xmlns:x="http://ns.adobe.com/Extensibility/1.0/" xmlns:i="http://ns.adobe.com/AdobeIllustrator/10.0/" xmlns:graph="http://ns.adobe.com/Graphs/1.0/" xmlns="http://www.w3.org/2000/svg" xmlns:xlink="http://www.w3.org/1999/xlink" version="1.1" x="0px" y="0px" viewBox="0 0 64 64" enable-background="new 0 0 64 64" xml:space="preserve"><metadata><sfw xmlns="http://ns.adobe.com/SaveForWeb/1.0/"><slices></slices><sliceSourceBounds y="-8160" x="-8165" width="16389" height="16384" bottomLeftOrigin="true"></sliceSourceBounds></sfw></metadata><g><g><path d="M20,10h-8c-1.104,0-2,0.896-2,2v8c0,1.104,0.896,2,2,2h8c1.104,0,2-0.896,2-2v-8C22,10.896,21.104,10,20,10z M18,18h-4v-4    h4V18z"></path><path d="M20,26h-8c-1.104,0-2,0.896-2,2v8c0,1.104,0.896,2,2,2h8c1.104,0,2-0.896,2-2v-8C22,26.896,21.104,26,20,26z M18,34h-4v-4    h4V34z"></path><path d="M20,42h-8c-1.104,0-2,0.896-2,2v8c0,1.104,0.896,2,2,2h8c1.104,0,2-0.896,2-2v-8C22,42.896,21.104,42,20,42z M18,50h-4v-4    h4V50z"></path><path d="M28,18h24c1.104,0,2-0.896,2-2s-0.896-2-2-2H28c-1.104,0-2,0.896-2,2S26.896,18,28,18z"></path><path d="M52,30H28c-1.104,0-2,0.896-2,2s0.896,2,2,2h24c1.104,0,2-0.896,2-2S53.104,30,52,30z"></path><path d="M52,46H28c-1.104,0-2,0.896-2,2s0.896,2,2,2h24c1.104,0,2-0.896,2-2S53.104,46,52,46z"></path></g></g></svg>