<svg height='300px' width='300px'  fill="#000000" xmlns="http://www.w3.org/2000/svg" xmlns:xlink="http://www.w3.org/1999/xlink" viewBox="0 0 24 24" version="1.1" x="0px" y="0px"><title>icon/numbered-list-solid</title><desc>Created with Sketch.</desc><g stroke="none" stroke-width="1" fill="none" fill-rule="evenodd"><path d="M3,14 L5,14 L5,10 L3,10 L3,14 Z M3,19 L5,19 L5,15 L3,15 L3,19 Z M3,9 L5,9 L5,5 L3,5 L3,9 Z M7,18 L22,18 L22,16 L7,16 L7,18 Z M7,13 L22,13 L22,11 L7,11 L7,13 Z M7,8 L22,8 L22,6 L7,6 L7,8 Z" fill="#000000"></path></g></svg>