<svg height='300px' width='300px'  fill="#000000" xmlns:x="http://ns.adobe.com/Extensibility/1.0/" xmlns:i="http://ns.adobe.com/AdobeIllustrator/10.0/" xmlns:graph="http://ns.adobe.com/Graphs/1.0/" xmlns="http://www.w3.org/2000/svg" xmlns:xlink="http://www.w3.org/1999/xlink" version="1.1" x="0px" y="0px" viewBox="0 0 64 64" enable-background="new 0 0 64 64" xml:space="preserve"><metadata><sfw xmlns="http://ns.adobe.com/SaveForWeb/1.0/"><slices></slices><sliceSourceBounds y="-8160" x="-8165" width="16389" height="16384" bottomLeftOrigin="true"></sliceSourceBounds></sfw></metadata><g><g><path d="M28,18h24c1.104,0,2-0.896,2-2s-0.896-2-2-2H28c-1.104,0-2,0.896-2,2S26.896,18,28,18z"></path><path d="M52,30H28c-1.104,0-2,0.896-2,2s0.896,2,2,2h24c1.104,0,2-0.896,2-2S53.104,30,52,30z"></path><path d="M52,46H28c-1.104,0-2,0.896-2,2s0.896,2,2,2h24c1.104,0,2-0.896,2-2S53.104,46,52,46z"></path><path d="M16,10c-3.309,0-6,2.691-6,6s2.691,6,6,6s6-2.691,6-6S19.309,10,16,10z M16,18c-1.103,0-2-0.897-2-2s0.897-2,2-2    s2,0.897,2,2S17.103,18,16,18z"></path><path d="M16,26c-3.309,0-6,2.691-6,6s2.691,6,6,6s6-2.691,6-6S19.309,26,16,26z M16,34c-1.103,0-2-0.897-2-2c0-1.103,0.897-2,2-2    s2,0.897,2,2C18,33.103,17.103,34,16,34z"></path><path d="M16,42c-3.309,0-6,2.691-6,6s2.691,6,6,6s6-2.691,6-6S19.309,42,16,42z M16,50c-1.103,0-2-0.897-2-2s0.897-2,2-2    s2,0.897,2,2S17.103,50,16,50z"></path></g></g></svg>