<svg width="300" height="300" xmlns="http://www.w3.org/2000/svg" xmlns:svg="http://www.w3.org/2000/svg">
 <metadata/>
 <g>
  <title>Layer 1</title>
  <path stroke="null" fill="black" id="svg_3" d="m111.03427,47.6807c-6.34025,-6.34838 -16.64722,-6.34838 -22.98747,0l-81.28527,81.28527c-6.34838,6.34838 -6.34838,16.63909 0,22.98747l81.28527,81.28527c3.17013,3.17825 7.33193,4.76332 11.49374,4.76332s8.32362,-1.58506 11.49374,-4.76332c6.34838,-6.34838 6.34838,-16.63909 0,-22.98747l-69.7834,-69.79154l69.7834,-69.79154c6.34838,-6.34838 6.34838,-16.63909 0,-22.98747l-0.00001,0.00001z"/>
  <path stroke="null" fill="black" id="svg_4" d="m293.56379,128.96596l-81.28527,-81.28527c-6.34838,-6.34838 -16.63909,-6.34838 -22.98747,0c-6.34838,6.34838 -6.34838,16.63909 0,22.98747l69.79154,69.79154l-69.79154,69.79154c-6.34838,6.34838 -6.34838,16.63909 0,22.98747c3.17825,3.17825 7.33193,4.76332 11.49374,4.76332s8.31549,-1.58506 11.49374,-4.76332l81.28527,-81.28527c6.34838,-6.34838 6.34838,-16.63909 0,-22.98747l-0.00001,-0.00001z"/>
  <path fill="black" id="svg_5" d="m169.55952,43.24249c-8.84384,-1.80454 -17.37879,3.95046 -19.13455,12.75366l-32.51411,162.57054c-1.76389,8.80319 3.94233,17.37066 12.74554,19.12642c1.08109,0.21947 2.15406,0.31702 3.21076,0.31702c7.59205,0 14.38749,-5.34857 15.92379,-13.07067l32.51411,-162.57054c1.76389,-8.80319 -3.94233,-17.37066 -12.74554,-19.12642l0,-0.00001z"/>
 </g>
</svg>