<svg height='300px' width='300px'  fill="#000000" xmlns:x="http://ns.adobe.com/Extensibility/1.0/" xmlns:i="http://ns.adobe.com/AdobeIllustrator/10.0/" xmlns:graph="http://ns.adobe.com/Graphs/1.0/" xmlns="http://www.w3.org/2000/svg" xmlns:xlink="http://www.w3.org/1999/xlink" version="1.1" x="0px" y="0px" viewBox="0 0 64 64" enable-background="new 0 0 64 64" xml:space="preserve"><metadata><sfw xmlns="http://ns.adobe.com/SaveForWeb/1.0/"><slices></slices><sliceSourceBounds y="-8160" x="-8165" width="16389" height="16384" bottomLeftOrigin="true"></sliceSourceBounds></sfw></metadata><g><g><path d="M23.414,20.586c-0.78-0.781-2.048-0.781-2.828,0l-10,10c-0.781,0.781-0.781,2.047,0,2.828l10,10    C20.976,43.805,21.488,44,22,44s1.024-0.195,1.414-0.586c0.781-0.781,0.781-2.047,0-2.828L14.829,32l8.585-8.586    C24.195,22.633,24.195,21.367,23.414,20.586z"></path><path d="M53.414,30.586l-10-10c-0.781-0.781-2.047-0.781-2.828,0c-0.781,0.781-0.781,2.047,0,2.828L49.172,32l-8.586,8.586    c-0.781,0.781-0.781,2.047,0,2.828C40.977,43.805,41.488,44,42,44s1.023-0.195,1.414-0.586l10-10    C54.195,32.633,54.195,31.367,53.414,30.586z"></path></g></g></svg>