<svg xmlns:x="http://ns.adobe.com/Extensibility/1.0/" xmlns:i="http://ns.adobe.com/AdobeIllustrator/10.0/" xmlns:graph="http://ns.adobe.com/Graphs/1.0/" xmlns="http://www.w3.org/2000/svg" xmlns:xlink="http://www.w3.org/1999/xlink" height="300px" width="300px" fill="#000000" version="1.1" x="0px" y="0px" viewBox="0 0 64 64" enable-background="new 0 0 64 64" xml:space="preserve"><metadata><sfw xmlns="http://ns.adobe.com/SaveForWeb/1.0/"><slices/><sliceSourceBounds y="-8160" x="-8165" width="16389" height="16384" bottomLeftOrigin="true"/></sfw></metadata><g><path d="M50,50h-2V14h2c1.104,0,2-0.896,2-2s-0.896-2-2-2h-8c-1.104,0-2,0.896-2,2s0.896,2,2,2h2v16H20V14h2c1.104,0,2-0.896,2-2   s-0.896-2-2-2h-8c-1.104,0-2,0.896-2,2s0.896,2,2,2h2v36h-2c-1.104,0-2,0.896-2,2s0.896,2,2,2h8c1.104,0,2-0.896,2-2s-0.896-2-2-2   h-2V34h24v16h-2c-1.104,0-2,0.896-2,2s0.896,2,2,2h8c1.104,0,2-0.896,2-2S51.104,50,50,50z"/></g></svg>