<svg height='300px' width='300px'  fill="#000000" xmlns="http://www.w3.org/2000/svg" xmlns:xlink="http://www.w3.org/1999/xlink" viewBox="0 0 24 12" version="1.1" x="0px" y="0px"><title>num-list</title><desc>Created with Sketch.</desc><g stroke="none" stroke-width="1" fill="none" fill-rule="evenodd"><g transform="translate(-523.000000, -106.000000)" fill-rule="nonzero" fill="#000000"><path d="M529.117101,115 L527.132632,115 L526.992294,116.123904 C526.923864,116.671933 526.424124,117.060725 525.876096,116.992294 C525.328067,116.923864 524.939275,116.424124 525.007706,115.876096 L525.117101,115 L524.5,115 C523.947715,115 523.5,114.552285 523.5,114 C523.5,113.447715 523.947715,113 524.5,113 L525.366834,113 L525.616568,111 L525,111 C524.447715,111 524,110.552285 524,110 C524,109.447715 524.447715,109 525,109 L525.866301,109 L526.006639,107.876096 C526.07507,107.328067 526.574809,106.939275 527.122838,107.007706 C527.670867,107.076136 528.059658,107.575876 527.991228,108.123904 L527.881833,109 L529.866301,109 L530.006639,107.876096 C530.07507,107.328067 530.574809,106.939275 531.122838,107.007706 C531.670867,107.076136 532.059658,107.575876 531.991228,108.123904 L531.881833,109 L532.5,109 C533.052285,109 533.5,109.447715 533.5,110 C533.5,110.552285 533.052285,111 532.5,111 L531.632099,111 L531.382366,113 L531.998934,113 C532.551218,113 532.998934,113.447715 532.998934,114 C532.998934,114.552285 532.551218,115 531.998934,115 L531.132632,115 L530.992294,116.123904 C530.923864,116.671933 530.424124,117.060725 529.876096,116.992294 C529.328067,116.923864 528.939275,116.424124 529.007706,115.876096 L529.117101,115 Z M529.366834,113 L529.616568,111 L527.632099,111 L527.382366,113 L529.366834,113 Z M536,108 C535.447715,108 535,107.552285 535,107 C535,106.447715 535.447715,106 536,106 L545.998934,106 C546.551218,106 546.998934,106.447715 546.998934,107 C546.998934,107.552285 546.551218,108 545.998934,108 L536,108 Z M536,113 C535.447715,113 535,112.552285 535,112 C535,111.447715 535.447715,111 536,111 L545.998934,111 C546.551218,111 546.998934,111.447715 546.998934,112 C546.998934,112.552285 546.551218,113 545.998934,113 L536,113 Z M536,118 C535.447715,118 535,117.552285 535,117 C535,116.447715 535.447715,116 536,116 L545.998934,116 C546.551218,116 546.998934,116.447715 546.998934,117 C546.998934,117.552285 546.551218,118 545.998934,118 L536,118 Z"></path></g></g></svg>