<svg height='300px' width='300px'  fill="#000000" xmlns="http://www.w3.org/2000/svg" xmlns:xlink="http://www.w3.org/1999/xlink" version="1.1" x="0px" y="0px" viewBox="0 0 100 100" enable-background="new 0 0 100 100" xml:space="preserve"><path fill="#000000" d="M71.162,72.64c5.127-5.338,7.998-12.382,7.998-19.928c0-15.942-12.969-28.911-28.91-28.911  c-15.943,0-28.916,12.969-28.916,28.911c0,7.546,2.873,14.588,8.002,19.928h-8.992v3.56h13.674l1.066-3.205  c-6.477-4.849-10.191-12.242-10.191-20.282c0-13.98,11.375-25.352,25.357-25.352c13.979,0,25.352,11.371,25.352,25.352  c0,8.04-3.713,15.434-10.188,20.282l1.066,3.205h13.176v-3.56H71.162z"></path></svg>