<svg height='300px' width='300px'  fill="#000000" xmlns="http://www.w3.org/2000/svg" xmlns:xlink="http://www.w3.org/1999/xlink" xmlns:sketch="http://www.bohemiancoding.com/sketch/ns" viewBox="0 0 100 100" version="1.1" x="0px" y="0px"><title>4-quotation marks</title><desc>Created with Sketch.</desc><g stroke="none" stroke-width="1" fill="none" fill-rule="evenodd" sketch:type="MSPage"><path d="M25.8760465,62.0942222 C28.2,62.0942222 30.4297674,61.6881852 32.5025581,60.9485926 C32.5025581,60.9485926 33.872093,65.9075926 29.2709302,75.2781111 L35.5144186,77.8846296 C35.5144186,77.8846296 35.7404651,77.9697778 35.7411628,77.9697778 C36.7046512,78.3314815 43.2153488,62.4404444 43.6493023,61.1259259 C46.38,52.8602222 48.9348837,41.1843704 44.8695349,33.0312593 C41.2786047,25.830963 33.6927907,22 25.8760465,22 C14.8988372,22 6,30.975037 6,42.0471111 C6,53.1191852 14.8988372,62.0942222 25.8760465,62.0942222 Z M73.7832558,62.0942222 C76.1072093,62.0942222 78.3369767,61.6881852 80.4097674,60.9485926 C80.4097674,60.9485926 81.7793023,65.9075926 77.1781395,75.2781111 L83.4216279,77.8846296 C83.4216279,77.8846296 83.6476744,77.9697778 83.6483721,77.9697778 C84.6118605,78.3314815 91.1225581,62.4404444 91.5565116,61.1259259 C94.287907,52.8602222 96.842093,41.1843704 92.7767442,33.0312593 C89.185814,25.830963 81.6,22 73.7832558,22 C62.8060465,22 53.9072093,30.975037 53.9072093,42.0471111 C53.9072093,53.1191852 62.8060465,62.0942222 73.7832558,62.0942222 Z" fill="#000000" sketch:type="MSShapeGroup"></path></g></svg>