<svg height='300px' width='300px'  fill="#000000" xmlns:x="http://ns.adobe.com/Extensibility/1.0/" xmlns:i="http://ns.adobe.com/AdobeIllustrator/10.0/" xmlns:graph="http://ns.adobe.com/Graphs/1.0/" xmlns="http://www.w3.org/2000/svg" xmlns:xlink="http://www.w3.org/1999/xlink" version="1.1" x="0px" y="0px" viewBox="0 0 64 64" enable-background="new 0 0 64 64" xml:space="preserve"><metadata><sfw xmlns="http://ns.adobe.com/SaveForWeb/1.0/"><slices></slices><sliceSourceBounds y="-8160" x="-8165" width="16389" height="16384" bottomLeftOrigin="true"></sliceSourceBounds></sfw></metadata><g><g><path d="M44,17c-4.963,0-9,4.038-9,9s4.037,9,9,9c2.273,0,4.346-0.854,5.932-2.249c-1.607,5.178-4.89,9.788-8.866,11.952    c-0.485,0.264-0.665,0.871-0.4,1.355c0.181,0.334,0.524,0.522,0.879,0.522c0.161,0,0.325-0.039,0.477-0.122    C48.28,43.054,53,34.259,53,26C53,21.038,48.963,17,44,17z"></path><path d="M19,17c-4.962,0-9,4.038-9,9s4.038,9,9,9c2.273,0,4.346-0.854,5.932-2.25c-1.607,5.178-4.89,9.789-8.867,11.953    c-0.485,0.264-0.665,0.871-0.4,1.355c0.181,0.334,0.525,0.522,0.879,0.522c0.161,0,0.325-0.039,0.477-0.122    C23.28,43.054,28,34.259,28,26C28,21.038,23.962,17,19,17z"></path></g></g></svg>