<svg height='300px' width='300px'  fill="#000000" xmlns="http://www.w3.org/2000/svg" xmlns:xlink="http://www.w3.org/1999/xlink" viewBox="0 0 22 19" version="1.1" x="0px" y="0px"><title>strikethrough</title><desc>Created with Sketch.</desc><g stroke="none" stroke-width="1" fill="none" fill-rule="evenodd"><g transform="translate(-320.000000, -102.000000)" fill-rule="nonzero" fill="#000000"><path d="M336.340755,104.318725 L334.939942,105.746213 C332.444002,103.296914 327.795453,104.543146 327.795453,108.003664 C327.795453,108.482792 327.86955,108.877177 328.01708,109.224831 C328.141399,109.536491 328.244838,109.77425 328.5,110 L326.200012,110 C325.951471,109.415395 325.795453,108.742141 325.795453,108.003664 C325.795453,102.583181 332.688901,100.735112 336.340755,104.318725 Z M324.798719,117.714355 L326.563064,116.772501 C328.404251,120.221536 334.371459,119.363028 334.371459,115.410513 C334.371459,114.962211 334.306445,114.58794 334.215628,114.346256 C334.1631,114.237559 334.105214,114.134844 334.041657,114.037759 L336.204932,114.033786 C336.316034,114.458282 336.371459,114.916811 336.371459,115.410513 C336.371459,121.606784 327.553816,122.875386 324.798719,117.714355 Z M320,113 L321,111 L342,111 L341,113 L320,113 Z"></path></g></g></svg>