<svg width="56" height="36" xmlns="http://www.w3.org/2000/svg" xmlns:svg="http://www.w3.org/2000/svg" preserveAspectRatio="xMidYMid meet">
 <g class="layer">
  <title>Layer 1</title>
  <g id="svg_6">
   <path d="m53.60547,20.90993l-51.21094,0a1.70703,1.70703 0 1 1 0,-3.41406l51.21094,0a1.70703,1.70703 0 0 1 0,3.41406z" id="svg_1"/>
   <path d="m9.88839,13.97938a22.02071,22.02071 0 0 1 2.20207,-0.88766a9.71301,9.71301 0 0 1 3.12387,-0.5804a5.42835,5.42835 0 0 1 4.69434,1.89481a7.57922,7.57922 0 0 1 1.46804,4.67726l0,0.83644a23.60824,23.60824 0 0 0 -7.32316,-1.26321a10.56653,10.56653 0 0 0 -4.42121,0.92179a8.53516,8.53516 0 0 0 -2.23621,1.46804l17.18981,0l0,-1.96309a9.67887,9.67887 0 0 0 -2.33863,-6.82813a8.80828,8.80828 0 0 0 -6.82813,-2.54347a17.07031,17.07031 0 0 0 -6.67449,1.50219a1.48512,1.48512 0 0 0 -0.75109,2.01429a1.43391,1.43391 0 0 0 1.89481,0.75109l-0.00002,0.00002l0,0.00004z" fill="black" id="svg_2"/>
   <path d="m33.32593,21.04649a10.13977,10.13977 0 0 1 0.92179,-3.94324a7.42559,7.42559 0 0 1 2.6971,-3.12387a7.28903,7.28903 0 0 1 7.83528,0a7.63043,7.63043 0 0 1 2.68004,3.12387a10.44703,10.44703 0 0 1 0.97301,3.94324l3.41406,0a13.19535,13.19535 0 0 0 -1.33149,-5.44543a10.24219,10.24219 0 0 0 -3.72132,-4.18222a9.79835,9.79835 0 0 0 -5.29179,-1.50219a9.2009,9.2009 0 0 0 -4.77969,1.24613a9.47403,9.47403 0 0 0 -3.41406,3.49941l0,-10.68602a1.48512,1.48512 0 0 0 -1.46804,-1.46804l-0.22191,0a1.48512,1.48512 0 0 0 -1.46804,1.46804l0,17.07031l3.17507,0l-0.00001,0l0,0.00001z" fill="black" id="svg_3"/>
   <path d="m48.12589,24.46056a9.57644,9.57644 0 0 1 -0.61453,1.82653a7.63043,7.63043 0 0 1 -2.68004,3.15801a7.37438,7.37438 0 0 1 -7.83528,0a7.42559,7.42559 0 0 1 -2.6971,-3.15801a9.62766,9.62766 0 0 1 -0.6316,-1.82653l-3.60184,0l0,7.05004a1.48512,1.48512 0 0 0 1.5534,1.48512l0.34141,0a1.48512,1.48512 0 0 0 1.46804,-1.46804l0,-2.78246a9.52524,9.52524 0 0 0 3.41406,3.51649a9.35453,9.35453 0 0 0 4.77969,1.22906a9.66179,9.66179 0 0 0 5.29179,-1.50219a10.03734,10.03734 0 0 0 3.63597,-4.11394a12.10285,12.10285 0 0 0 1.0925,-3.41406l-3.51649,0l0.00001,-0.00001l0.00001,-0.00001z" id="svg_4"/>
   <path d="m21.37671,24.46056l0,1.29734a5.70149,5.70149 0 0 1 -2.7654,3.41406a9.11554,9.11554 0 0 1 -4.59191,1.22906a6.45257,6.45257 0 0 1 -4.02859,-1.19493a3.82375,3.82375 0 0 1 -1.6046,-3.24335a3.9091,3.9091 0 0 1 0.34141,-1.5534l-3.36285,0a6.82813,6.82813 0 0 0 -0.22191,1.70703a6.53793,6.53793 0 0 0 2.30449,5.22352a8.79121,8.79121 0 0 0 5.9234,1.99722a10.24219,10.24219 0 0 0 4.59191,-1.07543a7.88649,7.88649 0 0 0 3.41406,-2.97024l0,1.99722a1.46804,1.46804 0 0 0 1.46804,1.46804l0.23899,0a1.46804,1.46804 0 0 0 1.46804,-1.46804l0,-6.82813l-3.17507,0l0,0.00002l-0.00001,0.00001z" id="svg_5"/>
  </g>
 </g>
</svg>