<svg height='300px' width='300px'  fill="#000000" xmlns="http://www.w3.org/2000/svg" xmlns:xlink="http://www.w3.org/1999/xlink" viewBox="0 0 24 24" version="1.1" x="0px" y="0px"><title>icon/grid-solid</title><desc>Created with Sketch.</desc><g stroke="none" stroke-width="1" fill="none" fill-rule="evenodd"><path d="M13,11 L19,11 L19,5 L13,5 L13,11 Z M13,19 L19,19 L19,13 L13,13 L13,19 Z M5,19 L11,19 L11,13 L5,13 L5,19 Z M5,11 L11,11 L11,5 L5,5 L5,11 Z M13,3 L11,3 L3,3 L3,11 L3,13 L3,21 L11,21 L13,21 L21,21 L21,13 L21,11 L21,3 L13,3 Z" fill="#000000"></path></g></svg>