<svg height='300px' width='300px'  fill="#000000" xmlns="http://www.w3.org/2000/svg" xmlns:xlink="http://www.w3.org/1999/xlink" viewBox="0 0 24 24" version="1.1" x="0px" y="0px"><title>icon/grid-alt-solid</title><desc>Created with Sketch.</desc><g stroke="none" stroke-width="1" fill="none" fill-rule="evenodd"><path d="M16,8 L20,8 L20,4 L16,4 L16,8 Z M16,14 L20,14 L20,10 L16,10 L16,14 Z M16,20 L20,20 L20,16 L16,16 L16,20 Z M10,20 L14,20 L14,16 L10,16 L10,20 Z M4,20 L8,20 L8,16 L4,16 L4,20 Z M4,14 L8,14 L8,10 L4,10 L4,14 Z M4,8 L8,8 L8,4 L4,4 L4,8 Z M10,14 L14,14 L14,10 L10,10 L10,14 Z M10,8 L14,8 L14,4 L10,4 L10,8 Z M16,2 L14,2 L10,2 L8,2 L2,2 L2,8 L2,10 L2,14 L2,16 L2,22 L8,22 L10,22 L14,22 L16,22 L22,22 L22,16 L22,14 L22,10 L22,8 L22,2 L16,2 Z" fill="#000000"></path></g></svg>