<svg height='300px' width='300px'  fill="#000000" xmlns="http://www.w3.org/2000/svg" xmlns:xlink="http://www.w3.org/1999/xlink" viewBox="0 0 24 18" version="1.1" x="0px" y="0px"><title>table</title><desc>Created with Sketch.</desc><g stroke="none" stroke-width="1" fill="none" fill-rule="evenodd"><g transform="translate(-217.000000, -103.000000)" fill-rule="nonzero" fill="#000000"><path d="M226.0008,108 L232.0008,108 L232.001,105 L226.001,105 L226.0008,108 Z M226.000666,110 L226.000067,119 L232.000067,119 L232.000666,110 L226.000666,110 Z M239,108 L239,105 L234.001,105 L234.0008,108 L239,108 Z M239,110 L234.000666,110 L234.000067,119 L239,119 L239,110 Z M219,108 L224.0008,108 L224.001,105 L219,105 L219,108 Z M219,110 L219,119 L224.000067,119 L224.000666,110 L219,110 Z M219,103 L239,103 C240.104569,103 241,103.895431 241,105 L241,119 C241,120.104569 240.104569,121 239,121 L219,121 C217.895431,121 217,120.104569 217,119 L217,105 C217,103.895431 217.895431,103 219,103 Z"></path></g></g></svg>