<svg height='300px' width='300px'  fill="#000000" xmlns:dc="http://purl.org/dc/elements/1.1/" xmlns:cc="http://creativecommons.org/ns#" xmlns:rdf="http://www.w3.org/1999/02/22-rdf-syntax-ns#" xmlns:svg="http://www.w3.org/2000/svg" xmlns="http://www.w3.org/2000/svg" xmlns:sodipodi="http://sodipodi.sourceforge.net/DTD/sodipodi-0.dtd" xmlns:inkscape="http://www.inkscape.org/namespaces/inkscape" viewBox="0 0 25 25" version="1.1" x="0px" y="0px"><g transform="translate(0,-1027.3622)"><path style="" d="M 12.5 0 A 12.5 12.5 0 0 0 0 12.5 A 12.5 12.5 0 0 0 12.5 25 A 12.5 12.5 0 0 0 25 12.5 A 12.5 12.5 0 0 0 12.5 0 z M 7 7 L 12.005859 7 L 13.005859 7 L 18 7 L 18 10 L 17 10 L 17 8 L 13.005859 8 L 12.996094 17.994141 L 15.013672 17.994141 L 15.013672 18.994141 L 12.994141 18.994141 L 12.994141 19.003906 L 11.994141 19.003906 L 11.994141 18.994141 L 9.9707031 18.994141 L 9.9707031 17.994141 L 11.996094 17.994141 L 12.005859 8 L 8 8 L 8 10 L 7 10 L 7 7 z " transform="translate(0,1027.3622)" fill="#000000" fill-opacity="1" fill-rule="evenodd" stroke="none"></path></g></svg>