<svg height='300px' width='300px'  fill="#000000" xmlns="http://www.w3.org/2000/svg" xmlns:xlink="http://www.w3.org/1999/xlink" version="1.1" x="0px" y="0px" viewBox="0 0 100 100" enable-background="new 0 0 100 100" xml:space="preserve"><g><path d="M81.935,5H18.065c-0.802,0-1.452,0.65-1.452,1.452v10.161c0,0.802,0.65,1.452,1.452,1.452c0.802,0,1.452-0.65,1.452-1.452   v-8.71h29.032v84.193h-8.093c-0.802,0-1.452,0.65-1.452,1.452c0,0.802,0.65,1.452,1.452,1.452h19.089   c0.802,0,1.452-0.65,1.452-1.452c0-0.802-0.65-1.452-1.452-1.452h-8.093V7.903h29.032v8.71c0,0.802,0.65,1.452,1.452,1.452   c0.802,0,1.452-0.65,1.452-1.452V6.452C83.387,5.65,82.737,5,81.935,5z"></path></g></svg>