<svg height='300px' width='300px'  fill="#000000" xmlns="http://www.w3.org/2000/svg" xmlns:xlink="http://www.w3.org/1999/xlink" version="1.1" x="0px" y="0px" viewBox="0 0 512 512" enable-background="new 0 0 512 512" xml:space="preserve"><path d="M463.625,0H48.375c-5.016,0-9.109,4.094-9.109,9.125v59.312c0,5.031,4.094,9.109,9.109,9.109  s9.094-4.078,9.094-9.109V18.25h189.422v475.531h-50.219c-5.016,0-9.109,4.094-9.109,9.109s4.094,9.109,9.109,9.109h118.656  c5.016,0,9.109-4.094,9.109-9.109s-4.094-9.109-9.109-9.109h-50.219V18.25h189.422v50.188c0,5.031,4.078,9.109,9.094,9.109  s9.109-4.078,9.109-9.109V9.125C472.734,4.094,468.641,0,463.625,0z"></path></svg>