<svg xmlns="http://www.w3.org/2000/svg" viewBox="0 0 300 300" width="300" height="300" id="lottie-err-animation" preserveAspectRatio="xMidYMid meet" style="width: 100%; height: 100%; transform: translate3d(0px, 0px, 0px);"><g clip-path="url(#__lottie_element_2)"><g class="color1" transform="matrix(1,0,0,1,199,33)" opacity="1" style="display: block;"><path class="color1" fill="rgb(24,29,30)" fill-opacity="1" d=" M13.600000381469727,10 C13.600000381469727,9.032999992370605 13.234000205993652,8.199999809265137 12.5,7.5 C11.833000183105469,6.800000190734863 11,6.449999809265137 10,6.449999809265137 C9.034000396728516,6.449999809265137 8.201000213623047,6.800000190734863 7.5,7.5 C6.800000190734863,8.199999809265137 6.451000213623047,9.032999992370605 6.451000213623047,10 C6.451000213623047,11 6.800000190734863,11.833000183105469 7.5,12.5 C8.201000213623047,13.232999801635742 9.034000396728516,13.600000381469727 10,13.600000381469727 C11,13.600000381469727 11.833000183105469,13.232999801635742 12.5,12.5 C13.234000205993652,11.833000183105469 13.600000381469727,11 13.600000381469727,10z"></path></g><g class="color1" transform="matrix(1,0,0,1,109,255)" opacity="1" style="display: block;"><path class="color1" fill="rgb(24,29,30)" fill-opacity="1" d=" M13.600000381469727,10 C13.600000381469727,9.032999992370605 13.234000205993652,8.199999809265137 12.5,7.5 C11.833000183105469,6.800000190734863 11,6.449999809265137 10,6.449999809265137 C9.034000396728516,6.449999809265137 8.201000213623047,6.800000190734863 7.5,7.5 C6.800000190734863,8.199999809265137 6.451000213623047,9.032999992370605 6.451000213623047,10 C6.451000213623047,11 6.800000190734863,11.833000183105469 7.5,12.5 C8.201000213623047,13.232999801635742 9.034000396728516,13.600000381469727 10,13.600000381469727 C11,13.600000381469727 11.833000183105469,13.232999801635742 12.5,12.5 C13.234000205993652,11.833000183105469 13.600000381469727,11 13.600000381469727,10z"></path></g><g class="color1" transform="matrix(1,0,0,1,47,183)" opacity="1" style="display: block;"><path class="color1" fill="rgb(24,29,30)" fill-opacity="1" d=" M13.600000381469727,10 C13.600000381469727,9.032999992370605 13.234000205993652,8.199999809265137 12.5,7.5 C11.833000183105469,6.800000190734863 11,6.449999809265137 10,6.449999809265137 C9.034000396728516,6.449999809265137 8.201000213623047,6.800000190734863 7.5,7.5 C6.800000190734863,8.199999809265137 6.451000213623047,9.032999992370605 6.451000213623047,10 C6.451000213623047,11 6.800000190734863,11.833000183105469 7.5,12.5 C8.201000213623047,13.232999801635742 9.034000396728516,13.600000381469727 10,13.600000381469727 C11,13.600000381469727 11.833000183105469,13.232999801635742 12.5,12.5 C13.234000205993652,11.833000183105469 13.600000381469727,11 13.600000381469727,10z"></path></g><g class="color2" transform="matrix(-0.501502513885498,0.8651561737060547,-0.8651561737060547,-0.501502513885498,139.83294677734375,35.317317962646484)" opacity="1" style="display: block;"><path class="color2" fill="rgb(255,255,255)" fill-opacity="1" d=" M88,47.5 C89.80000305175781,45.70000076293945 90.69999694824219,43.53300094604492 90.69999694824219,41 C90.69999694824219,38.5 89.80000305175781,36.349998474121094 88,34.54999923706055 C86.19999694824219,32.75 84.03299713134766,31.850000381469727 81.5,31.850000381469727 C79,31.850000381469727 76.8499984741211,32.75 75.05000305175781,34.54999923706055 C73.25,36.349998474121094 72.3499984741211,38.5 72.3499984741211,41 C72.3499984741211,41.66699981689453 72.41699981689453,42.33300018310547 72.55000305175781,43 C72.55000305175781,43 27.5,43 27.5,43 C27.632999420166016,42.33300018310547 27.700000762939453,41.66699981689453 27.700000762939453,41 C27.700000762939453,38.5 26.799999237060547,36.349998474121094 25,34.54999923706055 C23.200000762939453,32.75 21.033000946044922,31.850000381469727 18.5,31.850000381469727 C16,31.850000381469727 13.850000381469727,32.75 12.050000190734863,34.54999923706055 C10.25,36.349998474121094 9.350000381469727,38.5 9.350000381469727,41 C9.350000381469727,43.53300094604492 10.25,45.70000076293945 12.050000190734863,47.5 C13.383000373840332,48.83300018310547 14.883000373840332,49.66699981689453 16.549999237060547,50 C14.883000373840332,50.33300018310547 13.383000373840332,51.16699981689453 12.050000190734863,52.5 C10.25,54.29999923706055 9.350000381469727,56.45000076293945 9.350000381469727,58.95000076293945 C9.350000381469727,61.483001708984375 10.25,63.650001525878906 12.050000190734863,65.44999694824219 C13.850000381469727,67.25 16,68.1500015258789 18.5,68.1500015258789 C21.033000946044922,68.1500015258789 23.200000762939453,67.25 25,65.44999694824219 C26.799999237060547,63.650001525878906 27.700000762939453,61.483001708984375 27.700000762939453,58.95000076293945 C27.700000762939453,58.349998474121094 27.66699981689453,57.75 27.600000381469727,57.150001525878906 C27.600000381469727,57.150001525878906 72.55000305175781,57.150001525878906 72.55000305175781,57.150001525878906 C72.41699981689453,57.75 72.3499984741211,58.349998474121094 72.3499984741211,58.95000076293945 C72.3499984741211,61.483001708984375 73.25,63.650001525878906 75.05000305175781,65.44999694824219 C76.8499984741211,67.25 79,68.1500015258789 81.5,68.1500015258789 C84.03299713134766,68.1500015258789 86.19999694824219,67.25 88,65.44999694824219 C89.80000305175781,63.650001525878906 90.69999694824219,61.483001708984375 90.69999694824219,58.95000076293945 C90.69999694824219,56.45000076293945 89.80000305175781,54.29999923706055 88,52.5 C86.66699981689453,51.16699981689453 85.16699981689453,50.33300018310547 83.5,50 C85.16699981689453,49.66699981689453 86.66699981689453,48.83300018310547 88,47.5z"></path></g><g class="color1" transform="matrix(-0.501502513885498,0.8651561737060547,-0.8651561737060547,-0.501502513885498,139.83294677734375,34.317317962646484)" opacity="1" style="display: block;"><path stroke-linecap="round" stroke-linejoin="round" fill-opacity="0" class="color1" stroke="rgb(24,29,30)" stroke-opacity="1" stroke-width="2" d=" M27.600000381469727,57.150001525878906 C27.666000366210938,57.75 27.700000762939453,58.3489990234375 27.700000762939453,58.95000076293945 C27.700000762939453,61.483001708984375 26.799999237060547,63.650001525878906 25,65.44999694824219 C23.200000762939453,67.25 21.033000946044922,68.1500015258789 18.5,68.1500015258789 C16,68.1500015258789 13.850000381469727,67.25 12.050000190734863,65.44999694824219 C10.25,63.650001525878906 9.350000381469727,61.483001708984375 9.350000381469727,58.95000076293945 C9.350000381469727,56.45000076293945 10.25,54.29899978637695 12.050000190734863,52.5 C13.383000373840332,51.16699981689453 14.883000373840332,50.33300018310547 16.549999237060547,50 C14.883000373840332,49.66600036621094 13.383000373840332,48.83300018310547 12.050000190734863,47.5 C10.25,45.70000076293945 9.350000381469727,43.53300094604492 9.350000381469727,41 C9.350000381469727,38.5 10.25,36.349998474121094 12.050000190734863,34.54899978637695 C13.850000381469727,32.75 16,31.850000381469727 18.5,31.850000381469727 C21.033000946044922,31.850000381469727 23.200000762939453,32.75 25,34.54899978637695 C26.799999237060547,36.349998474121094 27.700000762939453,38.5 27.700000762939453,41 C27.700000762939453,41.66600036621094 27.632999420166016,42.33300018310547 27.5,43 C27.5,43 72.55000305175781,43 72.55000305175781,43 C72.41699981689453,42.33300018310547 72.3499984741211,41.66600036621094 72.3499984741211,41 C72.3499984741211,38.5 73.25,36.349998474121094 75.05000305175781,34.54899978637695 C76.8499984741211,32.75 79,31.850000381469727 81.5,31.850000381469727 C84.03299713134766,31.850000381469727 86.19999694824219,32.75 88,34.54899978637695 C89.80000305175781,36.349998474121094 90.69999694824219,38.5 90.69999694824219,41 C90.69999694824219,43.53300094604492 89.80000305175781,45.70000076293945 88,47.5 C86.66699981689453,48.83300018310547 85.16699981689453,49.66600036621094 83.5,50 C85.16699981689453,50.33300018310547 86.66699981689453,51.16699981689453 88,52.5 C89.80000305175781,54.29899978637695 90.69999694824219,56.45000076293945 90.69999694824219,58.95000076293945 C90.69999694824219,61.483001708984375 89.80000305175781,63.650001525878906 88,65.44999694824219 C86.19999694824219,67.25 84.03299713134766,68.1500015258789 81.5,68.1500015258789 C79,68.1500015258789 76.8499984741211,67.25 75.05000305175781,65.44999694824219 C73.25,63.650001525878906 72.3499984741211,61.483001708984375 72.3499984741211,58.95000076293945 C72.3499984741211,58.3489990234375 72.41699981689453,57.75 72.55000305175781,57.150001525878906 C72.55000305175781,57.150001525878906 27.600000381469727,57.150001525878906 27.600000381469727,57.150001525878906z"></path></g><g class="color1" transform="matrix(1,0,0,1,27.75,218.5)" opacity="1" style="display: block;"><path class="color1" fill="rgb(24,29,30)" fill-opacity="1" d=" M16.799999237060547,10.149999618530273 C15.067000389099121,9.817000389099121 13.567000389099121,9.017000198364258 12.300000190734863,7.75 C10.967000007629395,6.416999816894531 10.217000007629395,4.75 10.050000190734863,2.75 C9.984000205993652,4.683000087738037 9.199999809265137,6.349999904632568 7.699999809265137,7.75 C6.433000087738037,9.083999633789062 4.933000087738037,9.883000373840332 3.200000047683716,10.149999618530273 C4.867000102996826,10.317000389099121 6.316999912261963,11.017000198364258 7.550000190734863,12.25 C8.984000205993652,13.684000015258789 9.782999992370605,15.350000381469727 9.949999809265137,17.25 C10.116999626159668,15.350000381469727 10.866999626159668,13.684000015258789 12.199999809265137,12.25 C13.532999992370605,11.017000198364258 15.067000389099121,10.317000389099121 16.799999237060547,10.149999618530273z"></path></g><g class="color1" transform="matrix(0.9766456484794617,0.21485643088817596,-0.21485643088817596,0.9766456484794617,226.88211059570312,277.8349914550781)" opacity="1" style="display: block;"><path class="color1" fill="rgb(24,29,30)" fill-opacity="1" d=" M16.799999237060547,10.149999618530273 C15.067000389099121,9.817000389099121 13.567000389099121,9.017000198364258 12.300000190734863,7.75 C10.967000007629395,6.416999816894531 10.217000007629395,4.75 10.050000190734863,2.75 C9.984000205993652,4.683000087738037 9.199999809265137,6.349999904632568 7.699999809265137,7.75 C6.433000087738037,9.083999633789062 4.933000087738037,9.883000373840332 3.200000047683716,10.149999618530273 C4.867000102996826,10.317000389099121 6.316999912261963,11.017000198364258 7.550000190734863,12.25 C8.984000205993652,13.684000015258789 9.782999992370605,15.350000381469727 9.949999809265137,17.25 C10.116999626159668,15.350000381469727 10.866999626159668,13.684000015258789 12.199999809265137,12.25 C13.532999992370605,11.017000198364258 15.067000389099121,10.317000389099121 16.799999237060547,10.149999618530273z"></path></g><g class="color1" transform="matrix(1,0,0,1,150,150)" opacity="1" style="display: block;"><path stroke-linecap="round" stroke-linejoin="round" fill-opacity="0" class="color1" stroke="rgb(25,29,30)" stroke-opacity="1" stroke-width="2" d=" M-18.445999145507812,-137.74600219726562 C-16.0939998626709,-139.4239959716797 -13.513999938964844,-140.7989959716797 -10.71500015258789,-141.76400756835938"></path></g><g class="color1" transform="matrix(1,0,0,1,150,150)" opacity="1" style="display: block;"><path stroke-linecap="round" stroke-linejoin="round" fill-opacity="0" class="color1" stroke="rgb(25,29,30)" stroke-opacity="1" stroke-width="2" d=" M-69.99800109863281,-103.47100067138672 C-70.91600036621094,-103.30699920654297 -71.83599853515625,-103.11000061035156 -72.76000213623047,-102.87699890136719"></path></g><g class="color1" transform="matrix(1,0,0,1,150,150)" opacity="1" style="display: block;"><path stroke-linecap="round" stroke-linejoin="round" fill-opacity="0" class="color1" stroke="rgb(25,29,30)" stroke-opacity="1" stroke-width="2" d=" M-67.69400024414062,-92.47599792480469 C-70.24600219726562,-90.66600036621094 -72.41100311279297,-88.42900085449219 -73.97699737548828,-85.73600006103516"></path></g><g class="color2" transform="matrix(0.9850828051567078,-0.1720808446407318,0.1720808446407318,0.9850828051567078,145.54632568359375,127.33065795898438)" opacity="1" style="display: block;"><path class="color2" fill="rgb(255,255,255)" fill-opacity="1" d=" M-42.375,11.875 C-44.14400100708008,13.270999908447266 -44.875,18.125 -42.125,20 C-39.375,21.875 -21.5,37.875 -19.625,38.5 C-17.75,39.125 3,45.375 4,46.125 C5,46.875 9.656999588012695,40.875999450683594 9.75,36.25 C9.875,30 4,25 4,25 C4,25 -8.125,25.25 -12.5,24.625 C-17.75,23.875 -36.75,12 -36.75,12 C-36.75,12 -40,10 -42.375,11.875z"></path></g><g class="color1" transform="matrix(0.9850828051567078,-0.1720808446407318,0.1720808446407318,0.9850828051567078,145.54632568359375,127.33065795898438)" opacity="1" style="display: block;"><path stroke-linecap="round" stroke-linejoin="round" fill-opacity="0" class="color1" stroke="rgb(25,29,30)" stroke-opacity="1" stroke-width="2" d=" M1.6859999895095825,25.033000946044922 C-2.052000045776367,25.070999145507812 -9.321000099182129,25.07900047302246 -12.5,24.625 C-17.75,23.875 -36.75,12 -36.75,12 C-36.75,12 -40,10 -42.375,11.875 C-42.375,11.875 -42.375,11.875 -42.375,11.875 C-44.14400100708008,13.270999908447266 -44.875,18.125 -42.125,20 C-39.375,21.875 -21.5,37.875 -19.625,38.5 C-17.791000366210938,39.111000061035156 2.0920000076293945,45.10200119018555 3.9049999713897705,46.06700134277344"></path></g><g class="color2" transform="matrix(0.6477312445640564,-0.7618688941001892,0.7618688941001892,0.6477312445640564,68.51531982421875,150.40011596679688)" opacity="1" style="display: block;"><path class="color2" fill="rgb(255,255,255)" fill-opacity="1" d=" M20.850000381469727,15.449999809265137 C21.750999450683594,15.618000030517578 22.53499984741211,16.034000396728516 23.200000762939453,16.700000762939453 C24.020000457763672,17.520000457763672 24.56999969482422,18.402999877929688 24.850000381469727,19.350000381469727 C24.56999969482422,18.402999877929688 24.020000457763672,17.520000457763672 23.200000762939453,16.700000762939453 C22.53499984741211,16.034000396728516 21.750999450683594,15.618000030517578 20.850000381469727,15.449999809265137 C20.60300064086914,15.416000366210938 20.336999893188477,15.399999618530273 20.049999237060547,15.399999618530273 C18.816999435424805,15.399999618530273 17.75,15.833000183105469 16.850000381469727,16.700000762939453 C15.982999801635742,17.600000381469727 15.550000190734863,18.666000366210938 15.550000190734863,19.899999618530273 C15.550000190734863,19.899999618530273 15.550000190734863,21.049999237060547 15.550000190734863,21.049999237060547 C16.437999725341797,20.32699966430664 17.437999725341797,19.944000244140625 18.549999237060547,19.899999618530273 C19.670000076293945,19.857999801635742 20.53700065612793,20.107999801635742 21.149999618530273,20.649999618530273 C21.788000106811523,21.222000122070312 22.270999908447266,21.82200050354004 22.600000381469727,22.450000762939453 C22.270999908447266,21.82200050354004 21.788000106811523,21.222000122070312 21.149999618530273,20.649999618530273 C20.53700065612793,20.107999801635742 19.670000076293945,19.857999801635742 18.549999237060547,19.899999618530273 C17.437999725341797,19.944000244140625 16.437999725341797,20.32699966430664 15.550000190734863,21.049999237060547 C15.244000434875488,21.301000595092773 14.927000045776367,21.85099983215332 14.600000381469727,22.700000762939453 C14.305000305175781,23.547000885009766 14.170999526977539,24.381000518798828 14.199999809265137,25.200000762939453 C14.227999687194824,26.05299949645996 14.545000076293945,27.18600082397461 15.149999618530273,28.599000930786133 C15.755999565124512,30.013999938964844 17.18899917602539,31.56399917602539 19.450000762939453,33.25 C21.08300018310547,34.492000579833984 22.399999618530273,35.42599868774414 23.399999618530273,36.04999923706055 C23.399999618530273,36.04999923706055 25.000999450683594,37.27299880981445 27.339000701904297,35.01100158691406 C29.250999450683594,33.27299880981445 30.850000381469727,28.25 30.850000381469727,28.25 C31.030000686645508,24.79199981689453 30.780000686645508,22.075000762939453 30.100000381469727,20.100000381469727 C29.459999084472656,18.158000946044922 28.610000610351562,16.674999237060547 27.549999237060547,15.649999618530273 C26.486000061035156,14.654999732971191 25.336000442504883,14.154999732971191 24.100000381469727,14.149999618530273 C22.867000579833984,14.149999618530273 21.799999237060547,14.583000183105469 20.899999618530273,15.449999809265137 C20.899999618530273,15.449999809265137 20.850000381469727,15.449999809265137 20.850000381469727,15.449999809265137z"></path></g><g class="color1" transform="matrix(0.6477312445640564,-0.7618688941001892,0.7618688941001892,0.6477312445640564,68.51531982421875,150.40011596679688)" opacity="1" style="display: block;"><path stroke-linecap="round" stroke-linejoin="round" fill-opacity="0" class="color1" stroke="rgb(24,29,30)" stroke-opacity="1" stroke-width="2" d=" M20.875,15.475000381469727 C21.760000228881836,15.626999855041504 22.53499984741211,16.03499984741211 23.200000762939453,16.700000762939453 C24.020000457763672,17.520000457763672 24.56999969482422,18.40399932861328 24.850000381469727,19.350000381469727 M23.424999237060547,36.07500076293945 C22.409000396728516,35.435001373291016 21.083999633789062,34.500999450683594 19.450000762939453,33.2760009765625 C17.190000534057617,31.572999954223633 15.756999969482422,30.014999389648438 15.149999618530273,28.600000381469727 C14.545999526977539,27.187000274658203 14.229000091552734,26.062000274658203 14.199999809265137,25.225000381469727 C14.17199993133545,24.388999938964844 14.312999725341797,23.54800033569336 14.625,22.700000762939453 C14.935999870300293,21.85099983215332 15.244000434875488,21.301000595092773 15.550000190734863,21.049999237060547 C15.550000190734863,21.049999237060547 15.550000190734863,19.899999618530273 15.550000190734863,19.899999618530273 C15.550000190734863,18.66699981689453 15.984000205993652,17.600000381469727 16.850000381469727,16.700000762939453 C17.75,15.833999633789062 18.816999435424805,15.399999618530273 20.049999237060547,15.399999618530273 C20.336999893188477,15.399999618530273 20.61199951171875,15.425000190734863 20.875,15.475000381469727 C20.875,15.475000381469727 20.899999618530273,15.449999809265137 20.899999618530273,15.449999809265137 C21.799999237060547,14.583999633789062 22.867000579833984,14.149999618530273 24.100000381469727,14.149999618530273 C25.336999893188477,14.154999732971191 26.48699951171875,14.663000106811523 27.549999237060547,15.675000190734863 C28.611000061035156,16.68400001525879 29.4689998626709,18.16699981689453 30.125,20.125 C30.788000106811523,22.083999633789062 31.038000106811523,24.801000595092773 30.875,28.275999069213867 M24.450000762939453,36.70000076293945 C24.152999877929688,36.5369987487793 23.81100082397461,36.32899856567383 23.424999237060547,36.07500076293945 M15.550000190734863,21.049999237060547 C16.43899917602539,20.32699966430664 17.43899917602539,19.944000244140625 18.549999237060547,19.899999618530273 C19.67099952697754,19.857999801635742 20.54599952697754,20.115999221801758 21.174999237060547,20.674999237060547 C21.797000885009766,21.231000900268555 22.27199935913086,21.83099937438965 22.600000381469727,22.475000381469727"></path></g><g class="color2" transform="matrix(0.9389116764068604,-0.34415820240974426,0.34415820240974426,0.9389116764068604,141.99801635742188,206.39430236816406)" opacity="1" style="display: block;"><path class="color2" fill="rgb(255,255,255)" fill-opacity="1" d=" M63.599998474121094,18.549999237060547 C64.53399658203125,15.149999618530273 65,11.182999610900879 65,6.650000095367432 C59.73400115966797,6.050000190734863 39.33300018310547,3.25 34.400001525878906,3.049999952316284 C29.66699981689453,8.116999626159668 26.933000564575195,13.725000381469727 26.201000213623047,19.125 C25.066999435424805,25.125 25.329999923706055,31.766000747680664 34.255001068115234,39.24100112915039 C33.65599822998047,40.108001708984375 26.288999557495117,49.48099899291992 24.922000885009766,51.18000030517578 C22.774999618530273,55.29800033569336 22.37299919128418,55.944000244140625 21.280000686645508,58.76100158691406 C21.065000534057617,63.38100051879883 22.229000091552734,65.15299987792969 24.395999908447266,68.35299682617188 C28.392000198364258,70.86199951171875 31.687999725341797,71.16300201416016 33.58300018310547,69.08799743652344 C35.560001373291016,66.9229965209961 35.00299835205078,64.66500091552734 33.4010009765625,62.290000915527344 C32.84000015258789,60.667999267578125 30.472000122070312,59.09700012207031 32.672000885009766,57.43000030517578 C34.172000885009766,55.029998779296875 40.48899841308594,47.05799865722656 43.05500030517578,45.191001892089844 C44.78799819946289,43.858001708984375 45.638999938964844,41.875 45.60599899291992,39.24100112915039 C45.540000915527344,39.20899963378906 47.56700134277344,38.95000076293945 48.5,37.54999923706055 C48.766998291015625,37.150001525878906 54.367000579833984,32.25 57.5,28.850000381469727 C60.56700134277344,25.382999420166016 62.599998474121094,21.950000762939453 63.599998474121094,18.549999237060547z"></path></g><g class="color1" transform="matrix(0.9389116764068604,-0.34415820240974426,0.34415820240974426,0.9389116764068604,141.99801635742188,206.39430236816406)" opacity="1" style="display: block;"><path stroke-linecap="round" stroke-linejoin="round" fill-opacity="0" class="color1" stroke="rgb(0,0,0)" stroke-opacity="1" stroke-width="2" d=" M34.400001525878906,3.049999952316284 C29.66699981689453,8.116999626159668 26.933000564575195,13.725000381469727 26.201000213623047,19.125 C25.066999435424805,25.125 25.329999923706055,31.766000747680664 34.255001068115234,39.24100112915039 C33.65599822998047,40.108001708984375 26.288999557495117,49.48099899291992 24.922000885009766,51.18000030517578 C22.774999618530273,55.29800033569336 22.37299919128418,55.944000244140625 21.280000686645508,58.76100158691406 C21.065000534057617,63.38100051879883 22.229000091552734,65.15299987792969 24.395999908447266,68.35299682617188 C28.392000198364258,70.86199951171875 31.687999725341797,71.16300201416016 33.58300018310547,69.08799743652344 C35.560001373291016,66.9229965209961 35.00299835205078,64.66500091552734 33.4010009765625,62.290000915527344 C32.84000015258789,60.667999267578125 30.472000122070312,59.09700012207031 32.672000885009766,57.43000030517578 C34.172000885009766,55.029998779296875 40.48899841308594,47.05799865722656 43.05500030517578,45.191001892089844 C44.78799819946289,43.858001708984375 45.638999938964844,41.875 45.60599899291992,39.24100112915039 C45.540000915527344,39.20899963378906 47.56700134277344,38.95000076293945 48.5,37.54999923706055 C48.766998291015625,37.150001525878906 54.367000579833984,32.25 57.5,28.850000381469727 C60.56700134277344,25.382999420166016 62.599998474121094,21.950000762939453 63.599998474121094,18.549999237060547"></path></g><g class="color2" transform="matrix(1.0153900384902954,0,0,1.1347899436950684,150,150)" opacity="1" style="display: block;"><path class="color2" fill="rgb(255,255,255)" fill-opacity="1" d=" M114.7271499633789,13.664819717407227 C114.7271499633789,13.664819717407227 107.47395324707031,23.3306941986084 100.89811706542969,30.600013732910156 C97.98918151855469,33.81398010253906 95.94535827636719,34.55073165893555 86.95331573486328,40.44178009033203 C77.86927032470703,46.38164138793945 65.67990112304688,47.41464614868164 65.67990112304688,47.41464614868164 C65.67990112304688,47.41464614868164 76.46316528320312,55.09123229980469 85.39543914794922,53.74729919433594 C99.78882598876953,52.55583190917969 108.29557800292969,40.65989303588867 110.0548095703125,37.328887939453125 C114.27749633789062,28.782499313354492 114.7271499633789,13.664819717407227 114.7271499633789,13.664819717407227z"></path></g><g class="color1" transform="matrix(1.0153900384902954,0,0,1.1347899436950684,150,150)" opacity="1" style="display: block;"><path stroke-linecap="round" stroke-linejoin="round" fill-opacity="0" class="color1" stroke="rgb(25,29,30)" stroke-opacity="1" stroke-width="2" d=" M114.7271499633789,13.664819717407227 C114.7271499633789,13.664819717407227 107.47395324707031,23.3306941986084 100.89811706542969,30.600013732910156 C97.98918151855469,33.81398010253906 95.94535827636719,34.55073165893555 86.95331573486328,40.44178009033203 C77.86927032470703,46.38164138793945 65.67990112304688,47.41464614868164 65.67990112304688,47.41464614868164 C65.67990112304688,47.41464614868164 76.46316528320312,55.09123229980469 85.39543914794922,53.74729919433594 C99.78882598876953,52.55583190917969 108.29557800292969,40.65989303588867 110.0548095703125,37.328887939453125 C114.27749633789062,28.782499313354492 114.7271499633789,13.664819717407227 114.7271499633789,13.664819717407227z"></path></g><g mask="url(#__lottie_element_73)" style="display: block;"><g class="color1" transform="matrix(1.347830057144165,0,0,1.347830057144165,112.64569091796875,135.515625)" opacity="1"><path class="color1" fill="rgb(0,0,0)" fill-opacity="1" d=" M112,9.625 C118.27786254882812,9.625 123.375,14.722137451171875 123.375,21 C123.375,27.277862548828125 118.27786254882812,32.375 112,32.375 C105.72213745117188,32.375 100.625,27.277862548828125 100.625,21 C100.625,14.722137451171875 105.72213745117188,9.625 112,9.625z"></path></g></g><g class="color2" transform="matrix(1,0,0,1,137.5007781982422,132.03875732421875)" opacity="1" style="display: block;"><path class="color2" fill="rgb(255,255,255)" fill-opacity="1" d=" M87.75,76.4000015258789 C87.81600189208984,75.76599884033203 87.86599731445312,75.13300323486328 87.9000015258789,74.5 C88.43399810791016,66.36599731445312 85.76699829101562,59.400001525878906 79.9000015258789,53.5989990234375 C79.56600189208984,53.26599884033203 79.23300170898438,52.95000076293945 78.9000015258789,52.650001525878906 C76.03299713134766,49.849998474121094 73.16699981689453,46.86600112915039 70.30000305175781,43.70000076293945 C69.56600189208984,42.900001525878906 68.83300018310547,42.06700134277344 68.0999984741211,41.20000076293945 C64.9000015258789,37.400001525878906 62.03300094604492,33.465999603271484 59.5,29.399999618530273 C56.766998291015625,25.200000762939453 54.066001892089844,20.965999603271484 51.400001525878906,16.700000762939453 C49,12.899999618530273 45.867000579833984,9.899999618530273 42,7.699999809265137 C38.20000076293945,5.5 34.06700134277344,4.632999897003174 29.600000381469727,5.099999904632568 C24.867000579833984,5.632999897003174 20.600000381469727,7.333000183105469 16.799999237060547,10.199999809265137 C13.199999809265137,12.932999610900879 10.666999816894531,16.533000946044922 9.199999809265137,21 C8.800000190734863,22.200000762939453 8.432999610900879,23.399999618530273 8.100000381469727,24.600000381469727 C7.166999816894531,29.732999801635742 7.300000190734863,34.86600112915039 8.5,40 C9.967000007629395,44.26599884033203 12,48.20000076293945 14.600000381469727,51.79899978637695 C21,59.465999603271484 28.600000381469727,65.5 37.400001525878906,69.9000015258789 C40.733001708984375,71.56600189208984 44.16699981689453,73.0989990234375 47.70000076293945,74.5 C49.03300094604492,74.96600341796875 50.233001708984375,75.5989990234375 51.29999923706055,76.4000015258789 C55.29999923706055,79.29900360107422 57.53300094604492,84.29900360107422 58,91.4000015258789 C60.400001525878906,92.46600341796875 62.900001525878906,93.13300323486328 65.5,93.4000015258789 C78.80000305175781,94.79900360107422 86.21700286865234,89.13300323486328 87.75,76.4000015258789z"></path></g><g class="color1" transform="matrix(1,0,0,1,137.5007781982422,132.03875732421875)" opacity="1" style="display: block;"><path stroke-linecap="round" stroke-linejoin="round" fill-opacity="0" class="color1" stroke="rgb(24,29,30)" stroke-opacity="1" stroke-width="2" d=" M8.100000381469727,24.600000381469727 C7.165999889373779,29.732999801635742 7.300000190734863,34.867000579833984 8.5,40 C9.967000007629395,44.266998291015625 12,48.20000076293945 14.600000381469727,51.79999923706055 C21,59.46699905395508 28.600000381469727,65.5 37.400001525878906,69.9000015258789 C40.733001708984375,71.56600189208984 44.16600036621094,73.0999984741211 47.70000076293945,74.5 C49.03300094604492,74.96700286865234 50.233001708984375,75.5999984741211 51.29999923706055,76.4000015258789 C55.29999923706055,79.30000305175781 57.53300094604492,84.30000305175781 58,91.4000015258789 C60.400001525878906,92.46700286865234 62.900001525878906,93.13400268554688 65.5,93.4000015258789 C78.80000305175781,94.80000305175781 86.21700286865234,89.13400268554688 87.75,76.4000015258789 C87.81600189208984,75.76699829101562 87.86599731445312,75.13400268554688 87.9000015258789,74.5 C88.43299865722656,66.36599731445312 85.76699829101562,59.400001525878906 79.9000015258789,53.599998474121094 C79.56600189208984,53.266998291015625 79.23300170898438,52.95000076293945 78.9000015258789,52.650001525878906 C76.03299713134766,49.849998474121094 73.16699981689453,46.867000579833984 70.30000305175781,43.70000076293945 C69.56600189208984,42.900001525878906 68.83300018310547,42.06700134277344 68.0999984741211,41.20000076293945 C64.9000015258789,37.400001525878906 62.03300094604492,33.46699905395508 59.5,29.399999618530273 C56.766998291015625,25.200000762939453 54.066001892089844,20.966999053955078 51.400001525878906,16.700000762939453 C49,12.899999618530273 45.867000579833984,9.899999618530273 42,7.699999809265137 C38.20000076293945,5.5 34.06700134277344,4.632999897003174 29.600000381469727,5.099999904632568 C24.867000579833984,5.632999897003174 20.600000381469727,7.333000183105469 16.799999237060547,10.199999809265137 C13.199999809265137,12.932999610900879 10.666000366210938,16.533000946044922 9.199999809265137,21 C8.800000190734863,22.200000762939453 8.432999610900879,23.399999618530273 8.100000381469727,24.600000381469727z"></path></g><g class="color2" transform="matrix(0.8412461876869202,-0.5406522750854492,0.5406522750854492,0.8412461876869202,162.86697387695312,224.31687927246094)" opacity="1" style="display: block;"><path class="color2" fill="rgb(255,255,255)" fill-opacity="1" d=" M65.28804779052734,14.355639457702637 C66.22205352783203,10.955638885498047 65.4806137084961,9.038772583007812 65.4806137084961,4.505772590637207 C60.21461486816406,3.9057726860046387 41.26278305053711,-3.837479591369629 36.32978057861328,-4.037479400634766 C31.596782684326172,1.0295203924179077 26.523286819458008,14.400373458862305 25.66506576538086,20.167251586914062 C24.531064987182617,26.167251586914062 28.838157653808594,35.4747200012207 35.79999923706055,42.599998474121094 C35.54698181152344,43.931941986083984 28.434717178344727,53.54605484008789 27.221195220947266,55.45063400268555 C24.847667694091797,59.10501480102539 22.602500915527344,61.61508560180664 21.857847213745117,64.68633270263672 C20.68825912475586,68.89022064208984 22.966686248779297,71.82181549072266 25.71088218688965,74.12678527832031 C30.68667984008789,76.14398956298828 31.73525619506836,75.71034240722656 34.02696990966797,73.60794830322266 C35.82236099243164,70.76469421386719 34.53330993652344,67.60298156738281 33.335960388183594,64.68546295166016 C33.85149383544922,64.11835479736328 34.51334762573242,63.75064468383789 35.98418426513672,62.16004180908203 C36.903133392333984,59.3988151550293 42.690616607666016,51.25204849243164 45.063602447509766,48.96232986450195 C46.796600341796875,47.629329681396484 47.75348663330078,45.300689697265625 47.720489501953125,42.66668701171875 C47.65448760986328,42.63468933105469 47.44863510131836,38.58687973022461 48.38163375854492,37.1868782043457 C48.64863586425781,36.78688049316406 54.367000579833984,32.25 57.5,28.850000381469727 C60.56700134277344,25.382999420166016 64.28804779052734,17.755640029907227 65.28804779052734,14.355639457702637z"></path></g><g class="color1" transform="matrix(0.8412461876869202,-0.5406522750854492,0.5406522750854492,0.8412461876869202,162.86697387695312,224.31687927246094)" opacity="1" style="display: block;"><path stroke-linecap="round" stroke-linejoin="round" fill-opacity="0" class="color1" stroke="rgb(0,0,0)" stroke-opacity="1" stroke-width="2" d=" M32.051998138427734,2.427999973297119 C28.905000686645508,8.446999549865723 26.26300048828125,16.150999069213867 25.665000915527344,20.16699981689453 C24.531064987182617,26.167251586914062 28.838157653808594,35.4747200012207 35.79999923706055,42.599998474121094 C35.54698181152344,43.931941986083984 28.434717178344727,53.54605484008789 27.221195220947266,55.45063400268555 C24.847667694091797,59.10501480102539 22.602500915527344,61.61508560180664 21.857847213745117,64.68633270263672 C20.68825912475586,68.89022064208984 22.966686248779297,71.82181549072266 25.71088218688965,74.12678527832031 C30.68667984008789,76.14398956298828 31.73525619506836,75.71034240722656 34.02696990966797,73.60794830322266 C35.82236099243164,70.76469421386719 34.53330993652344,67.60298156738281 33.335960388183594,64.68546295166016 C33.85149383544922,64.11835479736328 34.51334762573242,63.75064468383789 35.98418426513672,62.16004180908203 C36.903133392333984,59.3988151550293 42.690616607666016,51.25204849243164 45.063602447509766,48.96232986450195 C46.796600341796875,47.629329681396484 47.75348663330078,45.300689697265625 47.720489501953125,42.66668701171875 C47.65448760986328,42.63468933105469 47.44863510131836,38.58687973022461 48.38163375854492,37.1868782043457 C48.64863586425781,36.78688049316406 54.367000579833984,32.25 57.5,28.850000381469727 C60.56700134277344,25.382999420166016 64.28804779052734,17.755640029907227 65.28804779052734,14.355639457702637"></path></g><g class="color2" transform="matrix(0.6221336722373962,-0.7829110622406006,0.7829110622406006,0.6221336722373962,126.86904907226562,157.9839630126953)" opacity="1" style="display: block;"><path class="color2" fill="rgb(255,255,255)" fill-opacity="1" d=" M-43.57450866699219,10.520512580871582 C-45.343505859375,11.916512489318848 -38.60501480102539,18.300180435180664 -36.49831008911133,21.31216049194336 C-34.594451904296875,23.96022605895996 -21.5,37.875 -19.625,38.5 C-17.75,39.125 3,45.375 4,46.125 C5,46.875 9.656999588012695,40.875999450683594 9.75,36.25 C9.875,30 4,25 4,25 C4,25 -8.473994255065918,26.326290130615234 -12.5,24.625 C-17.924997329711914,22.269718170166016 -37.38874816894531,10.074291229248047 -37.38874816894531,10.074291229248047 C-37.38874816894531,10.074291229248047 -41.19950866699219,8.645512580871582 -43.57450866699219,10.520512580871582z"></path></g><g class="color1" transform="matrix(0.6221336722373962,-0.7829110622406006,0.7829110622406006,0.6221336722373962,126.86904907226562,157.9839630126953)" opacity="1" style="display: block;"><path stroke-linecap="round" stroke-linejoin="round" fill-opacity="0" class="color1" stroke="rgb(25,29,30)" stroke-opacity="1" stroke-width="2" d=" M0.0989999994635582,25.31399917602539 C-3.9140000343322754,25.562999725341797 -9.928999900817871,25.711000442504883 -12.5,24.625 C-17.924997329711914,22.269718170166016 -37.38874816894531,10.074291229248047 -37.38874816894531,10.074291229248047 C-37.38874816894531,10.074291229248047 -41.19950866699219,8.645512580871582 -43.57450866699219,10.520512580871582 C-43.57450866699219,10.520512580871582 -43.57450866699219,10.520512580871582 -43.57450866699219,10.520512580871582 C-45.343505859375,11.916512489318848 -38.60501480102539,18.300180435180664 -36.49831008911133,21.31216049194336 C-34.594451904296875,23.96022605895996 -21.5,37.875 -19.625,38.5 C-17.75,39.125 3,45.375 4,46.125 C4,46.125 4,46.125 4,46.125"></path></g><g class="color2" transform="matrix(-0.16517281532287598,-0.9862646460533142,0.9862646460533142,-0.16517281532287598,89.55648803710938,229.34361267089844)" opacity="1" style="display: block;"><path class="color2" fill="rgb(255,255,255)" fill-opacity="1" d=" M20.850000381469727,15.449999809265137 C21.750999450683594,15.618000030517578 22.53499984741211,16.034000396728516 23.200000762939453,16.700000762939453 C24.020000457763672,17.520000457763672 24.56999969482422,18.402999877929688 24.850000381469727,19.350000381469727 C24.56999969482422,18.402999877929688 24.020000457763672,17.520000457763672 23.200000762939453,16.700000762939453 C22.53499984741211,16.034000396728516 21.750999450683594,15.618000030517578 20.850000381469727,15.449999809265137 C20.60300064086914,15.416000366210938 20.336999893188477,15.399999618530273 20.049999237060547,15.399999618530273 C18.816999435424805,15.399999618530273 17.75,15.833000183105469 16.850000381469727,16.700000762939453 C15.982999801635742,17.600000381469727 15.550000190734863,18.666000366210938 15.550000190734863,19.899999618530273 C15.550000190734863,19.899999618530273 15.550000190734863,21.049999237060547 15.550000190734863,21.049999237060547 C16.437999725341797,20.32699966430664 17.437999725341797,19.944000244140625 18.549999237060547,19.899999618530273 C19.670000076293945,19.857999801635742 20.53700065612793,20.107999801635742 21.149999618530273,20.649999618530273 C21.788000106811523,21.222000122070312 22.270999908447266,21.82200050354004 22.600000381469727,22.450000762939453 C22.270999908447266,21.82200050354004 21.788000106811523,21.222000122070312 21.149999618530273,20.649999618530273 C20.53700065612793,20.107999801635742 19.670000076293945,19.857999801635742 18.549999237060547,19.899999618530273 C17.437999725341797,19.944000244140625 16.437999725341797,20.32699966430664 15.550000190734863,21.049999237060547 C15.244000434875488,21.301000595092773 14.927000045776367,21.85099983215332 14.600000381469727,22.700000762939453 C14.305000305175781,23.547000885009766 14.170999526977539,24.381000518798828 14.199999809265137,25.200000762939453 C14.227999687194824,26.05299949645996 14.545000076293945,27.18600082397461 15.149999618530273,28.599000930786133 C15.755999565124512,30.013999938964844 17.18899917602539,31.56399917602539 19.450000762939453,33.25 C21.08300018310547,34.492000579833984 22.399999618530273,35.42599868774414 23.399999618530273,36.04999923706055 C23.399999618530273,36.04999923706055 25.000999450683594,37.27299880981445 27.339000701904297,35.01100158691406 C29.250999450683594,33.27299880981445 30.850000381469727,28.25 30.850000381469727,28.25 C31.030000686645508,24.79199981689453 30.780000686645508,22.075000762939453 30.100000381469727,20.100000381469727 C29.459999084472656,18.158000946044922 28.610000610351562,16.674999237060547 27.549999237060547,15.649999618530273 C26.486000061035156,14.654999732971191 25.336000442504883,14.154999732971191 24.100000381469727,14.149999618530273 C22.867000579833984,14.149999618530273 21.799999237060547,14.583000183105469 20.899999618530273,15.449999809265137 C20.899999618530273,15.449999809265137 20.850000381469727,15.449999809265137 20.850000381469727,15.449999809265137z"></path></g><g class="color1" transform="matrix(-0.16517281532287598,-0.9862646460533142,0.9862646460533142,-0.16517281532287598,89.55648803710938,229.34361267089844)" opacity="1" style="display: block;"><path stroke-linecap="round" stroke-linejoin="round" fill-opacity="0" class="color1" stroke="rgb(24,29,30)" stroke-opacity="1" stroke-width="2" d=" M20.875,15.475000381469727 C21.760000228881836,15.626999855041504 22.53499984741211,16.03499984741211 23.200000762939453,16.700000762939453 C24.020000457763672,17.520000457763672 24.56999969482422,18.40399932861328 24.850000381469727,19.350000381469727 M23.424999237060547,36.07500076293945 C22.409000396728516,35.435001373291016 21.083999633789062,34.500999450683594 19.450000762939453,33.2760009765625 C17.190000534057617,31.572999954223633 15.756999969482422,30.014999389648438 15.149999618530273,28.600000381469727 C14.545999526977539,27.187000274658203 14.229000091552734,26.062000274658203 14.199999809265137,25.225000381469727 C14.17199993133545,24.388999938964844 14.312999725341797,23.54800033569336 14.625,22.700000762939453 C14.935999870300293,21.85099983215332 15.244000434875488,21.301000595092773 15.550000190734863,21.049999237060547 C15.550000190734863,21.049999237060547 15.550000190734863,19.899999618530273 15.550000190734863,19.899999618530273 C15.550000190734863,18.66699981689453 15.984000205993652,17.600000381469727 16.850000381469727,16.700000762939453 C17.75,15.833999633789062 18.816999435424805,15.399999618530273 20.049999237060547,15.399999618530273 C20.336999893188477,15.399999618530273 20.61199951171875,15.425000190734863 20.875,15.475000381469727 C20.875,15.475000381469727 20.899999618530273,15.449999809265137 20.899999618530273,15.449999809265137 C21.799999237060547,14.583999633789062 22.867000579833984,14.149999618530273 24.100000381469727,14.149999618530273 C25.336999893188477,14.154999732971191 26.48699951171875,14.663000106811523 27.549999237060547,15.675000190734863 C28.611000061035156,16.68400001525879 29.4689998626709,18.16699981689453 30.125,20.125 C30.788000106811523,22.083999633789062 31.038000106811523,24.801000595092773 30.875,28.275999069213867 M24.450000762939453,36.70000076293945 C24.152999877929688,36.5369987487793 23.81100082397461,36.32899856567383 23.424999237060547,36.07500076293945 M15.550000190734863,21.049999237060547 C16.43899917602539,20.32699966430664 17.43899917602539,19.944000244140625 18.549999237060547,19.899999618530273 C19.67099952697754,19.857999801635742 20.54599952697754,20.115999221801758 21.174999237060547,20.674999237060547 C21.797000885009766,21.231000900268555 22.27199935913086,21.83099937438965 22.600000381469727,22.475000381469727"></path></g><g clip-path="url(#__lottie_element_4)" transform="matrix(1.9705026149749756,-0.34222695231437683,0.34222695231437683,1.9705026149749756,85.60867309570312,43.02385711669922)" opacity="1" style="display: block;"><g class="color1" transform="matrix(1,0,0,1,30,31.5)" opacity="1" style="display: block;"><path class="color1" fill="rgb(25,29,30)" fill-opacity="1" d=" M0,-26.947999954223633 C14.872601509094238,-26.947999954223633 26.947999954223633,-14.872601509094238 26.947999954223633,0 C26.947999954223633,14.872601509094238 14.872601509094238,26.947999954223633 0,26.947999954223633 C-14.872601509094238,26.947999954223633 -26.947999954223633,14.872601509094238 -26.947999954223633,0 C-26.947999954223633,-14.872601509094238 -14.872601509094238,-26.947999954223633 0,-26.947999954223633z"></path></g><g class="color2" transform="matrix(0.9801944494247437,-0.19803756475448608,0.19803756475448608,0.9801944494247437,27.55567169189453,27.550804138183594)" opacity="1" style="display: block;"><path class="color2" fill="rgb(255,255,255)" fill-opacity="1" d=" M9.312000274658203,10.812000274658203 C9.312000274658203,10.812000274658203 13.048999786376953,11.769000053405762 13.875,12.75 C14.875,13.937999725341797 15.812000274658203,16.312999725341797 18.25,16.687999725341797 C21.590999603271484,17.20199966430664 23.142000198364258,14.17199993133545 21.312000274658203,11 C19.437000274658203,7.75 11.937000274658203,6.875 10.812000274658203,7"></path></g><g class="color1" transform="matrix(0.9801944494247437,-0.19803756475448608,0.19803756475448608,0.9801944494247437,27.55567169189453,27.550804138183594)" opacity="1" style="display: block;"><path stroke-linecap="round" stroke-linejoin="round" fill-opacity="0" class="color1" stroke="rgb(25,29,30)" stroke-opacity="1" stroke-width="1" d=" M9.312000274658203,10.812000274658203 C9.312000274658203,10.812000274658203 13.048999786376953,11.769000053405762 13.875,12.75 C14.875,13.937999725341797 15.812000274658203,16.312999725341797 18.25,16.687999725341797 C21.590999603271484,17.20199966430664 23.142000198364258,14.17199993133545 21.312000274658203,11 C19.437000274658203,7.75 11.937000274658203,6.875 10.812000274658203,7"></path></g><g class="color2" transform="matrix(1,0,0,1,0,0)" opacity="1" style="display: block;"><path class="color2" fill="rgb(255,255,255)" fill-opacity="1" d=" M22.049999237060547,53.9010009765625 C22.117000579833984,54.70000076293945 22.149999618530273,55.599998474121094 22.149999618530273,56.599998474121094 C27.149999618530273,59.33300018310547 33.433998107910156,59.28300094604492 41,56.45000076293945 C41,56.45000076293945 41.4010009765625,55.4010009765625 41.4010009765625,55.4010009765625 C41.4010009765625,55.4010009765625 40.6510009765625,52.25 40.6510009765625,52.25 C40.6510009765625,52.25 40.599998474121094,52.04999923706055 40.599998474121094,52.04999923706055 C35.20000076293945,54.849998474121094 29.017000198364258,55.46699905395508 22.049999237060547,53.9010009765625z M21.299999237060547,23.899999618530273 C18.16699981689453,25.767000198364258 15.25,25.399999618530273 12.550000190734863,22.799999237060547 C8.916999816894531,26.833999633789062 8.817000389099121,31.615999221801758 12.25,37.1510009765625 C13.350000381469727,38.91699981689453 14.782999992370605,40.75 16.549999237060547,42.6510009765625 C16.549999237060547,42.6510009765625 16.799999237060547,43.099998474121094 16.799999237060547,43.099998474121094 C19.233999252319336,45.933998107910156 20.850000381469727,48.73400115966797 21.649999618530273,51.5 C21.683000564575195,51.599998474121094 21.716999053955078,51.70000076293945 21.75,51.79999923706055 C21.850000381469727,52.4010009765625 21.950000762939453,53.099998474121094 22.049999237060547,53.9010009765625 C29.017000198364258,55.46699905395508 35.20000076293945,54.849998474121094 40.599998474121094,52.04999923706055 C40.599998474121094,52.04999923706055 40.5,51.849998474121094 40.5,51.849998474121094 C40.53300094604492,51.849998474121094 40.58300018310547,51.83300018310547 40.6510009765625,51.79999923706055 C40.75,51.766998291015625 40.86600112915039,51.71699905395508 41,51.6510009765625 C46.4010009765625,42.516998291015625 45.66699981689453,35.433998107910156 38.79999923706055,30.399999618530273 C33.56700134277344,26.333999633789062 29.100000381469727,25.517000198364258 25.399999618530273,27.950000762939453 C25.399999618530273,27.950000762939453 21.299999237060547,23.899999618530273 21.299999237060547,23.899999618530273z M12.550000190734863,22.799999237060547 C15.25,25.399999618530273 18.16699981689453,25.767000198364258 21.299999237060547,23.899999618530273 C21.299999237060547,23.899999618530273 16.75,19.399999618530273 16.75,19.399999618530273 C15.017000198364258,20.466999053955078 13.616999626159668,21.600000381469727 12.550000190734863,22.799999237060547z"></path></g><g class="color1" transform="matrix(1,0,0,1,0,0)" opacity="1" style="display: block;"><path stroke-linecap="round" stroke-linejoin="round" fill-opacity="0" class="color1" stroke="rgb(24,29,30)" stroke-opacity="1" stroke-width="1" d=" M12.550000190734863,22.798999786376953 C15.25,25.399999618530273 18.16699981689453,25.766000747680664 21.299999237060547,23.899999618530273 C21.299999237060547,23.899999618530273 16.75,19.399999618530273 16.75,19.399999618530273 C15.017000198364258,20.465999603271484 13.616999626159668,21.600000381469727 12.550000190734863,22.798999786376953 C8.916999816894531,26.83300018310547 8.817000389099121,31.615999221801758 12.25,37.150001525878906 C13.350000381469727,38.91699981689453 14.782999992370605,40.75 16.549999237060547,42.650001525878906 C16.549999237060547,42.650001525878906 16.799999237060547,43.0989990234375 16.799999237060547,43.0989990234375 C19.232999801635742,45.93299865722656 20.850000381469727,48.733001708984375 21.649999618530273,51.5 C21.683000564575195,51.5989990234375 21.716999053955078,51.70000076293945 21.75,51.79899978637695 C21.850000381469727,52.400001525878906 21.950000762939453,53.0989990234375 22.049999237060547,53.900001525878906 C29.017000198364258,55.465999603271484 35.20000076293945,54.8489990234375 40.599998474121094,52.04899978637695 M40.5,51.8489990234375 C40.53300094604492,51.8489990234375 40.58300018310547,51.83300018310547 40.650001525878906,51.79899978637695 C40.75,51.76599884033203 40.86600112915039,51.715999603271484 41,51.650001525878906 C46.400001525878906,42.51599884033203 45.66699981689453,35.43299865722656 38.79999923706055,30.399999618530273 C33.566001892089844,26.33300018310547 29.100000381469727,25.516000747680664 25.399999618530273,27.950000762939453 C25.399999618530273,27.950000762939453 21.299999237060547,23.899999618530273 21.299999237060547,23.899999618530273 M22.149999618530273,57 C22.149999618530273,57 22.149999618530273,56.5989990234375 22.149999618530273,56.5989990234375 C22.149999618530273,55.5989990234375 22.117000579833984,54.70000076293945 22.049999237060547,53.900001525878906 M40.650001525878906,52.25 C40.650001525878906,52.25 41.400001525878906,55.400001525878906 41.400001525878906,55.400001525878906 M41,51.650001525878906 C40.96699905395508,51.715999603271484 40.95000076293945,51.76599884033203 40.95000076293945,51.79899978637695 C40.849998474121094,51.965999603271484 40.75,52.11600112915039 40.650001525878906,52.25"></path></g><g class="color2" transform="matrix(1,0,0,1,30,30)" opacity="1" style="display: block;"><path class="color2" fill="rgb(255,255,255)" fill-opacity="1" d=" M-15.62600040435791,9.440999984741211 C-16.03700065612793,10.03600025177002 -16.577999114990234,11.123000144958496 -16.910999298095703,12.991000175476074 C-17.536495208740234,16.49056625366211 -15.706878662109375,19.369115829467773 -13.480489730834961,18.871002197265625 C-11.364304542541504,18.369182586669922 -12.940997123718262,15.225934028625488 -12.878996849060059,13.850934028625488 C-12.816997528076172,12.475934028625488 -12.12399959564209,10.437000274658203 -11.062000274658203,9.062000274658203 C-11.062000274658203,9.062000274658203 -11.062000274658203,9.062000274658203 -11.062000274658203,9.062000274658203"></path></g><g class="color1" transform="matrix(1,0,0,1,30,30)" opacity="1" style="display: block;"><path stroke-linecap="round" stroke-linejoin="round" fill-opacity="0" class="color1" stroke="rgb(25,29,30)" stroke-opacity="1" stroke-width="1" d=" M-15.62600040435791,9.440999984741211 C-16.03700065612793,10.03600025177002 -16.577999114990234,11.123000144958496 -16.910999298095703,12.991000175476074 C-17.536495208740234,16.49056625366211 -15.706878662109375,19.369115829467773 -13.480489730834961,18.871002197265625 C-11.364304542541504,18.369182586669922 -12.940997123718262,15.225934028625488 -12.878996849060059,13.850934028625488 C-12.816997528076172,12.475934028625488 -12.12399959564209,10.437000274658203 -11.062000274658203,9.062000274658203 C-11.062000274658203,9.062000274658203 -11.062000274658203,9.062000274658203 -11.062000274658203,9.062000274658203"></path></g><g class="color1" transform="matrix(1,0,0,1,30,30)" opacity="1" style="display: block;"><path stroke-linecap="round" stroke-linejoin="round" fill-opacity="0" class="color1" stroke="rgb(25,29,30)" stroke-opacity="1" stroke-width="1" d=" M-17.875,6.688000202178955 C-17.875,6.688000202178955 -17.12299919128418,8.16100025177002 -15.937999725341797,8.937999725341797 C-13.937999725341797,10.25 -10.562000274658203,9.062000274658203 -10.562000274658203,9.062000274658203"></path></g><g class="color1" transform="matrix(0.0982699990272522,0,0,0.0982699990272522,30.85297966003418,34.779869079589844)" opacity="1" style="display: block;"><path class="color1" fill="rgb(25,29,30)" fill-opacity="1" d=" M0,-26.947999954223633 C14.872601509094238,-26.947999954223633 26.947999954223633,-14.872601509094238 26.947999954223633,0 C26.947999954223633,14.872601509094238 14.872601509094238,26.947999954223633 0,26.947999954223633 C-14.872601509094238,26.947999954223633 -26.947999954223633,14.872601509094238 -26.947999954223633,0 C-26.947999954223633,-14.872601509094238 -14.872601509094238,-26.947999954223633 0,-26.947999954223633z"></path></g><g class="color2" transform="matrix(0.10211300104856491,0,0,0.1296284943819046,36.48883056640625,34.62055969238281)" opacity="1" style="display: none;"><path class="color2" fill="rgb(255,255,255)" fill-opacity="1" d=" M0,-26.947999954223633 C14.872601509094238,-26.947999954223633 26.947999954223633,-14.872601509094238 26.947999954223633,0 C26.947999954223633,14.872601509094238 14.872601509094238,26.947999954223633 0,26.947999954223633 C-14.872601509094238,26.947999954223633 -26.947999954223633,14.872601509094238 -26.947999954223633,0 C-26.947999954223633,-14.872601509094238 -14.872601509094238,-26.947999954223633 0,-26.947999954223633z"></path></g><g class="color2" transform="matrix(0.10575775057077408,0,0,0.13001736998558044,35.55628967285156,34.50408172607422)" opacity="1" style="display: none;"><path class="color2" fill="rgb(255,255,255)" fill-opacity="1" d=" M0,-26.947999954223633 C14.872601509094238,-26.947999954223633 26.947999954223633,-14.872601509094238 26.947999954223633,0 C26.947999954223633,14.872601509094238 14.872601509094238,26.947999954223633 0,26.947999954223633 C-14.872601509094238,26.947999954223633 -26.947999954223633,14.872601509094238 -26.947999954223633,0 C-26.947999954223633,-14.872601509094238 -14.872601509094238,-26.947999954223633 0,-26.947999954223633z"></path></g><g class="color2" transform="matrix(0.5834455490112305,0.8121522665023804,-0.8121522665023804,0.5834455490112305,41.97394943237305,26.64695930480957)" opacity="1" style="display: block;"><path class="color2" fill="rgb(255,255,255)" fill-opacity="1" d=" M10.812000274658203,7 C9.687000274658203,7.125 9.312000274658203,10.812000274658203 9.312000274658203,10.812000274658203 C9.312000274658203,10.812000274658203 13.048999786376953,11.769000053405762 13.875,12.75 C14.875,13.937999725341797 15.812000274658203,16.312999725341797 18.25,16.687999725341797 C21.590999603271484,17.20199966430664 23.142000198364258,14.17199993133545 21.312000274658203,11 C19.437000274658203,7.75 11.937000274658203,6.875 10.812000274658203,7z"></path></g><g class="color1" transform="matrix(0.5834455490112305,0.8121522665023804,-0.8121522665023804,0.5834455490112305,41.97394943237305,26.64695930480957)" opacity="1" style="display: block;"><path stroke-linecap="round" stroke-linejoin="round" fill-opacity="0" class="color1" stroke="rgb(25,29,30)" stroke-opacity="1" stroke-width="1" d=" M9.312000274658203,10.812000274658203 C9.312000274658203,10.812000274658203 13.048999786376953,11.769000053405762 13.875,12.75 C14.875,13.937999725341797 15.812000274658203,16.312999725341797 18.25,16.687999725341797 C21.590999603271484,17.20199966430664 23.142000198364258,14.17199993133545 21.312000274658203,11 C19.437000274658203,7.75 11.937000274658203,6.875 10.812000274658203,7"></path></g><g class="color1" transform="matrix(0.98676997423172,0,0,0.98676997423172,30,31.5)" opacity="1" style="display: block;"><path stroke-linecap="butt" stroke-linejoin="miter" fill-opacity="0" stroke-miterlimit="4" class="color3" stroke="rgb(25,29,30)" stroke-opacity="1" stroke-width="2" d=" M0,-26.947999954223633 C14.872601509094238,-26.947999954223633 26.947999954223633,-14.872601509094238 26.947999954223633,0 C26.947999954223633,14.872601509094238 14.872601509094238,26.947999954223633 0,26.947999954223633 C-14.872601509094238,26.947999954223633 -26.947999954223633,14.872601509094238 -26.947999954223633,0 C-26.947999954223633,-14.872601509094238 -14.872601509094238,-26.947999954223633 0,-26.947999954223633z"></path></g></g></g></svg>