<svg xmlns="http://www.w3.org/2000/svg" xmlns:xlink="http://www.w3.org/1999/xlink" width="40" height="40" viewBox="0 0 40 40" focusable="false" class="mc-icon mc-icon-template-content mc-icon-template-content--audio-small brws-file-name-cell-icon" role="img"><defs><rect id="mc-content-audio-small-b" width="30" height="24" rx="1.5"></rect><filter x="-1.7%" y="-2.1%" width="103.3%" height="108.3%" filterUnits="objectBoundingBox" id="mc-content-audio-small-a"><feOffset dy="1" in="SourceAlpha" result="shadowOffsetOuter1"></feOffset><feColorMatrix values="0 0 0 0 0.858859196 0 0 0 0 0.871765907 0 0 0 0 0.884672619 0 0 0 1 0" in="shadowOffsetOuter1"></feColorMatrix></filter></defs><g fill="none" fill-rule="evenodd"><g transform="translate(5 8)"><use fill="#000" filter="url(#mc-content-audio-small-a)" xlink:href="#mc-content-audio-small-b"></use><use fill="#F7F9FA" xlink:href="#mc-content-audio-small-b"></use></g><path d="M13 19.01a1 1 0 1 1 2 0v1.98a1 1 0 1 1-2 0v-1.98zm12 0a1 1 0 1 1 2 0v1.98a1 1 0 1 1-2 0v-1.98zm-9-5.003c0-.556.444-1.007 1-1.007.552 0 1 .45 1 1.007v11.986C18 26.55 17.556 27 17 27c-.552 0-1-.45-1-1.007V14.007zm6 2.99c0-.55.444-.997 1-.997.552 0 1 .453 1 .997v6.006c0 .55-.444.997-1 .997-.552 0-1-.453-1-.997v-6.006zm-3 .994c0-.547.444-.991 1-.991a1 1 0 0 1 1 .99v4.02c0 .546-.444.99-1 .99a1 1 0 0 1-1-.99v-4.02z" fill="#637282"></path></g></svg>