<svg xmlns="http://www.w3.org/2000/svg" xmlns:xlink="http://www.w3.org/1999/xlink" width="40" height="40" viewBox="0 0 40 40" focusable="false" class="mc-icon mc-icon-template-content mc-icon-template-content--code-small brws-file-name-cell-icon" role="img"><defs><rect id="mc-content-code-small-b" x="8" y="5" width="24" height="30" rx="1.5"></rect><filter x="-2.1%" y="-1.7%" width="104.2%" height="106.7%" filterUnits="objectBoundingBox" id="mc-content-code-small-a"><feOffset dy="1" in="SourceAlpha" result="shadowOffsetOuter1"></feOffset><feColorMatrix values="0 0 0 0 0.858859196 0 0 0 0 0.871765907 0 0 0 0 0.884672619 0 0 0 1 0" in="shadowOffsetOuter1"></feColorMatrix></filter></defs><g fill="none" fill-rule="evenodd"><g><use fill="#000" filter="url(#mc-content-code-small-a)" xlink:href="#mc-content-code-small-b"></use><use fill="#F7F9FA" xlink:href="#mc-content-code-small-b"></use></g><path d="M17.717 18.126a8.637 8.637 0 0 0-.068-.586c-.054-.387-.066-.49-.066-.608 0-.446.401-.727 1.084-.727v-1.5c-1.42 0-2.584.816-2.584 2.227 0 .218.015.342.08.816.032.224.048.355.058.49.06.796-.112 1.012-1.221 1.012v1.5c1.109 0 1.28.216 1.221 1.012-.01.135-.026.266-.057.49-.066.474-.08.598-.08.816 0 1.41 1.162 2.227 2.583 2.227v-1.5c-.683 0-1.084-.281-1.084-.727 0-.117.012-.22.066-.608.036-.254.055-.41.068-.586.059-.783-.099-1.422-.507-1.874.408-.452.566-1.091.507-1.874zM22.283 21.874c.013.175.032.332.068.586.054.387.066.49.066.608 0 .446-.401.727-1.084.727v1.5c1.42 0 2.584-.816 2.584-2.227 0-.218-.015-.342-.08-.816a7.383 7.383 0 0 1-.058-.49c-.06-.796.112-1.012 1.221-1.012v-1.5c-1.109 0-1.28-.216-1.221-1.012.01-.135.026-.266.057-.49.066-.474.08-.598.08-.816 0-1.41-1.162-2.227-2.583-2.227v1.5c.683 0 1.084.281 1.084.727 0 .117-.012.22-.066.608a8.637 8.637 0 0 0-.068.586c-.059.783.099 1.422.507 1.874-.408.452-.566 1.091-.507 1.874z" fill="#637282" fill-rule="nonzero"></path></g></svg>