<svg xmlns="http://www.w3.org/2000/svg" xmlns:xlink="http://www.w3.org/1999/xlink" width="40" height="40" viewBox="0 0 40 40" focusable="false" class="mc-icon mc-icon-template-content mc-icon-template-content--folder_camera_upload-small brws-file-name-cell-icon" role="img"><g fill="none" fill-rule="evenodd"><path d="M18.422 11h15.07c.84 0 1.508.669 1.508 1.493v18.014c0 .818-.675 1.493-1.508 1.493H6.508C5.668 32 5 31.331 5 30.507V9.493C5 8.663 5.671 8 6.5 8h7.805c.564 0 1.229.387 1.502.865l1.015 1.777s.4.358 1.6.358z" fill="#C996FF"></path><path d="M18.422 10h15.07c.84 0 1.508.669 1.508 1.493v18.014c0 .818-.675 1.493-1.508 1.493H6.508C5.668 31 5 30.331 5 29.507V8.493C5 7.663 5.671 7 6.5 7h7.805c.564 0 1.229.387 1.502.865l1.015 1.777s.4.358 1.6.358z" fill="#D7B9F6"></path><g transform="translate(14 16)"><rect fill="#BA83F5" width="12" height="9" rx="1"></rect><rect fill="#D6B9F6" x="1" y="1" width="2" height="1" rx=".5"></rect><circle fill="#D6B9F6" cx="6.5" cy="4.5" r="2.5"></circle></g></g></svg>