<svg xmlns="http://www.w3.org/2000/svg" xmlns:xlink="http://www.w3.org/1999/xlink" width="40" height="40" viewBox="0 0 40 40" focusable="false" class="mc-icon mc-icon-template-content mc-icon-template-content--folder_app-small brws-file-name-cell-icon" role="img"><g fill="none" fill-rule="evenodd"><path d="M18.422 11h15.07c.84 0 1.508.669 1.508 1.493v18.014c0 .818-.675 1.493-1.508 1.493H6.508C5.668 32 5 31.331 5 30.507V9.493C5 8.663 5.671 8 6.5 8h7.805c.564 0 1.229.387 1.502.865l1.015 1.777s.4.358 1.6.358z" fill="#71B9F4"></path><path d="M18.422 10h15.07c.84 0 1.508.669 1.508 1.493v18.014c0 .818-.675 1.493-1.508 1.493H6.508C5.668 31 5 30.331 5 29.507V8.493C5 7.663 5.671 7 6.5 7h7.805c.564 0 1.229.387 1.502.865l1.015 1.777s.4.358 1.6.358z" fill="#92CEFF"></path><path d="M22.37 17.385s-2.006.098-2.715.13c-.438.02-.679-.355-.29-.744.299-.296.407-.38.355-.935-.06-.635-.695-.841-1.217-.836-.547.005-1.145.296-1.321.82-.116.343-.114.69.187.91.162.12.525.298.119.623-.22.175-2.425-.032-2.425-.032s-.097 1.893-.027 2.43c.04.31.422.455.674.119.387-.516 1.461-.18 1.515.833.057 1.063-1.077 1.227-1.32.812-.228-.39-.872-.484-.901.01-.044.77.316 3.218.316 3.218s1.45.34 2.103.238c.303-.05.444-.574.162-.82-.26-.225-.314-1.433 1.037-1.293 1.055.109.88 1.029.611 1.198-.257.161-.246.663.293.806.736.196 2.965-.288 2.965-.288s-.295-1.806-.194-2.393c.105-.626.825-.248.914-.13.582.775 1.789.352 1.789-.948 0-1.893-1.724-1.573-1.886-1.116-.179.5-.771.373-.836.063-.152-.713.092-2.675.092-2.675z" fill="#3BA0F3"></path></g></svg>