<svg width="160" height="160" viewBox="0 0 160 160" focusable="false" class="mc-icon mc-icon-template-content mc-icon-template-content--folder_shared-large tile__preview tile__preview--icon brws-file-name-grid-icon" role="img"><g fill="none" fill-rule="evenodd"><path d="M74.955 53h50.04A3.002 3.002 0 0 1 128 56.007v58.988a4.008 4.008 0 0 1-4.003 4.005H36.003A4.002 4.002 0 0 1 32 114.995V45.99c0-2.206 1.79-3.99 3.997-3.99h26.002c1.666 0 3.667 1.166 4.49 2.605l3.341 5.848s1.281 2.544 5.12 2.544l.005.003z" fill="#71B9F4"></path><path d="M74.955 52h50.04A3.002 3.002 0 0 1 128 55.007v58.988a4.008 4.008 0 0 1-4.003 4.005H36.003A4.002 4.002 0 0 1 32 113.995V44.99c0-2.206 1.79-3.99 3.997-3.99h26.002c1.666 0 3.667 1.166 4.49 2.605l3.341 5.848s1.281 2.544 5.12 2.544l.005.003z" fill="#92CEFF"></path><path d="M79.5 95.134l1.517-3.944c.9-2.343 3.658-4.241 6.184-4.241h2.088c2.514 0 5.286 1.906 6.184 4.24l1.15 2.992c.396 1.029-.185 1.862-1.282 1.862H63.66c-1.104 0-1.676-.839-1.283-1.862l1.15-2.991c.902-2.343 3.66-4.241 6.185-4.241h2.088c2.514 0 5.286 1.906 6.184 4.24l1.517 3.945zm-8.503-11.177a5 5 0 1 1 0-10 5 5 0 0 1 0 10zm17 0a5 5 0 1 1 0-10 5 5 0 0 1 0 10z" fill="#3BA0F3"></path></g></svg>