<svg width="160" height="160" viewBox="0 0 160 160" focusable="false" class="mc-icon mc-icon-template-content mc-icon-template-content--folder_app-large tile__preview tile__preview--icon brws-file-name-grid-icon" role="img"><g fill="none" fill-rule="evenodd"><path d="M74.955 53h50.04A3.002 3.002 0 0 1 128 56.007v58.988a4.008 4.008 0 0 1-4.003 4.005H36.003A4.002 4.002 0 0 1 32 114.995V45.99c0-2.206 1.79-3.99 3.997-3.99h26.002c1.666 0 3.667 1.166 4.49 2.605l3.341 5.848s1.281 2.544 5.12 2.544l.005.003z" fill="#71B9F4"></path><path d="M74.955 52h50.04A3.002 3.002 0 0 1 128 55.007v58.988a4.008 4.008 0 0 1-4.003 4.005H36.003A4.002 4.002 0 0 1 32 113.995V44.99c0-2.206 1.79-3.99 3.997-3.99h26.002c1.666 0 3.667 1.166 4.49 2.605l3.341 5.848s1.281 2.544 5.12 2.544l.005.003z" fill="#92CEFF"></path><path d="M88.898 77.44s-5.414.263-7.328.349c-1.184.057-1.834-.957-.782-2.006.804-.8 1.096-1.028.957-2.527-.16-1.713-1.878-2.27-3.288-2.256-1.476.015-3.09.8-3.566 2.213-.314.928-.306 1.863.505 2.456.438.328 1.417.806.321 1.684-.592.472-6.546-.085-6.546-.085s-.264 5.11-.074 6.56c.11.835 1.14 1.228 1.82.321 1.045-1.392 3.945-.485 4.091 2.249.154 2.87-2.908 3.312-3.565 2.191-.614-1.05-2.353-1.306-2.433.029-.117 2.077.855 8.687.855 8.687s3.916.921 5.677.643c.818-.136 1.198-1.55.438-2.213-.701-.607-.847-3.87 2.799-3.491 2.85.293 2.374 2.777 1.65 3.234-.693.435-.664 1.791.79 2.177 1.987.528 8.008-.778 8.008-.778S88.43 92 88.7 90.417c.285-1.692 2.228-.671 2.47-.35 1.57 2.091 4.829.95 4.829-2.563 0-5.11-4.654-4.247-5.093-3.012-.482 1.349-2.082 1.006-2.257.171-.41-1.927.248-7.224.248-7.224z" fill="#3BA0F3"></path></g></svg>