<svg width="40" height="40" viewBox="0 0 40 40" focusable="false" class="mc-icon mc-icon-template-content mc-icon-template-content--folder_team-small" role="img"><g fill="none" fill-rule="evenodd"><path d="M18.422 11h15.07c.84 0 1.508.669 1.508 1.493v18.014c0 .818-.675 1.493-1.508 1.493H6.508C5.668 32 5 31.331 5 30.507V9.493C5 8.663 5.671 8 6.5 8h7.805c.564 0 1.229.387 1.502.865l1.015 1.777s.4.358 1.6.358z" fill="#71B9F4"></path><path d="M18.422 10h15.07c.84 0 1.508.669 1.508 1.493v18.014c0 .818-.675 1.493-1.508 1.493H6.508C5.668 31 5 30.331 5 29.507V8.493C5 7.663 5.671 7 6.5 7h7.805c.564 0 1.229.387 1.502.865l1.015 1.777s.4.358 1.6.358z" fill="#92CEFF"></path><path d="M22 24v-5h5v7H13V15h7v9h2zm-7-7v1h1v-1h-1zm2 0v1h1v-1h-1zm-2 2v1h1v-1h-1zm2 0v1h1v-1h-1zm-2 2v1h1v-1h-1zm2 0v1h1v-1h-1zm-2 2v1h1v-1h-1zm2 0v1h1v-1h-1zm7-2v1h1v-1h-1zm0 2v1h1v-1h-1z" fill="#3BA0F3"></path></g></svg>