<svg xmlns="http://www.w3.org/2000/svg" xmlns:xlink="http://www.w3.org/1999/xlink" width="160" height="160" viewBox="0 0 160 160" focusable="false" class="mc-icon mc-icon-template-content mc-icon-template-content--folder-large tile__preview tile__preview--icon brws-file-name-grid-icon" role="img"><g fill="none" fill-rule="evenodd"><path d="M77.955 53h50.04A3.002 3.002 0 0 1 131 56.007v58.988a4.008 4.008 0 0 1-4.003 4.005H39.003A4.002 4.002 0 0 1 35 114.995V45.99c0-2.206 1.79-3.99 3.997-3.99h26.002c1.666 0 3.667 1.166 4.49 2.605l3.341 5.848s1.281 2.544 5.12 2.544l.005.003z" fill="#71B9F4"></path><path d="M77.955 52h50.04A3.002 3.002 0 0 1 131 55.007v58.988a4.008 4.008 0 0 1-4.003 4.005H39.003A4.002 4.002 0 0 1 35 113.995V44.99c0-2.206 1.79-3.99 3.997-3.99h26.002c1.666 0 3.667 1.166 4.49 2.605l3.341 5.848s1.281 2.544 5.12 2.544l.005.003z" fill="#92CEFF"></path></g></svg>