<svg width="40" height="40" viewBox="0 0 40 40" focusable="false" class="mc-icon mc-icon-template-content mc-icon-template-content--image-small" role="img"><defs><rect id="mc-content-image-small-b" x="8" y="8" width="24" height="24" rx="1.5"></rect><filter x="-2.1%" y="-2.1%" width="104.2%" height="108.3%" filterUnits="objectBoundingBox" id="mc-content-image-small-a"><feOffset dy="1" in="SourceAlpha" result="shadowOffsetOuter1"></feOffset><feColorMatrix values="0 0 0 0 0.858859196 0 0 0 0 0.871765907 0 0 0 0 0.884672619 0 0 0 1 0" in="shadowOffsetOuter1"></feColorMatrix></filter></defs><g fill="none" fill-rule="evenodd"><g><use fill="#000" filter="url(#mc-content-image-small-a)" xlink:href="#mc-content-image-small-b"></use><use fill="#F7F9FA" xlink:href="#mc-content-image-small-b"></use></g><path d="M17.399 19.386c.174-.213.457-.207.622 0l3.65 4.593c.17.213.446.223.635.002l1.937-2.264c.181-.212.459-.206.62.014l2.845 3.871c.161.22.066.398-.204.398H12.496c-.274 0-.355-.173-.18-.386l5.083-6.228zM23.5 18a2.5 2.5 0 1 1 0-5 2.5 2.5 0 0 1 0 5z" fill="#637282"></path></g></svg>