<svg xmlns="http://www.w3.org/2000/svg" xmlns:xlink="http://www.w3.org/1999/xlink" width="32" height="32" viewBox="0 0 32 32" focusable="false" class="mc-icon mc-icon-template-stateless mc-icon-template-stateless--link-view mc-colorized-icon--colorized" role="img" color="#717781"><path fill-rule="evenodd" clip-rule="evenodd" d="M16 22c3.524 0 6.612-2.572 8.324-4.348a2.354 2.354 0 0 0 0-3.304C22.612 12.572 19.524 10 16 10s-6.612 2.572-8.324 4.348a2.354 2.354 0 0 0 0 3.304C9.388 19.428 12.476 22 16 22zm0-2c2.153 0 3.899-1.79 3.899-4S18.153 12 16 12s-3.899 1.79-3.899 4 1.746 4 3.899 4z" fill="#000"></path><path fill-rule="evenodd" clip-rule="evenodd" d="M16 18.5c1.346 0 2.437-1.12 2.437-2.5S17.346 13.5 16 13.5c-1.346 0-2.437 1.12-2.437 2.5s1.091 2.5 2.437 2.5z" fill="#000"></path></svg>