<svg width="28" height="28" xmlns="http://www.w3.org/2000/svg" xmlns:svg="http://www.w3.org/2000/svg" xmlns:se="http://svg-edit.googlecode.com" class="svg-inline--fa fa-lock fa-w-14 " data-icon="lock" data-prefix="fas">
 <g class="layer">
  <title>Layer 1</title>
  <path d="m20.72768,12.77678l-0.91741,0l0,-2.75223c0,-3.20329 -2.60698,-5.81027 -5.81027,-5.81027s-5.81027,2.60698 -5.81027,5.81027l0,2.75223l-0.91741,0c-1.01297,0 -1.83482,0.82185 -1.83482,1.83482l0,7.33929c0,1.01297 0.82185,1.83482 1.83482,1.83482l13.45536,0c1.01297,0 1.83482,-0.82185 1.83482,-1.83482l0,-7.33929c0,-1.01297 -0.82185,-1.83482 -1.83482,-1.83482zm-3.97545,0l-5.50446,0l0,-2.75223c0,-1.51755 1.23468,-2.75223 2.75223,-2.75223s2.75223,1.23468 2.75223,2.75223l0,2.75223z" fill="#0070E0" id="svg_1"/>
 </g>
</svg>