<svg width="40" height="40" viewBox="0 0 40 40" focusable="false" class="mc-icon mc-icon-template-content mc-icon-template-content--paper-small" role="img"><path fill-rule="evenodd" clip-rule="evenodd" d="M8 6.5A1.5 1.5 0 0 1 9.5 5h21A1.5 1.5 0 0 1 32 6.5v27a1.5 1.5 0 0 1-1.5 1.5h-21A1.5 1.5 0 0 1 8 33.5v-27z" fill="#F7F9FA" filter="url(#mc-content-paper-small-a)"></path><path fill-rule="evenodd" clip-rule="evenodd" d="M20.009 19.195a.5.5 0 0 1 .562 0l5.078 3.453a.5.5 0 0 1 0 .826l-5.08 3.455a.5.5 0 0 1-.562 0l-5.079-3.452a.5.5 0 0 1 0-.827l5.08-3.455z" fill="#B3D8F6"></path><path fill-rule="evenodd" clip-rule="evenodd" d="M20.009 15.629a.5.5 0 0 1 .562 0l5.078 3.453a.5.5 0 0 1 0 .826l-5.08 3.455a.5.5 0 0 1-.562 0l-5.079-3.452a.5.5 0 0 1 0-.827l5.08-3.455z" fill="#0070E0"></path><defs><filter id="mc-content-paper-small-a" x="8" y="5" width="24" height="31" filterUnits="userSpaceOnUse" color-interpolation-filters="sRGB"><feFlood flood-opacity="0" result="BackgroundImageFix"></feFlood><feColorMatrix in="SourceAlpha" values="0 0 0 0 0 0 0 0 0 0 0 0 0 0 0 0 0 0 127 0"></feColorMatrix><feOffset dy="1"></feOffset><feColorMatrix values="0 0 0 0 0.858859 0 0 0 0 0.871766 0 0 0 0 0.884673 0 0 0 1 0"></feColorMatrix><feBlend in2="BackgroundImageFix" result="effect1_dropShadow"></feBlend><feBlend in="SourceGraphic" in2="effect1_dropShadow" result="shape"></feBlend></filter></defs></svg>