<svg xmlns="http://www.w3.org/2000/svg" xmlns:xlink="http://www.w3.org/1999/xlink" width="32" height="32" viewBox="0 0 32 32" focusable="false" class="mc-icon mc-icon-template-actionable mc-icon-template-actionable--revert-folder" role="img"><path fill-rule="evenodd" clip-rule="evenodd" d="M22.5 11a1.5 1.5 0 0 1 1.5 1.5v10a1.5 1.5 0 0 1-1.5 1.5h-13A1.5 1.5 0 0 1 8 22.5v-12A1.5 1.5 0 0 1 9.5 9H14l2 2h6.5zM10 13v9h12v-9H10z" fill="#0070E0"></path><path fill="#fff" d="M6 14h12v10H6z"></path><path fill="#fff" d="M15 20.5a3.5 3.5 0 1 1-7 0 3.5 3.5 0 0 1 7 0z" stroke="#0070E0" stroke-width="2"></path><path fill="#fff" d="M7 20h5v6H7z"></path><path fill-rule="evenodd" clip-rule="evenodd" d="M4.536 20L8.4 23.856 12.267 20H4.536z" fill="#0070E0"></path></svg>