<svg xmlns="http://www.w3.org/2000/svg" xmlns:xlink="http://www.w3.org/1999/xlink" width="32" height="32" viewBox="0 0 32 32" focusable="false" class="mc-icon mc-icon-template-actionable mc-icon-template-actionable--show-deleted-files" role="img"><path fill-rule="evenodd" clip-rule="evenodd" d="M15.5 18a2 2 0 1 0 0-4 2 2 0 0 0 0 4z" class="mc-icon--af"></path><path fill-rule="evenodd" clip-rule="evenodd" d="M23.945 16.534C22.842 18.004 19.48 22 15.5 22s-7.342-3.996-8.445-5.466a.884.884 0 0 1 0-1.068C8.158 13.996 11.52 10 15.5 10s7.342 3.996 8.445 5.466c.24.32.24.749 0 1.068zM22.014 16s-2.91 4-6.5 4-6.5-4-6.5-4 2.91-4 6.5-4 6.5 4 6.5 4z" class="mc-icon--mf"></path></svg>