<svg xmlns="http://www.w3.org/2000/svg" xmlns:xlink="http://www.w3.org/1999/xlink" width="24" height="24" viewBox="-4 -4 24 24"><g stroke="none" stroke-width="1" fill="none" fill-rule="evenodd"><g transform="translate(-8.000000, -8.000000)" fill="#6A7C8F"><path d="M24,15.2 L24,17.1428571 L21.4857143,17.1428571 C21.2888229,17.8170566 21.0206419,
            18.4683533 20.6857143,19.0857143 L22.0571429,21.0285714 L20.6857143,22.4 L18.8571429,
            21.0285714 C18.2754139,21.325336 17.6619932,21.5553687 17.0285714,21.7142857 L16.8,24
            L14.8571429,24 L14.5142857,21.8285714 C13.8530915,21.7734369 13.2201272,21.5360752
            12.6857143,21.1428571 L10.8571429,22.5142857 L9.6,21.1428571 L10.9714286,19.0857143
            C10.6251458,18.4858566 10.3926725,17.8271824 10.2857143,17.1428571 L8,17.0285714
            L8,14.9714286 L10.2857143,14.7428571 C10.4547526,14.0951222 10.7247251,13.4780422
            11.0857143,12.9142857 L9.6,11.0857143 L10.9714286,9.6 L12.8,10.9714286 C13.3973396,
            10.711597 14.0076729,10.4827221 14.6285714,10.2857143 L14.9714286,8 L16.9142857,8
            17.2571429,10.2857143 C17.9212591,10.4043389 18.5478652,10.678479 19.0857143,11.0857143
            L20.9142857,9.6 L22.2857143,10.9714286 L20.9142857,12.9142857 C21.3270172,13.533851
            21.5999981,14.2358018 21.7142857,14.9714286 L24,15.2 Z M16,19.4285714 C17.8935477,
            19.4285714 19.4285714,17.8935477 19.4285714,16 C19.4285714,14.1064523 17.8935477,
            12.5714286 16,12.5714286 C14.1064523,12.5714286 12.5714286,14.1064523 12.5714286,16
            C12.5714286,17.8935477 14.1064523,19.4285714 16,19.4285714 Z"></path></g></g></svg>