<svg width="28" height="28" xmlns="http://www.w3.org/2000/svg" xmlns:svg="http://www.w3.org/2000/svg" class="mc-icon mc-icon-template-actionable mc-icon-template-actionable--upload-file">
 <g class="layer">
  <title>Layer 1</title>
  <g id="svg_4">
   <path class="mc-icon--mf" clip-rule="evenodd" d="m22.38497,7a1.5,1.5 0 0 0 -1.5,-1.5l-11,0a1.5,1.5 0 0 0 -1.5,1.5l0,3.5l2,0l0,-3l10,0l0,12l-8,0l0,2l8.5,0a1.5,1.5 0 0 0 1.5,-1.5l0,-13z" fill="#0070E0" fill-rule="evenodd" id="svg_1"/>
   <path class="mc-icon--af" clip-rule="evenodd" d="m12.38497,10.5l6,0l0,1l-6,0l0,-1zm0,2l6,0l0,1l-6,0l0,-1zm6,2l-3,0l0,1l3,0l0,-1z" fill="#0070E0" fill-rule="evenodd" id="svg_2"/>
   <path class="mc-icon--mf" clip-rule="evenodd" d="m9.29497,13.057a0.5,0.5 0 0 0 -0.82,0l-2.815,4.021a0.25,0.25 0 0 0 0.205,0.393l1.52,0l0,5.029l3,0l0,-5.029l1.52,0a0.25,0.25 0 0 0 0.205,-0.393l-2.815,-4.021z" fill="#0070E0" fill-rule="evenodd" id="svg_3"/>
  </g>
 </g>
</svg>