<svg width="28" height="28" xmlns="http://www.w3.org/2000/svg" xmlns:svg="http://www.w3.org/2000/svg" class="mc-icon mc-icon-template-actionable mc-icon-template-actionable--upload-folder">
 <g class="layer">
  <title>Layer 1</title>
  <g id="svg_3">
   <path class="mc-icon--mf" clip-rule="evenodd" d="m23.38497,9.5a1.5,1.5 0 0 0 -1.5,-1.5l-6.5,0l-2,-2l-4.5,0a1.5,1.5 0 0 0 -1.5,1.5l0,2.5l14,0l0,9l-10,0l0,2l10.5,0a1.5,1.5 0 0 0 1.5,-1.5l0,-10z" fill="#0070E0" fill-rule="evenodd" id="svg_1"/>
   <path class="mc-icon--mf" clip-rule="evenodd" d="m8.29497,12.557a0.5,0.5 0 0 0 -0.82,0l-2.815,4.021a0.25,0.25 0 0 0 0.205,0.393l1.52,0l0,5.029l3,0l0,-5.029l1.52,0a0.25,0.25 0 0 0 0.205,-0.393l-2.815,-4.021z" fill="#0070E0" fill-rule="evenodd" id="svg_2"/>
  </g>
 </g>
</svg>