<svg width="28" height="28" xmlns="http://www.w3.org/2000/svg" xmlns:svg="http://www.w3.org/2000/svg">
 <g class="layer">
  <title>Layer 1</title>
  <path d="m17.53506,15.89536c2.10303,-1.22658 3.53566,-3.48178 3.53566,-6.0873c0,-3.89914 -3.17237,-7.07072 -7.07072,-7.07072c-3.89914,0 -7.07072,3.17158 -7.07072,7.07072c0,2.60553 1.43224,4.86079 3.53539,6.08737c-3.81007,1.40092 -6.46467,5.0123 -6.46467,9.36724l1.61618,0c0,-4.70171 3.68289,-8.38382 8.38382,-8.38382c4.77895,0 8.38382,3.6048 8.38382,8.38382l1.61618,0c0,-4.35507 -2.65461,-7.96645 -6.46493,-9.3673l-0.00001,-0.00001zm-8.98967,-6.08737c0,-3.00743 2.44717,-5.45461 5.45461,-5.45461c3.00822,0 5.45461,2.44717 5.45461,5.45461s-2.44645,5.45461 -5.45461,5.45461c-3.00743,0 -5.45461,-2.44717 -5.45461,-5.45461z" fill="#0070E0" id="svg_1"/>
 </g>
</svg>