<svg xmlns="http://www.w3.org/2000/svg" xmlns:xlink="http://www.w3.org/1999/xlink" width="32" height="32" viewBox="0 0 32 32" focusable="false" class="mc-icon mc-icon-template-actionable mc-icon-template-actionable--view-folder-history" role="img"><path fill-rule="evenodd" clip-rule="evenodd" d="M24 11.5a1.5 1.5 0 0 0-1.5-1.5H16l-2-2H9.5A1.5 1.5 0 0 0 8 9.5V13h2v-1h12v9h-4v2h4.5a1.5 1.5 0 0 0 1.5-1.5v-10z" class="mc-icon--mf"></path><path fill-rule="evenodd" clip-rule="evenodd" d="M11.5 24a4.5 4.5 0 1 0 0-9 4.5 4.5 0 0 0 0 9zm.5-5h2v1h-3v-3h1v2z" class="mc-icon--mf"></path></svg>