<svg xmlns="http://www.w3.org/2000/svg" xmlns:xlink="http://www.w3.org/1999/xlink" width="40" height="40" viewBox="0 0 40 40" focusable="false" class="mc-icon mc-icon-template-content mc-icon-template-content--xls-small share-page-file-row__file-icon u-l-ib u-l-ib--m u-mar-right-xs mu-mar-right-2x" role="img" aria-label="INFORMACIÓN SNI 2017 FINAL.xlsx"><path fill-rule="evenodd" clip-rule="evenodd" d="M8 6.5A1.5 1.5 0 0 1 9.5 5h21A1.5 1.5 0 0 1 32 6.5v27a1.5 1.5 0 0 1-1.5 1.5h-21A1.5 1.5 0 0 1 8 33.5v-27z" fill="#F7F9FA" filter="url(#mc-content-xls-small-a)"></path><path d="M13 14l8-1v14l-8-1V14z" fill="#217346"></path><path d="M20 14h6a1 1 0 0 1 1 1v9a1 1 0 0 1-1 1h-6V14z" fill="#217346"></path><path fill="#fff" d="M21 15h5v9h-5z"></path><path fill="#217346" d="M21 21h1v-1h-1zM21 23h1v-1h-1zM21 19h1v-1h-1zM20 17h2v-1h-2zM23 21h2v-1h-2zM23 23h2v-1h-2zM23 19h2v-1h-2zM23 17h2v-1h-2z"></path><path d="M16.333 17H15l1.333 3L15 23h1.333L17 21l.667 2H19l-1.333-3L19 17h-1.333L17 19l-.667-2z" fill="#fff"></path><defs><filter id="mc-content-xls-small-a" x="8" y="5" width="24" height="31" filterUnits="userSpaceOnUse" color-interpolation-filters="sRGB"><feFlood flood-opacity="0" result="BackgroundImageFix"></feFlood><feColorMatrix in="SourceAlpha" values="0 0 0 0 0 0 0 0 0 0 0 0 0 0 0 0 0 0 127 0"></feColorMatrix><feOffset dy="1"></feOffset><feColorMatrix values="0 0 0 0 0.858859 0 0 0 0 0.871766 0 0 0 0 0.884673 0 0 0 1 0"></feColorMatrix><feBlend in2="BackgroundImageFix" result="effect1_dropShadow"></feBlend><feBlend in="SourceGraphic" in2="effect1_dropShadow" result="shape"></feBlend></filter></defs></svg>