<svg width="24" height="24" xmlns="http://www.w3.org/2000/svg" xmlns:svg="http://www.w3.org/2000/svg">
 <title>book_3_fill</title>
 <g>
  <title>Layer 1</title>
  <g fill-rule="evenodd" fill="none" id="页面-1">
   <g id="Education">
    <g id="book_3_fill">
     <path fill-rule="nonzero" id="MingCute" d="m24,0l0,24l-24,0l0,-24l24,0zm-11.40651,23.25784l-0.01155,0.00167l-0.07106,0.03553l-0.019,0.00371l0,0l-0.01516,-0.00371l-0.07107,-0.03553c-0.00983,-0.00314 -0.0186,-0.00049 -0.02351,0.0054l-0.00411,0.01092l-0.01709,0.42728l0.00495,0.02039l0.01101,0.01221l0.10358,0.07398l0.01487,0.00392l0,0l0.01177,-0.00392l0.10357,-0.07398l0.0126,-0.01604l0,0l0.00336,-0.01656l-0.01709,-0.42728c-0.00199,-0.01013 -0.00855,-0.01653 -0.01607,-0.01799l0,0zm0.2649,-0.11255l-0.01384,0.00202l-0.18471,0.09235l-0.00996,0.01025l0,0l-0.00269,0.0112l0.0179,0.42953l0.00484,0.01278l0,0l0.00846,0.00707l0.20095,0.09275c0.01209,0.00366 0.02289,-0.00025 0.02849,-0.00801l0.00399,-0.01407l-0.03414,-0.61463c-0.00239,-0.01194 -0.01027,-0.01953 -0.01929,-0.02124l0,0zm-0.71534,0.00202c-0.00983,-0.00492 -0.02087,-0.00205 -0.02741,0.00529l-0.00572,0.01393l-0.03415,0.61463c-0.00064,0.0115 0.00704,0.0207 0.01688,0.02341l0.01561,-0.00133l0.20095,-0.09275l0.00944,-0.00806l0,0l0.00385,-0.01179l0.0179,-0.42953l-0.00316,-0.01259l0,0l-0.00949,-0.00886l-0.1847,-0.09235z"/>
     <path fill="#ffffff" id="形状" d="m3.25489,3.6673c-0.56155,-0.65514 -0.09607,-1.6673 0.76685,-1.6673l12.47826,0c2.4853,0 4.5,2.01472 4.5,4.5c0,2.48528 -2.0147,4.5 -4.5,4.5l-12.47826,0c-0.86298,0 -1.32836,-1.0122 -0.76685,-1.6673l0.75457,-0.88033c0.96297,-1.12346 0.96297,-2.78128 0,-3.90474l-0.75457,-0.88033zm-0.25489,12.8327c0,-2.4853 2.01472,-4.5 4.5,-4.5l12.4783,0c0.8629,0 1.3283,1.0122 0.7668,1.6673l-0.7546,0.8803c-0.9629,1.1235 -0.9629,2.7813 0,3.9048l0.7546,0.8803c0.5615,0.6551 0.0961,1.6673 -0.7668,1.6673l-12.4783,0c-2.48528,0 -4.5,-2.0147 -4.5,-4.5z"/>
    </g>
   </g>
  </g>
 </g>
</svg>