<svg width="24" height="24" xmlns="http://www.w3.org/2000/svg" xmlns:svg="http://www.w3.org/2000/svg">
 <title>hotkey_fill</title>
 <g>
  <title>Layer 1</title>
  <g fill-rule="evenodd" fill="none">
   <g stroke="null" id="hotkey_fill">
    <path stroke="null" fill-rule="nonzero" id="MingCute" d="m27.46875,-3.53125l0,31.0625l-31.0625,0l0,-31.0625l31.0625,0zm-14.76311,30.10194l-0.01495,0.00216l-0.09197,0.04599l-0.02459,0.0048l0,0l-0.01962,-0.0048l-0.09198,-0.04599c-0.01272,-0.00406 -0.02407,-0.00063 -0.03043,0.00699l-0.00532,0.01413l-0.02212,0.55302l0.00641,0.02639l0.01425,0.0158l0.13406,0.09575l0.01925,0.00507l0,0l0.01523,-0.00507l0.13405,-0.09575l0.01631,-0.02076l0,0l0.00435,-0.02143l-0.02212,-0.55302c-0.00258,-0.01311 -0.01107,-0.02139 -0.0208,-0.02328l0,0l-0.00001,0zm0.34285,-0.14567l-0.01791,0.00261l-0.23906,0.11953l-0.01289,0.01327l0,0l-0.00348,0.0145l0.02317,0.55593l0.00626,0.01654l0,0l0.01095,0.00915l0.26008,0.12004c0.01565,0.00474 0.02963,-0.00032 0.03687,-0.01037l0.00516,-0.01821l-0.04419,-0.7955c-0.00309,-0.01545 -0.01329,-0.02528 -0.02497,-0.02749l0,0l0.00001,0zm-0.92584,0.00261c-0.01272,-0.00637 -0.02701,-0.00265 -0.03548,0.00685l-0.0074,0.01803l-0.0442,0.7955c-0.00083,0.01488 0.00911,0.02679 0.02185,0.0303l0.0202,-0.00172l0.26008,-0.12004l0.01222,-0.01043l0,0l0.00498,-0.01526l0.02317,-0.55593l-0.00409,-0.01629l0,0l-0.01228,-0.01147l-0.23905,-0.11953l0,-0.00001z"/>
    <path stroke="null" fill-rule="nonzero" fill="#000" d="m19.70313,0.35156c2.14448,0 3.88281,1.7384 3.88281,3.88281l0,15.53125c0,2.14448 -1.73834,3.88281 -3.88281,3.88281l-15.53125,0c-2.14441,0 -3.88281,-1.73834 -3.88281,-3.88281l0,-15.53125c0,-2.14441 1.7384,-3.88281 3.88281,-3.88281l15.53125,0zm-3.50307,17.74135c-0.50684,0.24255 -1.07463,0.37844 -1.67401,0.37844l-11.64844,0l0,1.29427c0,0.71483 0.57947,1.29427 1.29427,1.29427l14.99516,0l-2.96699,-2.96699l0.00001,0.00001zm3.50307,-15.15281l-1.29427,0l0,11.64844c0,0.59938 -0.1359,1.16717 -0.37844,1.67401l2.96699,2.96699l0,-14.99516c0,-0.7148 -0.57945,-1.29427 -1.29427,-1.29427l-0.00001,-0.00001zm-11.64844,2.58854c-0.7148,0 -1.29427,0.57947 -1.29427,1.29427l0,0l0,5.17708c0,0.71483 0.57947,1.29427 1.29427,1.29427c0.7148,0 1.29427,-0.57945 1.29427,-1.29427l0,0l0,-0.1702l1.87061,1.24716c0.59472,0.39644 1.39833,0.23569 1.79489,-0.35903c0.39644,-0.59472 0.23569,-1.39833 -0.35903,-1.79489l0,0l-1.78208,-1.18801l1.78208,-1.18808c0.59472,-0.3965 0.75547,-1.20007 0.35903,-1.79483c-0.39656,-0.59476 -1.20018,-0.75547 -1.79489,-0.35897l0,0l-1.87061,1.24707l0,-0.81731c0,-0.7148 -0.57947,-1.29427 -1.29427,-1.29427l0,0.00001z"/>
   </g>
  </g>
 </g>
</svg>