<svg width="24" height="24" xmlns="http://www.w3.org/2000/svg" xmlns:svg="http://www.w3.org/2000/svg">
 <title>mark_pen_fill</title>
 <g>
  <title>Layer 1</title>
  <rect stroke="null" id="svg_5" height="8.78027" width="12.81445" y="4.1206" x="5.71143" stroke-width="5" fill="#00ff7f"/>
  <g id="svg_1" fill="none" fill-rule="evenodd">
   <g id="Design" stroke="null">
    <g id="mark_pen_fill" stroke="null">
     <path id="svg_2" d="m26.25,-2.25l0,28.5l-28.5,0l0,-28.5l28.5,0zm-13.54523,27.61868l-0.01372,0.00198l-0.08438,0.04219l-0.02256,0.00441l0,0l-0.018,-0.00441l-0.0844,-0.04219c-0.01167,-0.00373 -0.02209,-0.00058 -0.02792,0.00641l-0.00488,0.01297l-0.02029,0.50739l0.00588,0.02421l0.01307,0.0145l0.123,0.08785l0.01766,0.00465l0,0l0.01398,-0.00465l0.12299,-0.08785l0.01496,-0.01905l0,0l0.00399,-0.01966l-0.02029,-0.50739c-0.00236,-0.01203 -0.01015,-0.01963 -0.01908,-0.02136l0,0l-0.00001,0zm0.31457,-0.13365l-0.01643,0.0024l-0.21934,0.10967l-0.01183,0.01217l0,0l-0.00319,0.0133l0.02126,0.51007l0.00575,0.01518l0,0l0.01005,0.0084l0.23863,0.11014c0.01436,0.00435 0.02718,-0.0003 0.03383,-0.00951l0.00474,-0.01671l-0.04054,-0.72987c-0.00284,-0.01418 -0.0122,-0.02319 -0.02291,-0.02522l0,0l-0.00002,-0.00002zm-0.84947,0.0024c-0.01167,-0.00584 -0.02478,-0.00243 -0.03255,0.00628l-0.00679,0.01654l-0.04055,0.72987c-0.00076,0.01366 0.00836,0.02458 0.02004,0.0278l0.01854,-0.00158l0.23863,-0.11014l0.01121,-0.00957l0,0l0.00457,-0.014l0.02126,-0.51007l-0.00375,-0.01495l0,0l-0.01127,-0.01052l-0.21933,-0.10967l-0.00001,0.00001z" fill-rule="nonzero" stroke="null"/>
     <path id="svg_3" d="m0.125,12c0,-6.55838 5.31662,-11.875 11.875,-11.875c6.55832,0 11.875,5.31662 11.875,11.875c0,6.55832 -5.31667,11.875 -11.875,11.875c-6.55838,0 -11.875,-5.31667 -11.875,-11.875zm6.23075,7.64227l0.54712,-3.28272c0.19087,-1.14522 1.18169,-1.98455 2.34269,-1.98455l5.50885,0c1.16102,0 2.15187,0.83932 2.3427,1.98455l0.5472,3.28272c-1.57819,1.16743 -3.53067,1.85772 -5.64431,1.85772c-2.11375,0 -4.06615,-0.69029 -5.64425,-1.85772zm2.08175,-7.64216l0,-2.72063c0,-0.22489 0.12706,-0.43049 0.32821,-0.53106l5.93751,-2.96875c0.39472,-0.1974 0.85927,0.08968 0.85927,0.53106l0,5.68938l-7.125,0l0.00001,0z" fill="#000" stroke="null"/>
    </g>
   </g>
  </g>
 </g>
</svg>