<svg width="24" height="24" xmlns="http://www.w3.org/2000/svg" xmlns:svg="http://www.w3.org/2000/svg">
 <g>
  <title>Layer 1</title>
  <path id="svg_2" d="m0,-0.0625l24,0l0,24l-24,0l0,-24z" fill="none"/>
  <path fill="#faacc1" id="svg_3" d="m1.5375,1.5375l20.925,0a1.1625,1.1625 0 0 1 1.1625,1.1625l0,18.6a1.1625,1.1625 0 0 1 -1.1625,1.1625l-20.925,0a1.1625,1.1625 0 0 1 -1.1625,-1.1625l0,-18.6a1.1625,1.1625 0 0 1 1.1625,-1.1625zm4.65,14.53125l0,-4.65l2.325,2.325l2.325,-2.325l0,4.65l2.325,0l0,-8.1375l-2.325,0l-2.325,2.325l-2.325,-2.325l-2.325,0l0,8.1375l2.325,0zm12.7875,-3.4875l0,-4.65l-2.325,0l0,4.65l-2.325,0l3.4875,3.4875l3.4875,-3.4875l-2.325,0z"/>
 </g>
</svg>