<svg width="307" height="326" viewBox="0 0 307 326" fill="none" xmlns="http://www.w3.org/2000/svg">
<path d="M56.7435 115.617C66.5428 111.438 75.7136 108.946 81.7785 107.308C83.746 106.77 85.4519 106.308 86.8103 105.887C89.1923 105.157 96.4089 100.564 104.072 95.7152C111.987 90.6976 120.928 85.0298 126.557 82.3045C126.605 82.2886 126.656 82.2503 126.703 82.2344C126.838 80.9781 127.609 80.0408 128.942 79.4798C129.791 79.1229 130.836 78.9763 131.901 79.0148C123.504 71.3225 118.895 59.7536 120.625 47.6564C123.406 28.216 141.494 14.6548 160.934 17.4353C180.375 20.2158 193.936 38.3037 191.155 57.744C190.44 62.7436 188.711 67.3477 186.22 71.3872C189.03 70.5363 191.724 69.8512 194.262 69.4626C194.843 68.589 195.605 68.0375 196.517 67.8719C197.591 67.6839 198.835 68.0668 199.986 68.9374C200.391 68.3349 201.15 67.9651 202.09 67.9174C203.694 67.8508 205.91 68.7599 206.988 70.941C210.227 72.3382 211.805 73.8849 213.785 75.808C215.682 77.6736 218.06 79.9953 222.823 82.9997C231.081 88.1666 245.157 98.8348 246.953 111.915C246.969 111.962 246.962 112.007 246.934 112.049L246.605 111.956L214.893 103.093C214.408 104.253 213.837 105.379 213.155 106.488L221.44 138.854C222.112 141.478 221.828 144.262 220.638 146.688L219.356 149.283C221.907 163.929 224.332 177.554 225.367 182.576C226.865 189.783 225.762 202.425 224.676 214.638C223.849 224.085 222.999 233.848 223.419 240.627C224.424 256.532 238.744 275.526 245.098 281.742C249.175 285.718 249.114 285.983 246.3 299.292C245.668 302.276 244.889 305.968 243.986 310.531C242.675 317.154 240.761 321.458 238.28 323.358C237.731 323.849 237.259 324.123 236.842 324.177C236.72 324.228 236.577 324.276 236.437 324.301C235.748 324.499 235.062 324.515 234.437 324.425C232.429 324.138 230.838 322.681 230.124 321.941C226.824 318.417 225.875 313.749 224.877 308.777C224.371 306.268 223.852 303.688 222.988 301.287C221.512 297.113 212.028 286.031 203.679 276.25C197.944 269.531 192.518 263.198 189.875 259.38C183.515 250.18 184.32 204.265 184.426 199.224L173.585 200.178C169.459 200.522 157.105 205.52 154.398 206.613C154.857 207.066 155.46 207.949 155.268 209.288C155.029 210.962 153.112 212.1 152.375 212.473C153.309 214.862 159.738 231.383 162.772 238.832C163.598 240.863 162.567 243.927 159.627 248.244C156.862 252.29 152.821 256.814 150.018 259.852C143.518 266.917 138.447 271.954 133.693 271.274C133.336 271.223 133.005 271.153 132.657 271.035C130.983 270.476 129.692 269.312 128.87 267.578C125.204 259.924 131.074 243.409 131.817 241.397C130.934 240.245 125.202 232.707 120.427 223.733C113.462 210.643 111.732 200.921 115.289 194.847C119.722 187.259 127.376 181.042 134.13 175.54C137.664 172.652 140.91 170.019 143.197 167.567L143.929 132.505C143.21 127.824 142.493 123.759 142.066 121.329C141.862 120.207 141.11 119.256 140.08 118.813C140.058 118.81 140.032 118.829 139.987 118.822C139.965 118.819 139.965 118.819 139.943 118.816C139.876 118.806 139.815 118.752 139.777 118.701C139.082 118.465 138.352 118.475 137.66 118.695C137.634 118.714 137.612 118.71 137.59 118.707C137.255 118.819 136.933 119 136.63 119.208C107.629 141.07 76.3334 139.965 67.6384 137.856C65.3714 137.304 64.4118 136.688 63.5318 136.152C62.7156 135.648 62.0684 135.237 60.4869 134.988C59.661 135.189 59.0711 135.492 58.2834 135.903C56.7847 136.668 54.5206 137.847 48.4301 139.504C48.8572 140.34 48.9496 141.127 48.6848 141.864C48.1584 143.474 46.2324 144.201 46.159 144.236C41.2515 146.221 35.0063 138.609 33.9256 137.248C33.1603 137.503 30.6827 138.264 27.6854 138.359C25.6479 138.432 24.2098 138.295 23.4033 137.405C22.7752 136.7 22.5969 135.559 22.8427 133.84C23.4491 130.237 39.5016 122.944 56.7435 115.617ZM132.373 45.4646C132.271 45.3817 132.165 45.3211 132.086 45.2413C132.188 45.3243 132.267 45.404 132.373 45.4646ZM137.891 32.6793C135.557 34.6686 130.496 38.8416 130.578 42.4064C130.496 38.8416 135.557 34.6686 137.891 32.6793ZM130.578 42.4064C130.584 42.6807 130.613 42.9581 130.689 43.2195C130.613 42.9581 130.584 42.6807 130.578 42.4064ZM130.689 43.2195C130.766 43.481 130.865 43.7457 131.011 43.9944C130.861 43.768 130.763 43.5033 130.689 43.2195ZM131.008 44.0167C131.097 44.1889 131.212 44.342 131.346 44.5206C131.231 44.3675 131.12 44.1921 131.008 44.0167ZM131.368 44.5238C131.426 44.6003 131.505 44.6801 131.585 44.7598C131.505 44.6801 131.426 44.6003 131.368 44.5238ZM131.582 44.7821C131.741 44.9415 131.901 45.101 132.086 45.2413C131.882 45.0755 131.719 44.9384 131.582 44.7821ZM138.593 32.0736L138.567 32.0927L138.593 32.0736ZM138.462 32.1915C138.459 32.2138 138.436 32.2106 138.433 32.233C138.436 32.2106 138.439 32.1883 138.462 32.1915ZM138.305 32.3286C138.28 32.3477 138.28 32.3477 138.254 32.3669C138.28 32.3477 138.283 32.3254 138.305 32.3286ZM138.175 32.4466C138.149 32.4657 138.146 32.488 138.124 32.4848C138.127 32.4625 138.149 32.4657 138.175 32.4466ZM137.996 32.5805C137.971 32.5996 137.942 32.641 137.894 32.657C137.942 32.641 137.967 32.6219 137.996 32.5805ZM138.962 31.7165C138.94 31.7133 138.94 31.7133 138.962 31.7165C138.94 31.7133 138.94 31.7133 138.962 31.7165ZM138.886 31.7739C138.883 31.7962 138.883 31.7962 138.886 31.7739C138.883 31.7962 138.883 31.7962 138.886 31.7739ZM190.508 57.6515C193.237 38.5682 179.944 20.8375 160.861 18.1081C141.777 15.3787 124.047 28.6721 121.317 47.7553C119.574 59.9418 124.374 71.6065 133.046 79.133C134.114 79.3085 135.109 79.6785 135.833 80.192C136.266 79.7074 136.856 79.4046 137.532 79.2963C138.926 79.1084 140.673 79.7911 142.474 81.2103C144.458 81.5167 146.1 81.6605 148.957 81.5908C149.505 81.5782 150.057 81.5432 150.608 81.5082C150.653 80.7174 151.186 79.7004 152.178 78.4984C152.452 78.1732 152.752 77.8289 153.096 77.491C150.835 78.0103 149.216 78.0292 148.1 77.8696C147.72 77.8153 147.389 77.7451 147.105 77.659C144.857 76.9731 142.316 72.2822 140.997 69.5653C140.662 68.8797 139.977 68.4173 139.173 68.3024C137.923 68.1236 136.383 67.9033 135.357 66.481C134.158 64.8292 133.97 61.8414 134.768 57.3775C134.922 56.4656 134.829 55.678 134.463 55.0562C133.344 53.1652 131.623 49.5937 132.197 46.2139C131.052 45.458 130.338 44.5587 130.036 43.4905C128.882 39.4535 134.275 34.8724 137.18 32.3954C137.492 32.1212 137.83 31.8279 138.089 31.6143C137.824 31.2348 137.607 30.68 137.439 29.9498C137.257 29.1494 137.139 28.0621 137.28 27.3989C137.426 26.691 137.908 26.5094 138.265 26.5604C138.667 26.6179 138.893 26.9464 138.992 27.0516L139.011 27.0771L139.03 27.1026C140.082 28.6652 141.243 29.4689 142.805 29.6924C143.854 29.8424 144.964 29.7278 146.124 29.575C147.374 29.4349 148.672 29.2789 149.967 29.464C150.324 29.5151 150.655 29.5853 150.984 29.6778C153.04 30.268 154.306 31.1324 155.065 31.8786C155.327 29.7295 155.61 29.3374 155.869 29.1238C156.047 28.9899 156.261 28.9294 156.462 28.9581C157.087 29.0475 157.281 29.7586 157.444 30.5334C158.244 33.381 159.646 33.7638 161.773 34.3413C163.396 34.7784 165.433 35.3431 167.531 37.2375C171.507 40.8126 171.455 43.5611 171.385 47.4002C171.365 48.3312 171.343 49.2846 171.375 50.3369C171.524 55.5056 175.131 66.2708 175.517 67.3965C181.744 67.6494 183.976 70.6789 184.626 71.8652C184.84 71.8046 185.053 71.7441 185.248 71.658C187.93 67.5548 189.771 62.8073 190.508 57.6515Z" fill="white"/>
<path d="M183.604 36.8256C183.53 36.8607 183.46 36.8734 183.393 36.8638C183.304 36.8511 183.199 36.7904 183.144 36.6916C180.801 32.6895 177.54 29.2166 173.724 26.5982C173.58 26.4866 173.542 26.2761 173.631 26.1295C173.743 25.986 173.953 25.9478 174.1 26.0371C178.003 28.6906 181.318 32.2624 183.718 36.341C183.808 36.5132 183.757 36.7108 183.604 36.8256Z" fill="white"/>
<path d="M172.665 25.8774C172.62 25.871 172.576 25.8646 172.512 25.8327C172.512 25.8327 172.49 25.8296 172.493 25.8072C172.493 25.8072 172.47 25.804 172.474 25.7817C172.206 25.584 172.333 25.3289 172.359 25.3098C172.384 25.2907 172.534 25.0388 172.831 25.1951C172.831 25.1951 172.853 25.1983 172.85 25.2206C172.847 25.2429 172.872 25.2238 172.869 25.2461C173.159 25.447 173.013 25.6766 173.006 25.7212C172.981 25.7404 172.866 25.9061 172.665 25.8774Z" fill="white"/>
<path d="M154.478 60.5152C154.501 60.5183 154.545 60.5247 154.568 60.5279C155.218 60.4387 155.779 60.0179 156.051 59.3962C156.335 58.6852 156.242 57.8976 155.777 57.33C155.487 56.9696 154.836 56.4211 153.529 56.4846C153.931 55.5855 154.62 54.5908 155.784 54.4156C155.969 54.3965 156.109 54.2116 156.067 54.0235C156.048 53.8385 155.863 53.6982 155.675 53.7396C153.029 54.0899 152.435 57.6037 152.413 57.7599C152.394 57.8938 152.445 58.015 152.547 58.0979C152.63 58.1553 152.735 58.2159 152.814 58.2956C153.522 58.7613 154.144 59.1918 154.179 60.2217C154.188 60.3142 154.22 60.4099 154.303 60.4673C154.348 60.4737 154.412 60.5056 154.478 60.5152ZM154.138 57.1639C154.607 57.2309 154.989 57.4223 155.241 57.7316C155.55 58.1175 155.611 58.65 155.407 59.1219C155.273 59.4216 155.081 59.6448 154.813 59.7659C154.629 58.669 153.879 58.1746 153.194 57.7122C153.175 57.6867 153.13 57.6803 153.111 57.6548C153.13 57.5209 153.175 57.3678 153.248 57.1733C153.574 57.1287 153.87 57.1256 154.138 57.1639Z" fill="#00112C"/>
<path d="M143.575 53.0108C141.12 52.3408 136.975 51.7024 136.484 52.9076C135.992 54.1128 133.423 50.42 136.679 49.9518C139.934 49.4836 143.575 53.0108 143.575 53.0108Z" fill="#00112C"/>
<path d="M139.605 56.9982C139.186 56.1635 139.172 55.3238 139.572 55.1228C139.973 54.9217 140.637 55.4355 141.056 56.2702C141.475 57.105 141.49 57.9446 141.089 58.1457C140.688 58.3467 140.024 57.833 139.605 56.9982Z" fill="#00112C"/>
<path d="M139.282 66.7688C139.349 66.7784 139.419 66.7656 139.493 66.7306C139.738 66.6062 140.076 66.4724 140.389 66.3576C140.727 66.2238 141.065 66.0899 141.336 65.9465C141.508 65.8572 141.559 65.6595 141.492 65.4905C141.403 65.3183 141.205 65.2673 141.036 65.3342C140.791 65.4585 140.453 65.5924 140.14 65.7071C139.802 65.841 139.464 65.9749 139.193 66.1183C139.021 66.2076 138.97 66.4052 139.037 66.5742C139.088 66.6954 139.171 66.7528 139.282 66.7688Z" fill="#00112C"/>
<path d="M150.925 211.172C151.037 211.188 151.155 211.159 151.216 211.054C151.35 210.914 151.334 210.707 151.193 210.573C148.834 208.436 146.057 207.15 141.909 206.215C141.734 206.168 141.555 206.301 141.507 206.477C141.459 206.652 141.593 206.831 141.768 206.879C145.808 207.775 148.477 209.022 150.756 211.079C150.817 211.134 150.881 211.166 150.925 211.172Z" fill="#00112C"/>
<path d="M61.0885 133.525C61.2225 133.544 61.3436 133.493 61.4298 133.369C61.4585 133.327 61.4871 133.286 61.519 133.222C64.4788 128.771 65.5126 124.728 64.464 121.868C63.6577 119.703 61.7129 118.172 58.6488 117.301C58.4734 117.253 58.2757 117.361 58.2279 117.537C58.18 117.712 58.2884 117.91 58.4637 117.958C61.2887 118.749 63.09 120.168 63.8135 122.116C64.6485 124.4 64.0422 127.524 62.0583 131.044C63.8642 123.832 61.9356 121.073 59.8951 120.053C59.7261 119.96 59.5316 120.046 59.4423 120.193C59.3498 120.362 59.4359 120.556 59.5825 120.646C62.4297 122.078 62.8562 126.261 60.8527 132.785C60.808 132.938 60.7698 133.046 60.7602 133.113C60.7155 133.266 60.8016 133.461 60.9514 133.528C61.0216 133.515 61.0439 133.518 61.0885 133.525Z" fill="#00112C"/>
<path d="M165.845 102.705L166.31 104.548L177.333 103.278L176.868 101.435L165.845 102.705ZM177.547 104.014L178.012 105.857L166.989 107.128L166.524 105.285L177.547 104.014ZM178.203 106.591L178.668 108.434L167.645 109.704L167.18 107.861L178.203 106.591Z" fill="#00112C"/>
<path d="M169.827 80.1116L170.859 84.1996C170.945 84.5535 171.299 84.7864 171.669 84.7482L174.032 84.4711C174.472 84.4202 174.762 83.9834 174.663 83.5593L173.631 79.4714C173.545 79.1174 173.191 78.8846 172.821 78.9228L170.458 79.1998C170.018 79.2508 169.728 79.6875 169.827 80.1116ZM170.8 91.6162L168.438 91.8932C168.068 91.9314 167.736 91.7018 167.628 91.3447L166.595 87.2567C166.474 86.8294 166.787 86.3958 167.227 86.3449L169.59 86.0679C169.96 86.0297 170.291 86.2593 170.4 86.6165L171.432 90.7044C171.553 91.1317 171.241 91.5653 170.8 91.6162ZM165.868 92.1862L163.505 92.4632C163.135 92.5014 162.803 92.2717 162.695 91.9146L161.663 87.8267C161.541 87.3994 161.854 86.9658 162.294 86.9148L164.657 86.6378C165.027 86.5996 165.358 86.8293 165.467 87.1864L166.499 91.2743C166.62 91.7016 166.308 92.1352 165.868 92.1862ZM177.012 92.6185L178.044 96.7064C178.165 97.1337 177.853 97.5673 177.413 97.6183L175.05 97.8953C174.68 97.9335 174.348 97.7038 174.24 97.3467L173.208 93.2588C173.086 92.8315 173.399 92.3979 173.839 92.3469L176.202 92.0699C176.575 92.0094 176.926 92.2645 177.012 92.6185Z" fill="#00112C"/>
<path d="M166.739 85.3181L169.101 85.0411C169.541 84.9902 169.832 84.5534 169.733 84.1293L168.7 80.0413C168.614 79.6874 168.26 79.4546 167.891 79.4928L165.528 79.7698C165.088 79.8207 164.798 80.2575 164.896 80.6816L165.929 84.7696C166.037 85.1267 166.391 85.3595 166.739 85.3181ZM163.768 80.6113L164.8 84.6992C164.921 85.1265 164.609 85.5601 164.168 85.6111L161.806 85.8881C161.436 85.9263 161.104 85.6966 160.996 85.3395L159.963 81.2516C159.842 80.8243 160.155 80.3907 160.595 80.3397L162.958 80.0627C163.328 80.0245 163.682 80.2573 163.768 80.6113ZM172.162 85.775L174.525 85.498C174.895 85.4598 175.226 85.6894 175.335 86.0466L176.367 90.1345C176.488 90.5618 176.176 90.9954 175.736 91.0464L173.373 91.3234C173.003 91.3616 172.672 91.1319 172.563 90.7748L171.531 86.6868C171.41 86.2596 171.7 85.8228 172.162 85.775ZM172.081 93.1885L173.114 97.2764C173.235 97.7037 172.922 98.1373 172.482 98.1883L170.119 98.4653C169.75 98.5035 169.418 98.2738 169.31 97.9167L168.277 93.8287C168.156 93.4015 168.469 92.9679 168.909 92.9169L171.271 92.6399C171.645 92.5794 171.995 92.8345 172.081 93.1885ZM167.575 98.7391L165.212 99.0161C164.842 99.0543 164.511 98.8246 164.402 98.4675L163.37 94.3796C163.249 93.9523 163.561 93.5187 164.001 93.4677L166.364 93.1907C166.734 93.1525 167.066 93.3821 167.174 93.7393L168.206 97.8272C168.302 98.2737 168.015 98.6881 167.575 98.7391ZM175.772 83.6265L174.74 79.5386C174.619 79.1113 174.931 78.6777 175.371 78.6267L177.734 78.3497C178.104 78.3115 178.435 78.5411 178.544 78.8983L179.576 82.9862C179.697 83.4135 179.385 83.8471 178.945 83.8981L176.582 84.1751C176.212 84.2133 175.858 83.9804 175.772 83.6265ZM180.624 90.47L178.261 90.747C177.891 90.7852 177.56 90.5556 177.451 90.1985L176.419 86.1105C176.298 85.6832 176.61 85.2496 177.05 85.1987L179.413 84.9217C179.783 84.8835 180.115 85.1131 180.223 85.4702L181.255 89.5582C181.377 89.9855 181.064 90.4191 180.624 90.47ZM181.902 92.0422L182.935 96.1302C183.056 96.5575 182.743 96.991 182.303 97.042L179.94 97.319C179.571 97.3572 179.239 97.1276 179.131 96.7704L178.098 92.6825C177.977 92.2552 178.29 91.8216 178.73 91.7707L181.093 91.4936C181.462 91.4554 181.816 91.6883 181.902 92.0422Z" fill="url(#paint0_linear)"/>
<path d="M180.244 148.859C181.271 149.006 182.317 149.019 183.337 148.891C183.522 148.872 183.659 148.71 183.64 148.525C183.621 148.34 183.458 148.203 183.273 148.222C181.213 148.451 179.118 148.129 177.237 147.267C177.065 147.197 176.874 147.261 176.781 147.43C176.711 147.602 176.775 147.793 176.944 147.886C177.99 148.377 179.106 148.696 180.244 148.859Z" fill="#00112C"/>
<path d="M186.302 148.541C186.324 148.544 186.369 148.551 186.391 148.554L216.125 145.131C216.31 145.112 216.447 144.95 216.428 144.765C216.409 144.58 216.247 144.442 216.062 144.462L186.327 147.884C186.143 147.904 186.005 148.066 186.025 148.251C186.024 148.41 186.146 148.519 186.302 148.541Z" fill="#00112C"/>
<path d="M161.351 104.34C161.396 104.346 161.44 104.353 161.488 104.337C161.676 104.295 161.772 104.104 161.731 103.916L158.018 89.4233C157.977 89.2352 157.786 89.1395 157.597 89.1809C157.409 89.2223 157.314 89.4136 157.355 89.6017L161.067 104.094C161.115 104.238 161.217 104.321 161.351 104.34Z" fill="#00112C"/>
<path d="M163.415 112.379C163.46 112.385 163.504 112.392 163.552 112.376C163.74 112.334 163.836 112.143 163.794 111.955L162.275 106.02C162.233 105.832 162.042 105.737 161.854 105.778C161.666 105.82 161.57 106.011 161.611 106.199L163.131 112.133C163.179 112.277 163.281 112.36 163.415 112.379Z" fill="#00112C"/>
<path d="M170.515 140.134C170.56 140.14 170.605 140.146 170.652 140.13C170.84 140.089 170.936 139.898 170.895 139.71L164.554 114.933C164.512 114.745 164.321 114.649 164.133 114.691C163.945 114.732 163.849 114.924 163.89 115.112L170.231 139.888C170.279 140.032 170.381 140.114 170.515 140.134Z" fill="#00112C"/>
<path d="M174.498 146.352C174.61 146.368 174.731 146.317 174.811 146.237C174.922 146.094 174.906 145.886 174.766 145.752C173.931 145.063 173.178 144.273 172.557 143.364C172.442 143.211 172.241 143.182 172.091 143.274C171.938 143.389 171.91 143.59 172.002 143.74C172.665 144.677 173.43 145.538 174.329 146.259C174.39 146.313 174.431 146.342 174.498 146.352Z" fill="#00112C"/>
<path d="M56.7487 115.617C66.548 111.438 75.7188 108.946 81.7837 107.309C83.7512 106.77 85.4571 106.308 86.8155 105.887C89.1975 105.157 96.4141 100.564 104.077 95.7153C111.992 90.6978 120.934 85.03 126.562 82.3047C126.61 82.2888 126.661 82.2505 126.709 82.2346C126.843 80.9783 127.615 80.041 128.948 79.48C131.004 78.6354 134.167 78.9739 135.816 80.189C136.249 79.7044 136.839 79.4016 137.515 79.2933C138.909 79.1054 140.656 79.7881 142.457 81.2073C144.441 81.5137 146.083 81.6575 148.94 81.5878C149.488 81.5751 150.04 81.5402 150.591 81.5052C150.636 80.7144 151.169 79.6973 152.161 78.4954C152.435 78.1702 152.735 77.8259 153.079 77.488C150.818 78.0073 149.198 78.0262 148.083 77.8666C147.703 77.8123 147.371 77.7421 147.088 77.656C144.84 76.97 142.299 72.2792 140.98 69.5623C140.645 68.8767 139.96 68.4143 139.156 68.2993C137.906 68.1206 136.366 67.9003 135.34 66.478C134.141 64.8261 133.953 61.8384 134.751 57.3745C134.904 56.4626 134.812 55.675 134.446 55.0532C133.234 53.0123 131.36 49.0773 132.349 45.5062C125.66 40.6776 139.825 31.771 138.993 31.5381C138.03 31.2637 137.546 27.1631 138.194 27.2557C138.261 27.2653 138.366 27.3259 138.458 27.4758C139.752 29.4146 141.197 30.1451 142.692 30.359C144.991 30.6878 147.44 29.8081 149.851 30.1529C150.163 30.1976 150.472 30.2646 150.778 30.3539C153.336 31.1069 154.521 32.2103 155.07 32.9948C155.127 33.0713 155.191 33.1032 155.28 33.116C155.436 33.1383 155.609 33.0491 155.615 32.845C155.749 31.5887 155.985 29.6182 156.343 29.6693C156.477 29.6885 156.617 29.9818 156.76 30.7312C158.344 36.3784 162.407 33.6114 167.049 37.7828C171.713 41.9575 170.507 44.8143 170.665 50.3943C170.811 55.4259 174.113 65.4641 174.766 67.4252C181.548 67.4614 183.936 70.6727 184.58 71.9036C187.992 70.8201 191.238 69.9406 194.245 69.4596C194.826 68.586 195.588 68.0345 196.5 67.8689C197.574 67.6809 198.818 68.0638 199.969 68.9344C200.374 68.3319 201.133 67.9621 202.073 67.9144C203.677 67.8477 205.893 68.7569 206.97 70.938C210.21 72.3352 211.788 73.8819 213.768 75.8049C215.665 77.6706 218.043 79.9923 222.806 82.9967C231.086 88.1668 245.162 98.8349 246.958 111.915C246.974 111.963 246.968 112.007 246.939 112.049L246.26 111.86C244.416 99.1154 230.604 88.6673 222.5 83.5451C217.673 80.5087 215.276 78.1616 213.36 76.2704C211.542 74.4845 210.082 73.0685 207.305 71.7831C207.672 72.8832 208.016 73.9801 208.319 75.0483C212.769 77.2109 216.024 82.6416 216.836 89.3856C217.451 94.4843 216.621 100.925 213.182 106.492L221.467 138.857C222.14 141.482 221.855 144.265 220.666 146.692L219.383 149.287C221.935 163.932 224.359 177.558 225.395 182.58C226.892 189.786 225.79 202.429 224.704 214.641C223.876 224.089 223.027 233.852 223.446 240.631C224.451 256.536 238.771 275.529 245.125 281.745C249.203 285.722 249.142 285.986 246.327 299.295C245.696 302.28 244.917 305.972 244.014 310.534C242.702 317.157 240.788 321.461 238.307 323.361C237.759 323.852 237.287 324.126 236.869 324.18C236.748 324.231 236.604 324.279 236.464 324.305C235.775 324.502 235.09 324.518 234.465 324.429C232.456 324.141 230.865 322.684 230.151 321.944C226.852 318.42 225.902 313.752 224.905 308.781C224.398 306.271 223.879 303.692 223.015 301.291C221.54 297.116 212.056 286.034 203.706 276.254C197.971 269.534 192.545 263.201 189.902 259.384C183.543 250.184 184.348 204.268 184.454 199.227L173.612 200.182C169.486 200.525 157.133 205.523 154.426 206.616C154.885 207.069 155.487 207.953 155.296 209.292C155.056 210.966 153.14 212.104 152.403 212.477C153.337 214.865 159.765 231.386 162.8 238.835C163.625 240.866 162.595 243.931 159.654 248.247C156.889 252.293 152.848 256.817 150.045 259.855C143.546 266.92 138.475 271.957 133.721 271.277C133.364 271.226 133.032 271.156 132.685 271.038C131.011 270.48 129.719 269.316 128.897 267.581C125.232 259.928 131.101 243.412 131.845 241.4C130.961 240.249 125.23 232.71 120.455 223.737C113.49 210.646 111.76 200.924 115.316 194.85C119.75 187.262 127.403 181.046 134.158 175.543C140.163 170.663 145.319 166.458 146.305 162.75C147.109 159.676 146.674 151.733 145.037 139.769C144.002 132.196 142.759 124.958 142.093 121.332C141.89 120.21 141.137 119.26 140.107 118.816C140.085 118.813 140.06 118.832 140.015 118.826C139.993 118.823 139.993 118.823 139.97 118.819C139.903 118.81 139.843 118.756 139.805 118.705C139.109 118.469 138.379 118.478 137.687 118.698C137.662 118.717 137.639 118.714 137.617 118.711C137.282 118.822 136.96 119.004 136.657 119.211C107.657 141.074 76.3609 139.968 67.666 137.859C65.399 137.307 64.4393 136.692 63.5593 136.156C62.7431 135.652 62.0959 135.24 60.5144 134.991C59.6886 135.192 59.0986 135.495 58.311 135.906C56.8122 136.671 54.5481 137.851 48.4576 139.508C48.8848 140.343 48.9771 141.131 48.7123 141.867C48.186 143.477 46.2599 144.204 46.1866 144.239C41.279 146.225 35.0338 138.613 33.9531 137.251C33.1878 137.506 30.7102 138.268 27.7129 138.363C25.6754 138.436 24.2373 138.298 23.4308 137.409C22.8027 136.704 22.6244 135.562 22.8702 133.844C23.4543 130.238 39.5068 122.945 56.7487 115.617ZM149.003 82.2574C146.558 82.3176 144.998 82.2312 143.366 82.0205C144.842 83.6438 146.327 86.7943 147.254 90.9811C147.449 89.9385 147.775 88.9373 148.231 87.9776L151.022 82.3183C151.054 82.2546 151.085 82.1908 151.117 82.127C150.425 82.1875 149.711 82.2448 149.003 82.2574ZM164.949 66.1577C164.186 68.1441 161.852 68.0608 160.893 67.9235C160.714 67.898 160.603 67.882 160.539 67.8501C160.494 67.8437 160.478 67.7959 160.485 67.7513C160.772 67.1774 162.267 65.6375 161.531 64.5756C161.014 64.8434 160.507 64.8847 160.061 64.8209C158.9 64.6549 158.011 63.7077 157.775 63.4462C157.734 63.4175 157.765 63.3538 157.791 63.3346C159.861 62.4007 160.062 60.9946 159.354 59.5724C158.467 61.632 156.461 62.5978 154.564 62.8048C154.542 62.8016 154.52 62.7984 154.475 62.792C154.319 62.7697 154.201 62.6389 154.175 62.4986C154.156 62.3137 154.293 62.1511 154.478 62.132C157.323 61.8327 159.061 60.0315 159.109 57.3052C159.154 54.7608 157.681 52.4775 155.832 52.1902C154.85 52.0497 153.979 52.2441 153.265 52.7797C151.709 53.9464 151.383 56.3824 151.38 56.4048C151.354 56.5833 151.176 56.7172 150.997 56.6917C150.819 56.6661 150.682 56.5099 150.71 56.309C150.717 56.2644 150.784 55.7957 150.962 55.1835C150.554 55.3301 150.143 55.3396 149.763 55.2853C149.183 55.2023 148.692 54.9726 148.482 54.8514C148.44 54.8227 148.428 54.7526 148.475 54.7366C149.907 53.8026 149.739 50.5216 149.541 48.8762C149.481 48.3437 149.089 47.9004 148.553 47.8238C144.8 47.1504 141.94 45.0104 140.923 44.1589C140.882 44.1302 140.84 44.1015 140.796 44.0951C140.64 44.0727 140.487 44.1875 140.486 44.3469C140.521 46.3334 142.294 47.4752 143.336 47.9888C143.464 48.0525 143.413 48.2502 143.276 48.2534C142.061 48.148 140.961 48.0362 139.957 47.8925C136.676 47.4233 134.409 46.7118 132.917 45.8379C132.128 49.1188 133.862 52.7605 135.004 54.6547C135.463 55.4264 135.58 56.3543 135.402 57.4448C134.629 61.7301 134.772 64.552 135.859 66.0285C136.714 67.2212 138.053 67.4127 139.214 67.5787C140.263 67.7288 141.13 68.3539 141.554 69.2117C141.783 69.6773 142.016 70.1205 142.226 70.5606L146.225 68.3994C146.397 68.3101 146.605 68.4536 146.576 68.6545C146.343 69.6461 145.651 71.9386 143.865 73.4369C145.149 75.4428 146.316 76.6801 147.257 76.9513C148.347 77.2895 150.391 77.4907 153.876 76.5315C153.924 76.5156 153.972 76.4997 154.017 76.5061C156.877 73.8632 161.211 70.9527 165.841 69.1551C165.675 68.562 164.837 67.7361 164.949 66.1577ZM173.347 68.1105C166.479 68.5175 158.736 73.1269 154.501 77.0992C153.819 77.7304 153.229 78.3521 152.76 78.9228C151.908 79.9398 151.42 80.8038 151.353 81.432C151.424 81.4192 151.491 81.4288 151.561 81.4161C153.379 78.4191 156.466 76.4235 159.986 76.016L178.697 73.8636C180.495 73.2326 182.268 72.6207 184.009 72.0725C183.276 70.8289 180.719 67.6845 173.347 68.1105ZM181.799 73.5102L194.19 72.071C194.583 72.036 194.975 72.001 195.361 72.0107C194.943 71.1082 194.58 70.4641 194.357 70.1133C190.511 70.7248 186.273 72.0091 181.799 73.5102ZM199.867 69.6487C198.808 68.7684 197.638 68.3505 196.678 68.5321C195.977 68.6596 195.374 69.0517 194.908 69.7594C195.208 70.2123 195.641 71.0031 196.107 72.049C198.186 72.1642 200.159 72.8564 201.843 73.9855C201.304 72.4963 200.625 71.0326 199.867 69.6487ZM206.4 71.2664C206.384 71.2185 206.387 71.1962 206.393 71.1516C205.431 69.2829 203.537 68.5109 202.162 68.5649C201.359 68.6094 200.769 68.9122 200.517 69.4001C201.327 70.9052 202.015 72.4614 202.63 74.0526C204.298 73.8583 205.953 74.0722 207.506 74.6815C207.184 73.5878 206.801 72.4398 206.4 71.2664ZM209.255 83.6322C208.493 82.2705 207.552 81.2022 206.513 80.5069C206.51 80.5292 206.529 80.5547 206.526 80.577L209.053 90.4589C209.385 88.2971 209.461 86.0077 209.255 83.6322ZM211.23 90.0416C211.027 88.2814 210.6 86.6488 210.029 85.2234C210.099 87.6021 209.91 89.8755 209.47 91.9991L210.84 97.388C211.411 94.8277 211.501 92.2896 211.23 90.0416ZM220.025 146.395C221.151 144.096 221.409 141.491 220.785 139.01L212.662 107.26C211.246 109.358 209.464 111.312 207.193 113.015C206.581 113.474 205.847 113.665 205.111 113.56C204.374 113.454 203.702 113.062 203.265 112.453C202.328 111.203 202.58 109.439 203.83 108.502C207.35 105.863 209.449 102.336 210.508 98.7527L205.888 80.7364C205.831 80.5004 205.751 80.2613 205.671 80.0221C205.649 80.0189 205.649 80.0189 205.63 79.9934C203.72 79.1736 201.552 79.6834 199.131 81.4782C197.881 82.4154 196.118 82.1632 195.181 80.9132C194.722 80.3009 194.53 79.5675 194.636 78.8309C194.741 78.0944 195.133 77.4216 195.742 76.9849C197.528 75.646 199.34 74.7663 201.157 74.3202C199.904 73.526 198.476 73.0028 196.98 72.7889C196.088 72.6612 195.179 72.6452 194.254 72.7407L160.005 76.6792C156.37 77.0931 153.229 79.3087 151.621 82.5863L148.83 88.2456C147.704 90.5443 147.445 93.1494 148.07 95.6302L162.989 153.907C164.302 159.06 169.298 162.508 174.578 161.897L208.828 157.958C212.463 157.544 215.604 155.329 217.211 152.051L220.025 146.395ZM235.783 320.153L238.454 322.335C238.929 321.879 239.427 321.267 239.899 320.514L235.923 317.258C235.805 318.403 235.779 319.378 235.783 320.153ZM235.997 316.426L240.234 319.924C240.597 319.293 240.926 318.588 241.274 317.75L236.345 313.674C236.201 314.678 236.093 315.597 235.997 316.426ZM241.532 317.058C241.794 316.344 242.068 315.54 242.326 314.689L236.91 310.202C236.75 311.158 236.6 312.048 236.482 312.874L241.532 317.058ZM242.518 313.987C242.722 313.197 242.933 312.361 243.13 311.456L237.529 306.828C237.424 307.405 237.293 308.002 237.187 308.579C237.124 308.866 237.082 309.156 237.018 309.443L242.518 313.987ZM243.306 310.707C243.322 310.595 243.36 310.487 243.376 310.375C243.533 309.6 243.683 308.87 243.832 308.14L238.237 303.468C238.046 304.329 237.877 305.193 237.685 306.053L243.306 310.707ZM243.963 307.384C244.139 306.475 244.334 305.592 244.496 304.773L238.958 300.177C238.77 301.016 238.556 301.873 238.365 302.734L243.963 307.384ZM244.649 304.02C244.844 303.137 245.013 302.273 245.173 301.476L239.74 296.941C239.533 297.754 239.322 298.589 239.128 299.472L244.649 304.02ZM245.348 300.727C245.473 300.175 245.572 299.643 245.69 299.136C245.763 298.782 245.833 298.45 245.904 298.118L240.611 293.717C240.407 294.508 240.174 295.34 239.96 296.198L245.348 300.727ZM246.057 297.366C246.258 296.438 246.427 295.574 246.586 294.777L241.498 290.542C241.281 291.262 241.026 292.091 240.784 292.99L246.057 297.366ZM241.814 289.926L246.74 294.024C246.925 293.049 247.094 292.185 247.228 291.407L242.589 287.532C242.385 288.004 242.171 288.543 241.97 289.152C241.894 289.368 241.814 289.607 241.734 289.847C241.773 289.898 241.814 289.926 241.814 289.926ZM247.362 290.629C247.442 289.433 247.41 288.381 247.26 287.517L244.27 285.016C243.83 285.386 243.355 286.001 242.905 286.916L247.362 290.629ZM247.006 286.432C246.674 285.406 246.177 284.742 245.606 284.592C245.386 284.538 245.156 284.551 244.892 284.65L247.006 286.432ZM236.474 323.441C236.534 323.495 236.624 323.508 236.716 323.498C237.102 323.348 237.523 323.112 237.934 322.784L235.814 321.046C235.903 322.812 236.267 323.297 236.474 323.441ZM190.483 258.988C191.952 261.135 194.312 264.069 197.114 267.407C197.372 267.034 197.589 266.633 197.701 266.17C198.556 263.218 196.27 259.292 194.421 256.135C194.055 255.514 193.707 254.917 193.42 254.375C193.424 254.353 193.401 254.35 193.404 254.327C192.385 251.425 190.689 246.559 187.59 245.296C187.332 245.191 187.089 245.134 186.825 245.073C187.649 251.409 188.803 256.562 190.483 258.988ZM162.216 239.093C158.946 231.064 151.768 212.614 151.705 212.422C151.638 212.253 151.711 212.059 151.88 211.992C151.906 211.973 154.438 210.832 154.674 209.18C154.904 207.573 153.689 206.83 153.647 206.801C153.647 206.801 153.647 206.801 153.625 206.798L153.603 206.795C147.035 202.075 140.85 200.415 132.897 201.237C132.712 201.256 132.55 201.119 132.53 200.934C132.511 200.749 132.648 200.586 132.833 200.567C140.878 199.736 147.179 201.389 153.832 206.144C155.599 205.418 169.056 199.872 173.571 199.515L175.809 199.312C175.95 199.286 186.88 197.866 194.74 198.011C194.922 198.014 195.081 198.173 195.078 198.355C195.075 198.537 194.915 198.696 194.734 198.693C191.733 198.651 188.27 198.816 185.139 199.052C185.088 201.481 184.621 227.038 186.736 244.422C187.115 244.477 187.488 244.576 187.832 244.716C191.193 246.062 192.955 251.097 194.004 254.117C194.294 254.637 194.619 255.23 194.989 255.829C196.892 259.085 199.27 263.161 198.329 266.397C198.156 266.964 197.898 267.497 197.535 267.969C199.597 270.427 201.88 273.1 204.201 275.823C213.022 286.127 222.133 296.791 223.637 301.083C224.517 303.532 225.03 306.157 225.536 308.666C226.527 313.522 227.441 318.117 230.604 321.485C231.395 322.327 233.413 324.142 235.769 323.75C234.606 322.331 234.839 317.194 236.476 308.454C237.925 300.713 240.015 292.63 241.272 288.938C243.008 283.811 244.956 283.725 245.724 283.926C246.228 284.066 246.658 284.401 247.015 284.931C246.524 284.063 245.747 283.292 244.628 282.198C238.191 275.925 223.759 256.756 222.738 240.644C222.3 233.839 223.156 224.031 223.986 214.561C225.044 202.39 226.159 189.818 224.671 182.704C223.642 177.797 221.313 164.618 218.803 150.32L217.808 152.341C216.101 155.832 212.759 158.179 208.891 158.628L174.642 162.566C173.67 162.678 172.694 162.652 171.756 162.518C167.293 161.879 163.48 158.601 162.307 154.06L148.076 98.4553C148.158 103.296 147.436 109.456 144.639 116.276C145.423 119.075 155.738 156.195 152.959 164.954C151.594 169.246 144.399 175.118 136.794 181.318C128.438 188.141 119.774 195.215 118.721 200.348C117.138 208.071 130.201 231.872 133.998 237.176C135.515 239.306 136.242 240.913 136.879 242.348C137.826 244.488 138.562 246.187 141.674 248.477L141.942 248.675C144.318 245.917 147.092 242.92 150.195 239.697C151.853 237.976 153.776 236.952 155.766 236.736C157.593 236.542 159.302 237.014 160.625 238.114C161.419 238.774 162.006 239.61 162.369 240.573C162.465 240.063 162.401 239.553 162.216 239.093ZM162.11 242.221C161.945 240.672 161.183 239.469 160.249 238.675C158.661 237.355 156.754 237.151 154.931 237.641L161.772 243.152C161.909 242.83 162.021 242.527 162.11 242.221ZM160.197 246.207C160.704 245.368 161.138 244.565 161.495 243.819L154.162 237.919C153.269 238.269 152.424 238.763 151.652 239.382L160.197 246.207ZM159.839 246.793L151.155 239.834C151.024 239.952 150.89 240.093 150.759 240.211C150.249 240.753 149.742 241.272 149.257 241.795L158.305 249.079C158.851 248.292 159.371 247.524 159.839 246.793ZM157.891 249.589L148.782 242.251C148.163 242.914 147.545 243.577 146.952 244.221L156.267 251.703C156.822 251.008 157.38 250.291 157.891 249.589ZM155.824 252.255L146.47 244.722C145.848 245.407 145.226 246.093 144.633 246.737L154.092 254.33C154.666 253.661 155.266 252.972 155.824 252.255ZM153.649 254.882L144.167 247.285C143.546 247.97 142.946 248.659 142.375 249.306L151.831 256.922C152.428 256.256 153.049 255.57 153.649 254.882ZM149.586 259.403C150.179 258.759 150.776 258.092 151.394 257.429L141.935 249.836C141.332 250.547 140.755 251.238 140.206 251.889L149.586 259.403ZM149.127 259.906L139.792 252.399C139.186 253.132 138.631 253.827 138.098 254.525L147.267 261.918C147.864 261.252 148.483 260.589 149.127 259.906ZM146.789 262.396L137.681 255.058C137.094 255.817 136.558 256.537 136.07 257.242L144.892 264.357C145.507 263.716 146.145 263.078 146.789 262.396ZM144.391 264.832L135.671 257.8C135.097 258.629 134.6 259.4 134.179 260.114L142.395 266.687C143.048 266.098 143.705 265.485 144.391 264.832ZM140.596 268.115C141.004 267.809 141.441 267.462 141.856 267.111L133.825 260.679C133.372 261.457 132.973 262.333 132.644 263.197L139.588 268.791C139.933 268.613 140.261 268.386 140.596 268.115ZM132.375 270.174C132.548 270.244 132.742 270.317 132.937 270.391C133.699 270.636 134.486 270.704 135.344 270.599L131.751 267.693C131.748 268.672 131.942 269.543 132.375 270.174ZM131.78 266.855L136.211 270.426C137.088 270.187 138.01 269.795 139.008 269.187L132.434 263.873C132.08 264.916 131.866 265.933 131.78 266.855ZM142.795 121.205C143.435 124.85 144.7 132.091 145.735 139.664C147.404 151.883 147.833 159.711 146.987 162.916C145.95 166.821 140.692 171.103 134.607 176.063C127.904 181.527 120.279 187.702 115.906 195.185C111.629 202.477 116.346 214.562 121.048 223.411C126.183 233.051 132.419 241.049 132.498 241.129C132.575 241.231 132.581 241.346 132.543 241.454C132.473 241.627 125.806 259.577 129.506 267.304C129.962 268.257 130.558 269.026 131.323 269.568C130.536 267.109 131.532 263.334 133.235 260.344C134.877 257.458 137.694 253.693 141.543 249.233L141.339 249.067C138.084 246.665 137.309 244.915 136.331 242.679C135.712 241.27 135.005 239.688 133.522 237.631C130.102 232.883 116.452 208.565 118.137 200.287C119.225 194.908 127.992 187.758 136.427 180.856C143.956 174.713 151.071 168.92 152.366 164.801C153.496 161.204 152.416 151.712 149.233 137.34C147.258 128.38 145.008 120.064 144.259 117.337C143.781 118.453 143.235 119.56 142.639 120.704C142.709 120.851 142.754 121.017 142.795 121.205ZM142.301 119.882C142.936 118.629 143.5 117.388 144.014 116.186C147.606 107.476 147.782 99.871 147.193 94.7532C146.404 87.853 143.905 82.872 141.957 81.6823C141.915 81.6536 141.874 81.6249 141.858 81.5771C140.296 80.397 138.787 79.7941 137.649 79.9502C137.139 80.0139 136.718 80.2498 136.37 80.61C142.201 85.7031 147.614 93.4013 140.509 118.236C141.278 118.596 141.899 119.186 142.301 119.882ZM138.029 117.904C138.638 117.786 139.272 117.809 139.884 117.987C146.954 93.2386 141.427 85.8656 135.691 80.9001C134.317 79.6786 131.186 79.2763 129.247 80.0923C128.546 80.3791 127.713 80.9434 127.468 82.0243C129.014 81.7216 130.736 82.2639 132.349 83.5652C137.291 87.5517 141.721 98.9357 138.029 117.904ZM112.766 131.783C117.811 128.678 120.576 123.835 119.216 119.655C118.397 117.1 116.146 115.161 112.913 114.198C112.214 113.984 111.484 113.834 110.725 113.726C107.958 113.33 104.909 113.623 101.925 114.585C98.127 115.818 94.8775 117.996 92.7821 120.702C90.7155 123.368 90.0518 126.256 90.8708 128.811C91.6898 131.365 93.9407 133.304 97.1737 134.267C99.1187 134.842 101.255 135.033 103.471 134.826C106.504 134.007 109.606 133.016 112.766 131.783ZM24.0144 136.991C24.6424 137.696 25.972 137.795 27.7576 137.731C30.299 137.639 32.5024 137.043 33.4781 136.75C32.4551 133.711 35.2137 130.826 36.5819 129.382C36.6871 129.283 36.77 129.181 36.8753 129.082C37.2516 128.681 37.4462 128.116 37.3633 127.581C37.3379 127.281 37.3124 126.981 37.2838 126.704C37.2742 126.452 37.4624 126.251 37.7175 126.219C37.9694 126.21 38.1702 126.398 38.2021 126.653C38.2116 126.905 38.2403 127.182 38.2689 127.459C38.3581 128.269 38.1028 129.098 37.5384 129.701C37.4554 129.803 37.3502 129.902 37.245 130.001C35.9852 131.324 33.3606 134.069 34.4443 136.683C34.5016 136.76 35.0022 137.401 35.7896 138.265C35.9656 134.327 42.2543 129.692 42.5604 129.463C42.7645 129.31 43.0547 129.351 43.1854 129.552C43.3384 129.756 43.2969 130.046 43.096 130.177C40.8573 131.816 35.5539 136.569 36.9181 139.452C37.6355 140.169 38.4803 140.95 39.4049 141.652C39.3635 141.305 39.3667 140.963 39.421 140.584C39.9126 137.466 44.0361 133.637 46.4978 132.668C46.737 132.588 46.9952 132.693 47.0781 132.91C47.1577 133.149 47.0525 133.408 46.8357 133.491C44.5652 134.396 40.7288 137.969 40.3138 140.712C40.2085 141.448 40.3263 142.057 40.7089 142.567C42.4879 143.665 44.3787 144.299 46.0464 143.627C46.0687 143.63 47.7333 142.98 48.1703 141.676C48.3681 141.089 48.2598 140.413 47.8805 139.721C47.4245 139.884 46.7134 140.238 46.5889 140.789C46.5411 140.965 46.388 141.079 46.2094 141.054C46.1871 141.051 46.1871 141.051 46.1648 141.047C45.9894 141 45.8779 140.824 45.9257 140.649C46.2097 139.459 47.82 139.029 47.938 139.001C54.2644 137.286 56.5508 136.11 58.0751 135.326C58.9361 134.88 59.5516 134.558 60.4954 134.328C60.5432 134.312 60.5879 134.319 60.6325 134.325C62.4181 134.58 63.1896 135.078 64.0058 135.582C64.822 136.086 65.7402 136.673 67.8956 137.209C72.8919 138.424 85.4325 139.284 100.726 135.55C100.228 135.524 99.7563 135.479 99.2876 135.412C98.5064 135.301 97.7316 135.144 96.9919 134.902C93.542 133.862 91.1541 131.767 90.2522 128.995C89.3503 126.224 90.0682 123.116 92.2752 120.265C94.4535 117.457 97.8082 115.181 101.746 113.922C105.684 112.663 109.715 112.511 113.146 113.525C116.595 114.565 118.983 116.66 119.885 119.431C121.119 123.229 119.211 127.489 115.403 130.702C122.285 127.815 129.383 123.888 136.351 118.643C136.657 118.414 137.002 118.235 137.343 118.079C139.031 109.62 139.192 101.808 137.844 95.4659C136.723 90.2492 134.638 86.1929 131.941 84.0306C130.184 82.6178 128.399 82.203 126.894 82.8532C121.313 85.5626 112.371 91.2304 104.482 96.2288C96.4426 101.32 89.5259 105.728 87.0514 106.468C85.6707 106.885 83.9647 107.347 81.9972 107.886C75.9546 109.527 66.8062 112.022 57.0356 116.159C49.6886 119.276 42.0163 122.598 35.6131 125.804C25.9764 130.598 23.7631 132.855 23.6163 133.882C23.3896 135.467 23.5234 136.442 24.0144 136.991Z" fill="#00112C"/>
<path d="M209.924 78.3073C210.058 78.3265 210.223 78.2819 210.332 78.1607C210.386 78.1001 210.421 78.014 210.434 77.9248C210.453 77.7908 210.408 77.625 210.287 77.5166L210.166 77.4082C209.984 77.2455 209.688 77.2486 209.522 77.4527C209.468 77.5133 209.433 77.5994 209.42 77.6886C209.401 77.8226 209.445 77.9884 209.567 78.0968L209.688 78.2053C209.771 78.2627 209.857 78.2978 209.924 78.3073Z" fill="white"/>
<path d="M214.996 89.3278C215.041 89.3342 215.063 89.3373 215.111 89.3214C215.366 89.2896 215.535 89.0632 215.5 88.8304C215.058 85.0774 213.729 81.6303 211.784 79.1429C211.631 78.9388 211.338 78.9196 211.156 79.0758C210.952 79.2288 210.933 79.5222 211.089 79.704C212.935 82.0862 214.197 85.3642 214.639 88.9578C214.636 89.1396 214.795 89.299 214.996 89.3278Z" fill="white"/>
<path d="M221.527 144.172L289.922 163.293C291.344 163.701 292.855 162.847 293.264 161.425L301.958 130.258C302.366 128.836 301.512 127.324 300.09 126.916L214.92 103.096C214.436 104.256 213.865 105.382 213.182 106.491L221.467 138.857C221.9 140.604 221.913 142.428 221.527 144.172ZM137.665 118.694C137.687 118.697 137.713 118.678 137.735 118.682C138.427 118.462 139.157 118.452 139.852 118.688C139.89 118.739 139.954 118.771 140.018 118.803C140.04 118.806 140.04 118.806 140.063 118.809C140.085 118.813 140.107 118.816 140.155 118.8C141.185 119.243 141.937 120.194 142.141 121.316C142.179 121.526 142.214 121.759 142.272 121.995L135.528 120.097C135.936 119.791 136.341 119.507 136.75 119.201C137.008 118.987 137.327 118.828 137.665 118.694ZM128.973 79.4604C127.643 79.9991 126.868 80.9587 126.734 82.215C126.686 82.2309 126.635 82.2692 126.587 82.2851C120.959 85.0104 112.017 90.6783 104.102 95.6958C96.4395 100.544 89.2229 105.138 86.8409 105.868C86.5061 105.979 86.1267 106.084 85.7472 106.19L57.4753 98.274C56.0533 97.8656 55.1958 96.3764 55.6074 94.932L64.3429 63.7937C64.7513 62.3717 66.2405 61.5142 67.6848 61.9258L129.662 79.2629C129.403 79.317 129.19 79.3776 128.973 79.4604Z" fill="url(#paint1_linear)"/>
<path d="M122.347 84.526L82.9695 73.5189C76.7074 71.7577 70.1415 75.465 68.3804 81.727C66.6192 87.9891 70.3264 94.555 76.5885 96.3162L94.9412 101.446C97.6868 99.7666 100.844 97.7583 104.074 95.7149C110.235 91.8131 116.996 87.5415 122.347 84.526ZM224.925 113.228C231.187 114.989 234.894 121.555 233.133 127.817C231.592 133.336 226.331 136.843 220.833 136.421L214.129 110.203L224.925 113.228Z" fill="white"/>
<path d="M277.927 140.326C278.055 139.912 278.479 139.653 278.893 139.781L286.711 141.97L283.75 136.718C283.53 136.344 283.667 135.863 284.04 135.643C284.413 135.423 284.895 135.56 285.115 135.933L289.001 142.844C289.112 143.019 289.125 143.249 289.074 143.446C289.023 143.644 288.882 143.829 288.71 143.918L281.8 147.804C281.65 147.896 281.465 147.916 281.309 147.893C281.063 147.858 280.856 147.715 280.729 147.491C280.509 147.118 280.646 146.637 281.019 146.417L286.271 143.455L278.453 141.267C278.054 141.187 277.819 140.766 277.927 140.326Z" fill="#00112C"/>
<path d="M260.775 135.55C260.826 135.352 260.966 135.167 261.139 135.078L268.049 131.192C268.422 130.972 268.903 131.11 269.123 131.483C269.343 131.856 269.206 132.337 268.833 132.557L263.581 135.519L271.399 137.707C271.814 137.835 272.072 138.259 271.944 138.673C271.842 139.069 271.469 139.289 271.067 139.231C271.023 139.225 271 139.222 270.956 139.215L263.138 137.027L266.099 142.279C266.319 142.652 266.182 143.133 265.809 143.353C265.659 143.446 265.474 143.465 265.317 143.442C265.072 143.407 264.865 143.264 264.737 143.041L260.851 136.13C260.762 135.958 260.724 135.748 260.775 135.55Z" fill="#00112C"/>
<path d="M242.757 126.163C243.178 126.087 243.593 126.374 243.669 126.795L243.927 128.175C244.233 127.786 244.578 127.448 244.986 127.142C246.574 125.912 248.685 125.485 250.633 126.037C254.029 126.978 256.028 130.521 255.064 133.913C254.601 135.555 253.539 136.929 252.031 137.761C250.794 138.45 249.388 138.727 248.004 138.529C247.736 138.491 247.449 138.427 247.162 138.363C245.016 137.76 243.362 136.112 242.734 133.972C242.613 133.545 242.855 133.124 243.282 133.003C243.71 132.882 244.131 133.124 244.252 133.551C244.726 135.168 245.96 136.415 247.583 136.852C248.833 137.19 250.131 137.034 251.244 136.419C252.357 135.804 253.167 134.758 253.527 133.511C254.236 130.948 252.747 128.298 250.187 127.567C248.698 127.149 247.151 127.452 245.923 128.392C245.643 128.603 245.378 128.861 245.158 129.126L246.657 128.839C247.078 128.762 247.492 129.05 247.568 129.47C247.645 129.891 247.358 130.306 246.937 130.382L243.614 131C243.522 131.01 243.452 131.023 243.362 131.01C243.028 130.962 242.766 130.72 242.703 130.369L242.084 127.046C242.027 126.651 242.314 126.236 242.757 126.163Z" fill="#00112C"/>
<defs>
<linearGradient id="paint0_linear" x1="185.385" y1="79.4207" x2="160.671" y2="75.8859" gradientUnits="userSpaceOnUse">
<stop stop-color="#A177FF"/>
<stop offset="1" stop-color="#02CEFF"/>
</linearGradient>
<linearGradient id="paint1_linear" x1="306.867" y1="96.1101" x2="60.4545" y2="60.8665" gradientUnits="userSpaceOnUse">
<stop stop-color="#A177FF"/>
<stop offset="1" stop-color="#02CEFF"/>
</linearGradient>
</defs>
</svg>
