<?xml version="1.0" encoding="UTF-8"?>
<svg width="320pt" height="320pt" version="1.1" viewBox="0 0 320 320" xmlns="http://www.w3.org/2000/svg">
 <g id="svg_7">
    <path id="svg_2" d="m256.77738,176.27383c-4.7344,-4.7344 -12.312,-4.7344 -16.574,0c-4.2617,4.7344 -4.7344,12.312 0,16.574l51.145,51.145l-51.145,51.145c-4.7344,4.7344 -4.7344,12.312 0,16.574c2.3672,2.3672 5.2109,3.3164 8.5234,3.3164c3.3164,0 6.1562,-0.94531 8.5234,-3.3164l59.199,-59.199c4.7344,-4.7344 4.7344,-12.312 0,-16.574l-59.6718,-59.665z" fill="black"/>
    <path id="svg_5" d="m200.89738,184.79383l-295.99,0c-6.6328,0 -11.84,5.2109 -11.84,11.84c0,6.6289 5.207,11.84 11.84,11.84l284.15,0l0,71.039l-284.15,0c-6.6328,0 -11.84,5.207 -11.84,11.836c0,6.6328 5.207,11.84 11.84,11.84l295.99,0c6.6289,0 11.84,-5.2109 11.84,-11.84l0,-94.715c0,-6.6289 -5.2109,-11.84 -11.84,-11.84z"/>
   </g>
   <g id="svg_8">
    <path id="svg_3" d="m62.7494,145.96383c2.3672,2.3672 5.2109,3.3164 8.5234,3.3164c3.3164,0 6.1562,-0.94531 8.5234,-3.3164c4.7344,-4.7344 4.7344,-12.312 0,-16.574l-8.5234,-8.5273l-42.621,-42.621l51.145,-51.145c4.7344,-4.7344 4.7344,-12.312 0,-16.574c-4.7344,-4.7344 -12.312,-4.7344 -16.574,0l-59.672,59.195c-4.7344,4.7344 -4.7344,12.312 0,16.574l59.1986,59.6723z" fill="black"/>
    <path id="svg_4" d="m414.6194,113.75383l-284.15,0l0,-71.039l284.15,0c6.6289,0 11.84,-5.2109 11.84,-11.84s-5.2109,-11.84 -11.84,-11.84l-295.99,0c-6.6289,0 -11.84,5.2109 -11.84,11.84l0,94.715c0,6.6289 5.2109,11.84 11.84,11.84l295.99,0c6.6289,0 11.84,-5.2109 11.84,-11.84c0,-6.6289 -5.2109,-11.836 -11.84,-11.836z" fill="black"/>
   </g>
</svg>
