<?xml version="1.0" encoding="UTF-8"?>
<svg width="444pt" height="444pt" version="1.1" viewBox="0 0 444 444" xmlns="http://www.w3.org/2000/svg">
 <g>
  <path fill="black" stroke="null" id="svg_2" d="m372.59895,154.27499c-4.7344,-4.7344 -12.312,-4.7344 -16.574,0c-4.7344,4.7344 -4.7344,12.312 0,16.574l8.0469,8.5234l42.621,42.621l-51.145,51.145c-4.7344,4.7344 -4.7344,12.312 0,16.574c2.3672,2.3672 5.2109,3.3164 8.5234,3.3164c3.3164,0 6.1562,-0.94531 8.5234,-3.3164l59.199,-59.199c4.7344,-4.7344 4.7344,-12.312 0,-16.574l-59.1947,-59.6644z"/>
   <path fill="black" id="svg_3" d="m79.92895,179.37499l8.5234,-8.5234c4.7344,-4.7344 4.7344,-12.312 0,-16.574c-4.7344,-4.7344 -12.312,-4.7344 -16.574,0l-59.672,59.195c-4.7344,4.7344 -4.7344,12.312 0,16.574l59.199,59.199c2.3672,2.3672 5.2109,3.3164 8.5234,3.3164c3.3164,0 6.1562,-0.94531 8.5234,-3.3164c4.7344,-4.7344 4.7344,-12.312 0,-16.574l-8.5234,-8.0508l-42.621,-42.621l42.6212,-42.6248z"/>
   <path fill="black" id="svg_4" d="m316.71895,115.44499l-189.43,0c-6.6289,0 -11.84,5.2109 -11.84,11.84l0,189.43c0,6.6289 5.2109,11.84 11.84,11.84l189.43,0c6.6289,0 11.84,-5.2109 11.84,-11.84l0,-189.43c0,-6.6289 -5.2109,-11.84 -11.84,-11.84zm-11.84,189.43l-165.75,0l0,-165.75l165.75,0l0,165.75z"/>
 </g>
</svg>
