<?xml version="1.0" encoding="UTF-8" standalone="no"?>
<svg
   width="42px"
   height="42px"
   viewBox="0 0 42 42"
   version="1.1"
   id="svg1"
   sodipodi:docname="file-unindexed.svg"
   inkscape:version="1.3.2 (091e20e, 2023-11-25)"
   xmlns:inkscape="http://www.inkscape.org/namespaces/inkscape"
   xmlns:sodipodi="http://sodipodi.sourceforge.net/DTD/sodipodi-0.dtd"
   xmlns="http://www.w3.org/2000/svg"
   xmlns:svg="http://www.w3.org/2000/svg">
  <defs
     id="defs1" />
  <sodipodi:namedview
     id="namedview1"
     pagecolor="#ffffff"
     bordercolor="#000000"
     borderopacity="0.25"
     inkscape:showpageshadow="2"
     inkscape:pageopacity="0.0"
     inkscape:pagecheckerboard="0"
     inkscape:deskcolor="#d1d1d1"
     inkscape:zoom="13.166667"
     inkscape:cx="21"
     inkscape:cy="20.962025"
     inkscape:window-width="1392"
     inkscape:window-height="779"
     inkscape:window-x="1440"
     inkscape:window-y="73"
     inkscape:window-maximized="0"
     inkscape:current-layer="svg1" />
  <title
     id="title1">icon / 42px /try-your-file</title>
  <g
     id="icon-/-42px-/try-your-file"
     stroke="none"
     stroke-width="1"
     fill="none"
     fill-rule="evenodd">
    <path
       d="M35,12 L35,36 C35,37.1045695 34.1045695,38 33,38 L9,38 C7.8954305,38 7,37.1045695 7,36 L7,6 C7,4.8954305 7.8954305,4 9,4 L27,4 L27,7 L10,7 L10,35 L32,35 L32,12 L35,12 Z"
       id="Combined-Shape"
       fill="#8C3800"
       fill-rule="nonzero"
       style="fill:#fab03b;fill-opacity:1" />
    <polygon
       id="Rectangle"
       fill="#FF822D"
       points="27 4 35 12 27 12"
       style="fill:#fbcd00;fill-opacity:1" />
    <path
       d="M27,7 L27,12 L32,12 L32,35 L10,35 L10,7 L27,7 Z"
       id="path1"
       fill="#FEE1BB"
       style="fill:#fdfac2;fill-opacity:1" />
    <rect
       id="rect1"
       fill="#FF822D"
       x="15"
       y="15"
       width="8"
       height="3"
       style="fill:#e4a225;fill-opacity:1" />
    <rect
       id="Rectangle-Copy"
       fill="#FF822D"
       x="15"
       y="21"
       width="12"
       height="3"
       style="fill:#e4a225;fill-opacity:1" />
    <rect
       id="Rectangle-Copy-2"
       fill="#FF822D"
       x="15"
       y="27"
       width="12"
       height="3"
       style="fill:#e4a225;fill-opacity:1" />
  </g>
</svg>
