<?xml version="1.0" encoding="UTF-8"?>
<svg xmlns="http://www.w3.org/2000/svg" xmlns:xlink="http://www.w3.org/1999/xlink" fill="#FFF" width="20" height="20" viewBox="0 0 20 20" version="1.1">
<g id="surface1">
<path d="M 15.921875 8.859375 C 15.699219 8.859375 15.480469 8.878906 15.261719 8.921875 C 15.078125 6.160156 12.800781 3.980469 10 3.980469 C 7.5 3.980469 5.421875 5.71875 4.878906 8.039062 C 4.761719 8.019531 4.640625 8.019531 4.519531 8.019531 C 2.300781 8 0.5 9.800781 0.5 12.019531 C 0.5 14.238281 2.300781 16.039062 4.519531 16.039062 L 9.300781 16.039062 L 9.300781 10.839844 L 8.261719 11.878906 C 7.980469 12.160156 7.539062 12.160156 7.261719 11.878906 C 6.980469 11.601562 6.980469 11.140625 7.261719 10.878906 L 9.5 8.601562 C 9.78125 8.320312 10.238281 8.320312 10.5 8.601562 L 12.761719 10.859375 C 13.039062 11.140625 13.039062 11.578125 12.761719 11.859375 C 12.621094 12 12.441406 12.058594 12.261719 12.058594 C 12.078125 12.058594 11.898438 12 11.761719 11.859375 L 10.71875 10.820312 L 10.71875 16.019531 L 15.921875 16.019531 C 17.898438 16.019531 19.5 14.421875 19.5 12.441406 C 19.5 10.460938 17.898438 8.859375 15.921875 8.859375 Z M 15.921875 8.859375 "/>
</g>
</svg>
