<?xml version="1.0" encoding="UTF-8"?>
<svg xmlns="http://www.w3.org/2000/svg" xmlns:xlink="http://www.w3.org/1999/xlink" fill="#FFF" width="20" height="20" viewBox="0 0 20 20" version="1.1">
<g id="surface1">
<path d="M 15.921875 8.859375 C 15.699219 8.859375 15.480469 8.878906 15.261719 8.921875 C 15.078125 6.160156 12.800781 3.980469 10 3.980469 C 7.5 3.980469 5.421875 5.71875 4.878906 8.039062 C 4.761719 8.019531 4.640625 8.019531 4.519531 8.019531 C 2.300781 8 0.5 9.800781 0.5 12.019531 C 0.5 14.238281 2.300781 16.039062 4.519531 16.039062 L 15.921875 16.039062 C 17.898438 16.039062 19.5 14.441406 19.5 12.460938 C 19.5 10.480469 17.898438 8.859375 15.921875 8.859375 Z M 12.28125 9.621094 L 9.5 12.621094 C 9.359375 12.761719 9.179688 12.839844 8.980469 12.839844 C 8.78125 12.839844 8.601562 12.761719 8.460938 12.621094 L 7.058594 11.101562 C 6.800781 10.820312 6.820312 10.359375 7.101562 10.101562 C 7.378906 9.839844 7.839844 9.859375 8.101562 10.140625 L 8.980469 11.078125 L 11.238281 8.640625 C 11.5 8.359375 11.960938 8.339844 12.238281 8.601562 C 12.539062 8.878906 12.539062 9.320312 12.28125 9.621094 Z M 12.28125 9.621094 "/>
</g>
</svg>
