<svg xmlns="http://www.w3.org/2000/svg" xmlns:xlink="http://www.w3.org/1999/xlink" viewBox="0 0 97.78 61.21"><defs><style>.cls-1,.cls-12,.cls-19,.cls-2,.cls-7{fill:none;}.cls-2{clip-rule:evenodd;}.cls-17,.cls-3{fill:#f2634d;}.cls-12,.cls-19,.cls-3,.cls-4,.cls-7{stroke:#152d53;stroke-miterlimit:10;}.cls-19,.cls-3{stroke-width:2px;}.cls-4,.cls-6{fill:#d6eeed;}.cls-4,.cls-7{stroke-width:2.09px;}.cls-5{fill:#9ed7d4;}.cls-8{fill:#00988c;}.cls-9{clip-path:url(#clip-path);}.cls-10{fill:#f3fafe;}.cls-11{clip-path:url(#clip-path-2);}.cls-12{stroke-linecap:round;stroke-width:2.16px;}.cls-13{clip-path:url(#clip-path-3);}.cls-14{fill:#152d53;}.cls-15{clip-path:url(#clip-path-4);}.cls-16{clip-path:url(#clip-path-5);}.cls-18{clip-path:url(#clip-path-6);}.cls-20{fill:#fff;}</style><clipPath id="clip-path"><path class="cls-1" d="M61.08,30.5a2.16,2.16,0,0,1,2.73,1.37l.78,2.32a2.16,2.16,0,0,1,3-.2,2.16,2.16,0,0,1,3.89.44l.11.32a1.39,1.39,0,0,1,.4-.21l.24-.06a2.18,2.18,0,0,1,2.39,1.39l1.23,3.34a6.86,6.86,0,0,1,.76,1.59,6.75,6.75,0,1,1-12.81,4.27,5.41,5.41,0,0,1-.24-.94L59.75,33.22a2.13,2.13,0,0,1,1.3-2.71Z"/></clipPath><clipPath id="clip-path-2"><path class="cls-2" d="M61.08,30.5a2.16,2.16,0,0,1,2.73,1.37l.78,2.32a2.16,2.16,0,0,1,3-.2,2.16,2.16,0,0,1,3.89.44l.11.32a1.39,1.39,0,0,1,.4-.21l.24-.06a2.18,2.18,0,0,1,2.39,1.39l1.23,3.34a6.86,6.86,0,0,1,.76,1.59,6.75,6.75,0,1,1-12.81,4.27,5.41,5.41,0,0,1-.24-.94L59.75,33.22a2.13,2.13,0,0,1,1.3-2.71Z"/></clipPath><clipPath id="clip-path-3"><path class="cls-1" d="M64.16,34.6a.55.55,0,0,1,.68.34l1.37,4.11a.54.54,0,0,1-1,.34l-1.37-4.1A.55.55,0,0,1,64.16,34.6Z"/></clipPath><clipPath id="clip-path-4"><path class="cls-1" d="M67.06,34.77l1-.34L69.28,38a.53.53,0,0,1-.34.68.53.53,0,0,1-.68-.34Z"/></clipPath><clipPath id="clip-path-5"><path class="cls-1" d="M71.16,35.12a.53.53,0,0,1,.68.34l.69,2a.54.54,0,0,1-1,.34l-.68-2.05A.53.53,0,0,1,71.16,35.12Z"/></clipPath><clipPath id="clip-path-6"><circle class="cls-3" cx="13.95" cy="47.25" r="12.95"/></clipPath></defs><g id="Layer_2" data-name="Layer 2"><g id="one-click-upgrades"><rect class="cls-4" x="13.4" y="1.05" width="83.33" height="50.65" rx="2.76"/><rect class="cls-5" x="19.66" y="6.91" width="70.82" height="6.52"/><rect class="cls-5" x="19.48" y="16.28" width="70.82" height="29.85"/><rect class="cls-6" x="37.3" y="26.37" width="35.54" height="8.89" rx="4.45"/><rect class="cls-7" x="37.3" y="26.37" width="35.54" height="8.89" rx="4.45"/><rect class="cls-8" x="39.22" y="28.18" width="31.72" height="5.27" rx="2.63"/><g class="cls-9"><path class="cls-10" d="M61.08,30.5a2.16,2.16,0,0,1,2.73,1.37l.78,2.32a2.16,2.16,0,0,1,3-.2,2.16,2.16,0,0,1,3.89.44l.11.32a1.39,1.39,0,0,1,.4-.21l.24-.06a2.18,2.18,0,0,1,2.39,1.39l1.23,3.34a6.86,6.86,0,0,1,.76,1.59,6.75,6.75,0,1,1-12.81,4.27,5.41,5.41,0,0,1-.24-.94L59.75,33.22a2.13,2.13,0,0,1,1.3-2.71Z"/></g><g class="cls-11"><path class="cls-12" d="M61.08,30.5a2.16,2.16,0,0,1,2.73,1.37l.78,2.32a2.16,2.16,0,0,1,3-.2,2.16,2.16,0,0,1,3.89.44l.11.32a1.39,1.39,0,0,1,.4-.21l.24-.06a2.18,2.18,0,0,1,2.39,1.39l1.23,3.34a6.86,6.86,0,0,1,.76,1.59,6.75,6.75,0,1,1-12.81,4.27,5.41,5.41,0,0,1-.24-.94L59.75,33.22a2.13,2.13,0,0,1,1.3-2.71Z"/></g><g class="cls-13"><rect class="cls-14" x="61.77" y="31.76" width="6.48" height="10.81" transform="matrix(0.95, -0.32, 0.32, 0.95, -8.41, 22.45)"/></g><g class="cls-15"><rect class="cls-14" x="65.01" y="31.79" width="6.48" height="9.73" transform="translate(-8.09 23.45) rotate(-18.43)"/></g><g class="cls-16"><rect class="cls-14" x="68.43" y="32.33" width="6.48" height="8.65" transform="translate(-7.91 24.53) rotate(-18.43)"/></g><circle class="cls-17" cx="13.95" cy="47.25" r="12.95"/><g class="cls-18"><circle class="cls-3" cx="13.95" cy="47.25" r="12.95"/></g><circle class="cls-19" cx="13.95" cy="47.25" r="12.95"/><path class="cls-20" d="M18.36,47.33a6,6,0,0,1-3.88-3.91A5.73,5.73,0,0,1,13,45.88a5.9,5.9,0,0,1-2.45,1.45,5.89,5.89,0,0,1,3.93,3.89A6,6,0,0,1,18.36,47.33Z"/><path class="cls-20" d="M10.11,54.2A3.65,3.65,0,0,1,12,52.31a3.73,3.73,0,0,1-1.89-1.9A3.54,3.54,0,0,1,8.26,52.3,3.45,3.45,0,0,1,10.11,54.2Z"/><path class="cls-20" d="M17.84,40.3A3.49,3.49,0,0,1,16.17,42a3.3,3.3,0,0,1,1.66,1.65A3.47,3.47,0,0,1,19.51,42,3.3,3.3,0,0,1,17.84,40.3Z"/><path class="cls-20" d="M19.8,52.63a3,3,0,0,1,1.44-1.38,3,3,0,0,1-1.43-1.38,3.21,3.21,0,0,1-1.37,1.38A3.18,3.18,0,0,1,19.8,52.63Z"/></g></g></svg>