<?xml version="1.0" encoding="UTF-8" standalone="no"?>
<!-- Uploaded to: SVG Repo, www.svgrepo.com, Generator: SVG Repo Mixer Tools -->

<svg
   fill="#000000"
   height="800px"
   width="800px"
   version="1.1"
   id="Capa_1"
   viewBox="0 0 32.055 32.055"
   xml:space="preserve"
   sodipodi:docname="menu.svg"
   inkscape:version="1.3.2 (091e20e, 2023-11-25)"
   xmlns:inkscape="http://www.inkscape.org/namespaces/inkscape"
   xmlns:sodipodi="http://sodipodi.sourceforge.net/DTD/sodipodi-0.dtd"
   xmlns="http://www.w3.org/2000/svg"
   xmlns:svg="http://www.w3.org/2000/svg"><defs
   id="defs1" /><sodipodi:namedview
   id="namedview1"
   pagecolor="#ffffff"
   bordercolor="#000000"
   borderopacity="0.25"
   inkscape:showpageshadow="2"
   inkscape:pageopacity="0.0"
   inkscape:pagecheckerboard="0"
   inkscape:deskcolor="#d1d1d1"
   inkscape:zoom="0.295"
   inkscape:cx="379.66102"
   inkscape:cy="162.71186"
   inkscape:window-width="1392"
   inkscape:window-height="847"
   inkscape:window-x="0"
   inkscape:window-y="25"
   inkscape:window-maximized="0"
   inkscape:current-layer="Capa_1" />

<g
   id="g2"
   transform="translate(1.9655628,1.9630623)"
   style="fill:#333333"><g
     id="g1"
     style="fill:#333333;fill-opacity:1"
     transform="matrix(0.5050895,0,0,0.5050895,2.4176181,5.9691157)">
	<path
   d="m 6.372125,12.061 c -2.193,0 -3.968,1.774 -3.968,3.966 0,2.192 1.773,3.967 3.968,3.967 2.189,0 3.966,-1.772 3.966,-3.967 0,-2.192 -1.777,-3.966 -3.966,-3.966 z"
   id="path1"
   style="fill:#333333;fill-opacity:1"
   sodipodi:nodetypes="sssss" />
</g><path
     d="m 22.488016,12.0615 c -1.10444,0 -2.002933,0.89496 -2.002933,2.001418 0,1.106459 0.897483,2.002428 2.002933,2.002428 1.105449,0 2.003942,-0.894454 2.003942,-2.002428 -0.001,-1.105954 -0.898493,-2.001418 -2.003942,-2.001418 z"
     style="fill:#333333;fill-opacity:1;stroke-width:0.504771"
     id="path1-9" /><path
     d="m 14.062949,12.0615 c -1.107017,0 -2.004448,0.895916 -2.004448,2.003438 0,1.106007 0.895916,2.002428 2.004448,2.002428 1.104996,0 2.002427,-0.894906 2.002427,-2.002428 0,-1.107522 -0.897431,-2.003438 -2.002427,-2.003438 z"
     style="fill:#333333;fill-opacity:1;stroke-width:0.505026"
     id="path1-91" /></g></svg>
