<?xml version="1.0" encoding="UTF-8"?>
<svg xmlns="http://www.w3.org/2000/svg" xmlns:xlink="http://www.w3.org/1999/xlink" fill="#FFF" width="20" height="20" viewBox="0 0 20 20" version="1.1">
<g id="surface1">
<path d="M 1.578125 19.800781 C 0.820312 19.800781 0.199219 19.179688 0.199219 18.421875 L 0.199219 1.820312 C 0.199219 1.058594 0.820312 0.441406 1.578125 0.441406 C 2.339844 0.441406 2.960938 1.058594 2.960938 1.820312 L 2.960938 18.421875 C 2.941406 19.179688 2.339844 19.800781 1.578125 19.800781 Z M 1.578125 19.800781 "/>
<path d="M 6.980469 19.800781 C 6.21875 19.800781 5.601562 19.179688 5.601562 18.421875 L 5.601562 1.820312 C 5.601562 1.058594 6.21875 0.441406 6.980469 0.441406 C 7.738281 0.441406 8.359375 1.058594 8.359375 1.820312 L 8.359375 18.421875 C 8.359375 19.179688 7.738281 19.800781 6.980469 19.800781 Z M 6.980469 19.800781 "/>
<path d="M 18.839844 19.699219 C 18.140625 19.960938 17.339844 19.601562 17.078125 18.878906 L 10.960938 2.121094 C 10.699219 1.421875 11.058594 0.621094 11.78125 0.359375 C 12.480469 0.101562 13.28125 0.460938 13.539062 1.179688 L 19.660156 17.960938 C 19.898438 18.660156 19.539062 19.441406 18.839844 19.699219 Z M 18.839844 19.699219 "/>
</g>
</svg>
