<?xml version="1.0" encoding="UTF-8"?>
<svg xmlns="http://www.w3.org/2000/svg" xmlns:xlink="http://www.w3.org/1999/xlink" fill="rgb(253, 104, 95)" width="20" height="20" viewBox="0 0 20 20" version="1.1">
<g id="surface1">
<path d="M 10.238281 0.5 L 6.21875 0.5 L 6.21875 3.421875 L 10.238281 3.441406 Z M 10.238281 0.5 "/>
<path d="M 18.539062 4.980469 L 14.539062 0.980469 C 14.238281 0.679688 13.820312 0.5 13.378906 0.5 L 11.480469 0.5 L 11.480469 3.421875 C 11.480469 4.101562 10.921875 4.660156 10.238281 4.660156 L 6.21875 4.660156 C 5.539062 4.660156 4.980469 4.101562 4.980469 3.421875 L 4.980469 0.5 L 2.621094 0.5 C 1.71875 0.5 1 1.21875 1 2.121094 L 1 17.859375 C 1 18.761719 1.71875 19.480469 2.621094 19.480469 L 17.398438 19.480469 C 18.300781 19.480469 19.019531 18.761719 19.019531 17.859375 L 19.019531 6.140625 C 19.019531 5.699219 18.839844 5.28125 18.539062 4.980469 Z M 15.179688 15.179688 C 15.179688 15.859375 14.621094 16.421875 13.941406 16.421875 L 6.058594 16.421875 C 5.378906 16.421875 4.820312 15.859375 4.820312 15.179688 L 4.820312 8.839844 C 4.820312 8.160156 5.378906 7.601562 6.058594 7.601562 L 13.960938 7.601562 C 14.640625 7.601562 15.199219 8.160156 15.199219 8.839844 L 15.199219 15.179688 Z M 15.179688 15.179688 "/>
<path d="M 11.578125 9.800781 L 9.300781 12.261719 L 8.421875 11.300781 C 8.078125 10.941406 7.5 10.921875 7.140625 11.261719 C 6.78125 11.601562 6.761719 12.179688 7.101562 12.539062 L 8.660156 14.21875 C 8.839844 14.398438 9.078125 14.519531 9.320312 14.519531 C 9.578125 14.519531 9.820312 14.421875 9.980469 14.21875 L 12.921875 11.058594 C 13.261719 10.699219 13.238281 10.121094 12.878906 9.78125 C 12.5 9.421875 11.921875 9.441406 11.578125 9.800781 Z M 11.578125 9.800781 "/>
</g>
</svg>
