<svg width="20" height="20" xmlns="http://www.w3.org/2000/svg" xmlns:svg="http://www.w3.org/2000/svg">
 <g>
  <title>Layer 1</title>
  <path id="svg_1" fill="#24292e" fill-rule="nonzero" d="m18.99212,0.83216c0.22816,0.16629 0.32098,0.38672 0.27999,0.66284l-2.65213,15.91049a0.65279,0.65279 0 0 1 -0.33103,0.46638a0.63577,0.63577 0 0 1 -0.57003,0.03094l-4.69248,-1.91582l-2.50595,3.0551a0.61024,0.61024 0 0 1 -0.50815,0.239a0.55998,0.55998 0 0 1 -0.22816,-0.04177a0.64969,0.64969 0 0 1 -0.31556,-0.24363a0.6466,0.6466 0 0 1 -0.11911,-0.37822l0,-3.61507l8.9495,-10.96896l-11.07337,9.58141l-4.09151,-1.67837c-0.25524,-0.09668 -0.39369,-0.28617 -0.41456,-0.56925c-0.01315,-0.27689 0.09668,-0.47953 0.33258,-0.61102l17.23462,-9.94492a0.63423,0.63423 0 0 1 0.33258,-0.09281c0.13767,0 0.26297,0.03867 0.3728,0.1137z"/>
 </g>
</svg>