<svg class="icon-testimonials" width="56" height="56" viewBox="0 0 56 56" xmlns="http://www.w3.org/2000/svg" xmlns:xlink="http://www.w3.org/1999/xlink" aria-hidden="true"> <defs> <circle id="abc" cx="28" cy="28" r="28"></circle> </defs> <g fill="none" fill-rule="evenodd"> <mask id="bcd" fill="#fff"> <use xlink:href="#abc"></use> </mask> <use fill="#A6B0D8" opacity=".3" xlink:href="#abc"></use> <rect fill="#A6B0D8" opacity=".5" mask="url(#bcd)" x="14" y="14.86" width="27.985" height="54.04" rx="2"></rect> <rect fill="#A6B0D8" opacity=".5" mask="url(#bcd)" x="18.825" y="11" width="18.335" height="3.86" rx="1.93"></rect> <rect class="icon-testimonials-window" fill="#A6B0D8" opacity=".5" mask="url(#bcd)" x="18" y="41" width="5" height="31.84" rx="2.5"></rect> <rect class="icon-testimonials-window" fill="#A6B0D8" opacity=".5" mask="url(#bcd)" x="25" y="41" width="6" height="31.845" rx="3" style="opacity: 0.312952;"></rect> <rect class="icon-testimonials-window" fill="#A6B0D8" opacity=".5" mask="url(#bcd)" x="33" y="41" width="5" height="31.845" rx="2.5" style="opacity: 0.495953;"></rect> <rect class="icon-testimonials-window" fill="#A6B0D8" opacity=".5" mask="url(#bcd)" x="33" y="32" width="5" height="5" rx="1" style="opacity: 0.463409;"></rect> <rect class="icon-testimonials-window" fill="#A6B0D8" opacity=".5" mask="url(#bcd)" x="25" y="32" width="6" height="5" rx="1" style="opacity: 0.442757;"></rect> <rect class="icon-testimonials-window" fill="#A6B0D8" opacity=".5" mask="url(#bcd)" x="18" y="32" width="5" height="5" rx="1" style="opacity: 0.471543;"></rect> <rect class="icon-testimonials-window" fill="#A6B0D8" opacity=".5" mask="url(#bcd)" x="33" y="25" width="5" height="5" rx="1" style="opacity: 0.469125;"></rect> <rect class="icon-testimonials-window" fill="#A6B0D8" opacity=".5" mask="url(#bcd)" x="25" y="25" width="6" height="5" rx="1" style="opacity: 0.495503;"></rect> <rect class="icon-testimonials-window" fill="#A6B0D8" opacity=".5" mask="url(#bcd)" x="18" y="25" width="5" height="5" rx="1" style="opacity: 0.448202;"></rect> <rect class="icon-testimonials-window" fill="#A6B0D8" opacity=".5" mask="url(#bcd)" x="33" y="18" width="5" height="5" rx="1" style="opacity: 0.43012;"></rect> <rect class="icon-testimonials-window" fill="#A6B0D8" opacity=".5" mask="url(#bcd)" x="25" y="18" width="6" height="5" rx="1" style="opacity: 0.487394;"></rect> <rect class="icon-testimonials-window" fill="#A6B0D8" opacity=".5" mask="url(#bcd)" x="18" y="18" width="5" height="5" rx="1" style="opacity: 0.469246;"></rect> </g> </svg>