<svg xmlns="http://www.w3.org/2000/svg" xmlns:xlink="http://www.w3.org/1999/xlink" viewBox="0 0 483 300">
    <defs>
    <linearGradient id="paint1_linear" x1="306.867" y1="96.1101" x2="60.4545" y2="60.8665" gradientUnits="userSpaceOnUse">
        <stop stop-color="#111"/>
        <stop offset="1" stop-color="#212529"/>
    </linearGradient>
    </defs>
               <rect x="0.44444" fill="#f1f1f1" id="svg_2" height="298" width="483" y="1.98"/>
               <rect fill="url(#paint1_linear)" height="25" width="436.33" y="32.98" x="23.33" id="svg_3"/>
               <circle r="3.75" cy="21.73" cx="27.08" fill="#fc5d57" id="svg_4"/>
               <circle r="3.75" cy="21.73" cx="38.58" fill="#febe2e" id="svg_5"/>
               <circle r="3.75" cy="21.73" cx="50.08" fill="#29c740" id="svg_6"/>
               <circle fill="#868CA0" r="6.25" cy="45.23" cx="37.08" id="svg_7"/>
               <rect fill="#5a5f73" height="13" width="52" y="38.98" x="51.67" id="svg_8"/>
               <rect fill="#FFF" height="13" width="26" y="38.98" x="422.67" id="svg_9"/>
               <rect fill="#FFF" height="209" width="323" y="73.98" x="136.67" id="svg_10"/>
               <g fill="#e9ecef" id="svg_11">
                    <rect height="15.34" width="79.06" y="105.98" x="166.61" id="svg_12"/>
                    <rect height="15.34" width="109.06" y="128.98" x="166.61" id="svg_13"/>
                    <rect height="53" width="109.06" y="191.98" x="166.61" id="svg_14"/>
               </g>
               <g fill="#009688" id="svg_15">
                    <path d="m169.92,151.76l4.89,0a2.74,2.74 0 0 1 2.94,2.49l0,4.14a2.74,2.74 0 0 1 -2.94,2.48l-4.89,0a2.74,2.74 0 0 1 -2.94,-2.48l0,-4.18a2.74,2.74 0 0 1 2.94,-2.45z" id="svg_16"/>
                    <path d="m169.92,164.21l4.89,0a2.74,2.74 0 0 1 2.94,2.48l0,4.14a2.74,2.74 0 0 1 -2.94,2.48l-4.89,0a2.74,2.74 0 0 1 -2.94,-2.48l0,-4.14a2.74,2.74 0 0 1 2.94,-2.48z" id="svg_17"/>
                    <path d="m169.92,176.6l4.89,0a2.74,2.74 0 0 1 2.94,2.48l0,4.13a2.74,2.74 0 0 1 -2.94,2.48l-4.89,0a2.74,2.74 0 0 1 -2.92,-2.48l0,-4.14a2.74,2.74 0 0 1 2.92,-2.47z" id="svg_18"/>
               </g>
               <g fill="#212529" id="svg_19">
                    <path d="m181.67,154.21l52.87,0l0,3.31l-52.87,0l0,-3.31z" id="svg_20"/>
                    <path d="m181.67,167.21l52.87,0l0,3.31l-52.87,0l0,-3.31z" id="svg_21"/>
                    <path d="m181.67,179.08l49,0l0,3.31l-49,0l0,-3.31z" id="svg_22"/>
                    <path d="m167,91.82l49.94,0l0,3.32l-49.94,0l0,-3.32z" id="svg_23"/>
               </g>
               <rect fill="#0d6efd" height="15.34" width="98.77191" y="77.17771" x="24.58793" id="svg_24"/>
               <g fill="#FFF" id="svg_25">
                    <rect height="15.34" width="98.77191" y="94.95549" x="24.58793" id="svg_26"/>
                    <rect height="15.34" width="98.77191" y="112.73328" x="24.58793" id="svg_27"/>
                    <rect height="15.34" width="98.77191" y="130.51105" x="24.58793" id="svg_28"/>
               </g>
</svg>