<?xml version="1.0" encoding="utf-8"?>
<!-- Generator: Adobe Illustrator 26.1.0, SVG Export Plug-In . SVG Version: 6.00 Build 0)  -->
<svg version="1.1" id="Capa_1" xmlns="http://www.w3.org/2000/svg" xmlns:xlink="http://www.w3.org/1999/xlink" x="0px" y="0px"
	 viewBox="0 0 483 300" style="enable-background:new 0 0 483 300;" xml:space="preserve">
<style type="text/css">
	.st0{fill-rule:evenodd;clip-rule:evenodd;fill:#FFFFFF;stroke:#979797;}
	.st1{fill-rule:evenodd;clip-rule:evenodd;fill:url(#SVGID_1_);}
	.st2{fill-rule:evenodd;clip-rule:evenodd;fill:#FFFFFF;}
	.st3{fill-rule:evenodd;clip-rule:evenodd;fill:url(#SVGID_00000052792878629009761730000013191158493591574657_);}
	.st4{fill-rule:evenodd;clip-rule:evenodd;fill:url(#SVGID_00000086655176967609534480000011109990258907960244_);}
	.st5{fill-rule:evenodd;clip-rule:evenodd;fill:#F0F9FC;}
	.st6{fill:#F1F1F1;}
	.st7{fill:url(#svg_3_00000096027638744618732630000017606579811434502320_);}
	.st8{fill:#FC5D57;}
	.st9{fill:#FEBE2E;}
	.st10{fill:#29C740;}
	.st11{fill:#868CA0;}
	.st12{fill:#5A5F73;}
	.st13{fill:#FFFFFF;}
	.st14{fill:#E9ECEF;}
	.st15{fill:#009688;}
	.st16{fill:#212529;}
	.st17{fill:#0D6EFD;}
	.st18{fill-rule:evenodd;clip-rule:evenodd;fill:url(#SVGID_00000061472249513155544910000002030509105566152878_);}
	.st19{fill:url(#SVGID_00000149361068588183882460000001801497853973519506_);}
</style>
<path class="st0" d="M438,265.6v-228c0-4.1-3.4-7.5-7.5-7.5H55c-4.1,0-7.5,3.4-7.5,7.5v228H438z"/>
<linearGradient id="SVGID_1_" gradientUnits="userSpaceOnUse" x1="46.6" y1="147.85" x2="438.9" y2="147.85">
	<stop  offset="0" style="stop-color:#111111"/>
	<stop  offset="1" style="stop-color:#212529"/>
</linearGradient>
<path class="st1" d="M48.4,264.6h388.7V37.5c0-3.6-2.9-6.6-6.6-6.6H55c-3.6,0-6.6,2.9-6.6,6.6V264.6z M438,266.5H47.5
	c-0.5,0-0.9-0.4-0.9-0.9v-228c0-4.7,3.8-8.4,8.4-8.4h375.5c4.7,0,8.4,3.8,8.4,8.4v228C438.9,266.1,438.5,266.5,438,266.5z"/>
<path class="st2" d="M457.6,289.6H27.8c-11.8,0-21.3-9.6-21.3-21.3V267c0-0.7,0.6-1.3,1.3-1.3h470c0.7,0,1.2,0.6,1.2,1.3v1.3
	C479,280,469.4,289.6,457.6,289.6"/>
<linearGradient id="SVGID_00000021818038861725710730000016049284182481144985_" gradientUnits="userSpaceOnUse" x1="5.5" y1="277.65" x2="479.9" y2="277.65">
	<stop  offset="0" style="stop-color:#111111"/>
	<stop  offset="1" style="stop-color:#212529"/>
</linearGradient>
<path style="fill-rule:evenodd;clip-rule:evenodd;fill:url(#SVGID_00000021818038861725710730000016049284182481144985_);" d="
	M7.7,266.7c-0.2,0-0.3,0.1-0.3,0.3v1.3c0,11.2,9.1,20.4,20.4,20.4h429.8c11.3,0,20.4-9.2,20.4-20.4V267c0-0.2-0.1-0.3-0.3-0.3H7.7z
	 M457.6,290.5H27.8c-12.3,0-22.3-10-22.3-22.3V267c0-1.2,1-2.2,2.2-2.2h470c1.2,0,2.2,1,2.2,2.2v1.3
	C479.9,280.5,469.9,290.5,457.6,290.5L457.6,290.5z"/>
<linearGradient id="SVGID_00000182522380988381691860000012972592899996271236_" gradientUnits="userSpaceOnUse" x1="187.5" y1="268.9" x2="297.9392" y2="268.9">
	<stop  offset="0" style="stop-color:#111111"/>
	<stop  offset="1" style="stop-color:#212529"/>
</linearGradient>
<path style="fill-rule:evenodd;clip-rule:evenodd;fill:url(#SVGID_00000182522380988381691860000012972592899996271236_);" d="
	M189.6,266.7c0.9,2.7,3.4,4.5,6.3,4.5h93.6c2.9,0,5.4-1.8,6.3-4.5H189.6z M289.5,273h-93.6c-4.2,0-7.7-3-8.4-7.1
	c0-0.3,0-0.6,0.2-0.8c0.2-0.2,0.4-0.3,0.7-0.3H297c0.3,0,0.5,0.1,0.7,0.3c0.2,0.2,0.3,0.5,0.2,0.8C297.3,270,293.7,273,289.5,273z"
	/>
<path class="st5" d="M68.9,254.8h347.6V48.1H68.9V254.8z"/>
<g>
	<rect id="svg_2" x="68.9" y="48.4" class="st6" width="346.7" height="205.4"/>
	
		<linearGradient id="svg_3_00000085961855973793370470000007965024566175045037_" gradientUnits="userSpaceOnUse" x1="292.9999" y1="627.7087" x2="116.182" y2="602.4189" gradientTransform="matrix(1 0 0 1 0 -542)">
		<stop  offset="0" style="stop-color:#111111"/>
		<stop  offset="1" style="stop-color:#212529"/>
	</linearGradient>
	
		<rect id="svg_3" x="85.3" y="69.8" style="fill:url(#svg_3_00000085961855973793370470000007965024566175045037_);" width="313.2" height="17.2"/>
	<ellipse id="svg_4" class="st8" cx="88" cy="62" rx="2.7" ry="2.6"/>
	<ellipse id="svg_5" class="st9" cx="96.3" cy="62" rx="2.7" ry="2.6"/>
	<ellipse id="svg_6" class="st10" cx="104.5" cy="62" rx="2.7" ry="2.6"/>
	<ellipse id="svg_7" class="st11" cx="95.2" cy="78.2" rx="4.5" ry="4.3"/>
	<rect id="svg_8" x="105.7" y="73.9" class="st12" width="37.3" height="9"/>
	<path class="st13" d="M389.6,83.4h-20.7c-0.9,0-1.6-0.7-1.6-1.6V75c0-0.9,0.7-1.6,1.6-1.6h20.7c0.9,0,1.6,0.7,1.6,1.6v6.7
		C391.2,82.7,390.5,83.4,389.6,83.4z M368.9,74.4c-0.3,0-0.6,0.3-0.6,0.6v6.7c0,0.3,0.3,0.6,0.6,0.6h20.7c0.3,0,0.6-0.3,0.6-0.6V75
		c0-0.3-0.3-0.6-0.6-0.6H368.9z"/>
	<rect id="svg_10" x="166.7" y="98" class="st13" width="231.8" height="144.1"/>
	<g id="svg_11">
		<rect id="svg_12" x="188.2" y="120.1" class="st14" width="56.7" height="10.6"/>
		<rect id="svg_13" x="188.2" y="136" class="st14" width="78.3" height="10.6"/>
		<rect id="svg_14" x="188.2" y="179.4" class="st14" width="78.3" height="36.5"/>
	</g>
	<g id="svg_15">
		<path id="svg_16" class="st15" d="M190.6,151.7h3.5c1.1-0.1,2,0.7,2.1,1.7v2.9c-0.1,1-1,1.8-2.1,1.7h-3.5c-1.1,0.1-2-0.7-2.1-1.7
			v-2.9C188.6,152.3,189.5,151.6,190.6,151.7L190.6,151.7z"/>
		<path id="svg_17" class="st15" d="M190.6,160.2h3.5c1.1-0.1,2,0.7,2.1,1.7v2.9c-0.1,1-1,1.8-2.1,1.7h-3.5c-1.1,0.1-2-0.7-2.1-1.7
			v-2.9C188.6,160.9,189.5,160.2,190.6,160.2z"/>
		<path id="svg_18" class="st15" d="M190.6,168.8h3.5c1.1-0.1,2,0.7,2.1,1.7v2.8c-0.1,1-1,1.8-2.1,1.7h-3.5c-1.1,0.1-2-0.7-2.1-1.7
			v-2.9C188.6,169.5,189.5,168.7,190.6,168.8z"/>
	</g>
	<g id="svg_19">
		<path id="svg_20" class="st16" d="M199,153.3h38v2.3h-38V153.3z"/>
		<path id="svg_21" class="st16" d="M199,162.3h38v2.3h-38V162.3z"/>
		<path id="svg_22" class="st16" d="M199,170.5h35.2v2.3H199V170.5z"/>
		<path id="svg_23" class="st16" d="M188.5,110.3h35.8v2.3h-35.8V110.3z"/>
	</g>
	<rect id="svg_24" x="86.2" y="100.2" class="st17" width="70.9" height="10.6"/>
	<g id="svg_25">
		<rect id="svg_26" x="86.2" y="112.5" class="st13" width="70.9" height="10.6"/>
		<rect id="svg_27" x="86.2" y="124.8" class="st13" width="70.9" height="10.6"/>
		<rect id="svg_28" x="86.2" y="137" class="st13" width="70.9" height="10.6"/>
	</g>
</g>
<linearGradient id="SVGID_00000145028471471427639510000014254366486771641276_" gradientUnits="userSpaceOnUse" x1="417.4154" y1="151.45" x2="68" y2="151.45">
	<stop  offset="0" style="stop-color:#47C1F0"/>
	<stop  offset="0.5" style="stop-color:#00A0E4"/>
	<stop  offset="1" style="stop-color:#008CD3"/>
</linearGradient>
<path style="fill-rule:evenodd;clip-rule:evenodd;fill:url(#SVGID_00000145028471471427639510000014254366486771641276_);" d="
	M69.9,253.8h345.8V49.1H69.9V253.8z M416.6,255.7H68.9c-0.5,0-0.9-0.4-0.9-0.9V48.1c0-0.5,0.4-0.9,0.9-0.9h347.6
	c0.5,0,0.9,0.4,0.9,0.9v206.6C417.5,255.3,417.1,255.7,416.6,255.7z"/>
<linearGradient id="SVGID_00000008850203736777787930000007399713603930498229_" gradientUnits="userSpaceOnUse" x1="167.1" y1="149.8898" x2="315.9" y2="149.8898" gradientTransform="matrix(1 0 0 -1 0 299.8898)">
	<stop  offset="0" style="stop-color:#03A9F4"/>
	<stop  offset="1" style="stop-color:#50D0F1"/>
</linearGradient>
<path style="fill:url(#SVGID_00000008850203736777787930000007399713603930498229_);" d="M241.5,102.3c-33.8,0-62.7,19.8-74.4,47.7
	c11.7,27.9,40.6,47.7,74.4,47.7s62.7-19.8,74.4-47.7C304.2,122.1,275.3,102.3,241.5,102.3z M241.5,181.8
	c-18.7,0-33.8-14.2-33.8-31.8s15.2-31.8,33.8-31.8s33.8,14.2,33.8,31.8S260.2,181.8,241.5,181.8z M241.5,130.9
	c-11.2,0-20.3,8.5-20.3,19.1s9.1,19.1,20.3,19.1s20.3-8.5,20.3-19.1C261.8,139.5,252.7,130.9,241.5,130.9L241.5,130.9z"/>
</svg>
