<?xml version="1.0" encoding="UTF-8"?> <svg xmlns="http://www.w3.org/2000/svg" id="Layer_1" data-name="Layer 1" viewBox="0 0 320 240"> <defs> <style>.cls-1{opacity:0.16;}.cls-2{fill:#606060;}.cls-3{fill:none;stroke:#171f29;stroke-linecap:round;stroke-linejoin:round;stroke-width:2px;}</style> </defs> <title>Custom_Visual_Search</title> <g class="cls-1"> <path class="cls-2" d="M159.94,150a30,30,0,1,1,14.81-56.12,1.36,1.36,0,1,1-1.34,2.37,27.28,27.28,0,1,0,8.76,7.87,1.37,1.37,0,0,1,2.22-1.59,30,30,0,0,1-21.26,47.3,28.41,28.41,0,0,1-3.19.17"></path> <path class="cls-2" d="M160,143.61a23.57,23.57,0,0,1-19.85-10.86,1.39,1.39,0,1,1,2.34-1.5,20.81,20.81,0,1,0-3.25-9.8,1.39,1.39,0,1,1-2.77.19,23.35,23.35,0,0,1,1.82-10.87A23.62,23.62,0,1,1,160,143.61"></path> <path class="cls-2" d="M160,136.59A16.59,16.59,0,1,1,176.59,120a16.35,16.35,0,0,1-1.33,6.52,1.38,1.38,0,1,1-2.54-1.09,13.83,13.83,0,1,0-7.84,7.51,1.38,1.38,0,1,1,1,2.59,16.43,16.43,0,0,1-5.86,1.06"></path> </g> <path class="cls-3" d="M165.71,126.34l5.78,5.78"></path> <path class="cls-3" d="M168.29,120a8.3,8.3,0,1,1-8.29-8.3A8.29,8.29,0,0,1,168.29,120Z"></path> </svg> 