
<svg id="Layer_1" xmlns="http://www.w3.org/2000/svg" viewBox="0 0 114 122"><style>.st0{fill:#fff}</style><ellipse class="st0" cx="57" cy="57" rx="57" ry="57"/><ellipse cx="57" cy="57" rx="53.1" ry="53.1" fill="#f9f9f7"/><path d="M57 1.9C26.6 1.9 1.9 26.6 1.9 57c0 16.5 7.3 31.4 18.9 41.5 6.2 5.4 13.7 9.5 21.9 11.7 4.6 1.2 9.4 1.9 14.3 1.9s9.7-.7 14.3-1.9c8.2-2.2 15.7-6.3 21.9-11.7 11.5-10.2 18.8-25 18.8-41.4.1-30.5-24.6-55.2-55-55.2zm32.5 94.6c-.6-.3-1.3-.6-1.9-.9-1.9-.8-3.8-1.6-5.7-2.3-1.9-.8-3.7-1.5-5.4-2.2-7.9-3.4-8.5-6-8.7-9.4 0-.3 0-.7-.1-1 .8-.7 1.4-1.3 1.8-1.7 2-1.9 4.7-5.6 6.1-9.3 0 0 .1-.2.1-.3.3-.9.6-1.7.9-2.7 1.9-.4 3.1-2.4 3.5-4.3.4-.8 1.3-2.7 1.1-4.8-.2-2.2-1-3.4-1.9-4.1 1.5-8.6.1-13.1-1-18-.8-3.8 3.5.3 3.5.3.2-3.4-5.9-7.5-7.1-10.4-.4-.9 3.1.4 3.1.4-10.8-11.3-31.6-3.4-31.6-3.4s-8.3-1.9-9.8 0c-.1.1 2-.1 2.8 1.3 1 1.8-3.4 4.4-3.4 4.4-3.7 2.6-3.1 4.6-3.1 4.6 1.1-1.3 3.6-.6 3.6-.6s-5 4.1-4 6.2c.1.2 2.7-2.5 2.9.9.2 4.3-.4 6.8.3 14.1-1.2.6-2.3 1.9-2.5 4.5-.2 2.2.7 4 1.1 4.8.4 1.9 1.6 4 3.6 4.4.3.9.5 1.8.9 2.7 0 .1 0 .1.1.2v.1c1.4 3.6 3.5 6.6 6.1 9.2.5.5 1.1 1.1 1.8 1.7 0 .3 0 .6-.1.9-.2 3.4-1 6.1-8.9 9.6-1.7.7-3.5 1.4-5.4 2.2-1.8.7-3.8 1.5-5.7 2.3-.7.3-1.3.6-2 .9C13.1 87.1 5.8 72.8 5.8 57c0-28.2 23-51.2 51.2-51.2s51.2 23 51.2 51.2c0 15.8-7.3 30.1-18.7 39.5z" fill="#b3b1a6"/><g><path class="st0" d="M107.4 102.1v16.7c0 1.8-1.4 3.2-3.2 3.2H76.8c-1.8 0-3.2-1.4-3.2-3.2v-16.7c0-1.8 1.4-3.2 3.2-3.2h1v-6.3h.2c1-6 6.3-10.6 12.5-10.6 6.3 0 11.5 4.6 12.5 10.6h.2v6.3h1c1.7 0 3.2 1.4 3.2 3.2z"/></g><g><path d="M104.2 100.9h-3v-6.3c0-5.9-4.8-10.6-10.7-10.6-5.9 0-10.7 4.8-10.7 10.6v6.3h-3c-.7 0-1.2.5-1.2 1.2v16.7c0 .7.5 1.2 1.2 1.2h27.4c.7 0 1.2-.5 1.2-1.2v-16.7c0-.7-.6-1.2-1.2-1.2zM84 94.5s0 .1 0 0c0-3.5 3-6.5 6.5-6.5s6.5 2.9 6.5 6.5v6.3H84v-6.3zm10.3 16.4c0 2.1-1.7 3.8-3.8 3.8-2.1 0-3.8-1.7-3.8-3.8 0-2.1 1.7-3.8 3.8-3.8 2.1 0 3.8 1.7 3.8 3.8z" fill="#86847c"/></g></svg>